<svg xmlns="http://www.w3.org/2000/svg" width="844" height="1080" viewBox="0 0 844 1080">
  <defs>
    <style>
      .cls-1 {
        fill: #f3d3c3;
      }

      .cls-1, .cls-10, .cls-11, .cls-12, .cls-15, .cls-2, .cls-4, .cls-5, .cls-6, .cls-7, .cls-8, .cls-9 {
        stroke: #000;
      }

      .cls-1, .cls-10, .cls-11, .cls-12, .cls-15, .cls-2, .cls-3, .cls-4, .cls-5, .cls-6, .cls-7, .cls-8, .cls-9 {
        stroke-miterlimit: 10;
      }

      .cls-2 {
        fill: #63868c;
      }

      .cls-3 {
        fill: #f3f3f4;
        stroke: #f3f3f4;
      }

      .cls-4 {
        fill: #0d1b28;
      }

      .cls-5 {
        fill: #f8b676;
      }

      .cls-6 {
        fill: #5b6799;
      }

      .cls-7 {
        fill: #b69e92;
      }

      .cls-8 {
        fill: #fff;
      }

      .cls-10 {
        fill: #050200;
      }

      .cls-11 {
        fill: #f172ae;
      }

      .cls-12 {
        fill: #02a5b2;
      }

      .cls-13 {
        fill: #f15731;
      }

      .cls-14 {
        fill: #61bf21;
      }

      .cls-15 {
        fill: #fad0e7;
      }
    </style>
  </defs>
  <title>6ix9ine</title>
  <g id="Layer_9" data-name="Layer 9">
    <path class="cls-1" d="M551.09,737s2.76,123.55-29.06,130H457s9.69-48.12,0-122.25C457,744.8,544.17,740.9,551.09,737Z"/>
    <path class="cls-1" d="M400.33,734.78l-137.93,3.7s16.55,97.38,9.19,112.17h114S372.75,827.23,400.33,734.78Z"/>
    <path class="cls-2" d="M388.18,847.85s15,55-19.71,60.93l-154.71,1s-23.2-9.61,1.94-20.92,48.81-6.6,58-40.8Z"/>
    <path class="cls-2" d="M459.19,859.89s-8.84,54.83,13.3,61L570.91,923s14.65-9.44-1.49-20.92-31.13-7-37.41-41.19Z"/>
    <g>
      <g>
        <line class="cls-3" x1="545.48" y1="748.09" x2="541.18" y2="761.76"/>
        <line class="cls-3" x1="523.92" y1="754.94" x2="528.35" y2="768.58"/>
        <line class="cls-3" x1="475.18" y1="748.1" x2="479.62" y2="761.75"/>
        <line class="cls-3" x1="492.9" y1="755" x2="487.7" y2="768.52"/>
        <line class="cls-3" x1="519.68" y1="748.09" x2="515.38" y2="761.76"/>
        <line class="cls-3" x1="499.55" y1="748.1" x2="503.98" y2="761.75"/>
        <line class="cls-3" x1="471.4" y1="758.9" x2="466.2" y2="772.42"/>
        <line class="cls-3" x1="538.25" y1="762.75" x2="542.68" y2="776.39"/>
        <line class="cls-3" x1="532.58" y1="768.59" x2="528.28" y2="782.26"/>
        <line class="cls-3" x1="517.26" y1="768.66" x2="512.67" y2="773.13"/>
        <line class="cls-3" x1="498.15" y1="764.36" x2="500.24" y2="769.62"/>
        <line class="cls-3" x1="507.23" y1="768.66" x2="502.04" y2="782.18"/>
        <line class="cls-3" x1="495.25" y1="768.6" x2="499.68" y2="782.25"/>
        <line class="cls-3" x1="476.81" y1="768.84" x2="483.72" y2="782.01"/>
        <line class="cls-3" x1="544.05" y1="780.31" x2="539.75" y2="793.97"/>
        <line class="cls-3" x1="534.46" y1="782.33" x2="529.87" y2="786.79"/>
        <line class="cls-3" x1="512.67" y1="780.09" x2="522.32" y2="790.05"/>
      </g>
      <g>
        <line class="cls-3" x1="463.97" y1="824.35" x2="468.77" y2="810.8"/>
        <line class="cls-3" x1="485.78" y1="818.04" x2="481.84" y2="804.29"/>
        <line class="cls-3" x1="534.24" y1="826.06" x2="530.3" y2="812.31"/>
        <line class="cls-3" x1="516.79" y1="818.73" x2="522.47" y2="805.35"/>
        <line class="cls-3" x1="489.76" y1="824.98" x2="494.55" y2="811.43"/>
        <line class="cls-3" x1="509.89" y1="825.46" x2="505.95" y2="811.71"/>
        <line class="cls-3" x1="538.42" y1="815.36" x2="544.1" y2="801.97"/>
        <line class="cls-3" x1="471.73" y1="809.88" x2="467.8" y2="796.13"/>
        <line class="cls-3" x1="477.61" y1="804.18" x2="482.4" y2="790.62"/>
        <line class="cls-3" x1="492.93" y1="804.48" x2="497.68" y2="800.13"/>
        <line class="cls-3" x1="511.87" y1="809.25" x2="509.97" y2="803.94"/>
        <line class="cls-3" x1="502.95" y1="804.72" x2="508.64" y2="791.34"/>
        <line class="cls-3" x1="514.93" y1="805.08" x2="510.99" y2="791.33"/>
        <line class="cls-3" x1="533.36" y1="805.29" x2="526.94" y2="791.96"/>
        <line class="cls-3" x1="466.57" y1="792.19" x2="471.37" y2="778.63"/>
        <line class="cls-3" x1="476.23" y1="790.4" x2="480.99" y2="786.05"/>
        <line class="cls-3" x1="497.93" y1="793.17" x2="488.65" y2="782.98"/>
      </g>
      <g>
        <line class="cls-3" x1="459.72" y1="856.87" x2="464.52" y2="843.32"/>
        <line class="cls-3" x1="481.53" y1="850.56" x2="477.59" y2="836.81"/>
        <line class="cls-3" x1="530" y1="858.58" x2="526.06" y2="844.83"/>
        <line class="cls-3" x1="512.54" y1="851.25" x2="518.22" y2="837.86"/>
        <line class="cls-3" x1="485.51" y1="857.5" x2="490.31" y2="843.95"/>
        <line class="cls-3" x1="505.64" y1="857.98" x2="501.7" y2="844.23"/>
        <line class="cls-3" x1="534.17" y1="847.87" x2="539.85" y2="834.49"/>
        <line class="cls-3" x1="467.49" y1="842.4" x2="463.55" y2="828.65"/>
        <line class="cls-3" x1="473.36" y1="836.7" x2="478.16" y2="823.14"/>
        <line class="cls-3" x1="488.68" y1="837" x2="493.44" y2="832.65"/>
        <line class="cls-3" x1="507.63" y1="841.77" x2="505.73" y2="836.46"/>
        <line class="cls-3" x1="498.71" y1="837.24" x2="504.39" y2="823.86"/>
        <line class="cls-3" x1="510.68" y1="837.6" x2="506.74" y2="823.85"/>
        <line class="cls-3" x1="529.12" y1="837.81" x2="522.69" y2="824.48"/>
        <line class="cls-3" x1="462.33" y1="824.71" x2="467.12" y2="811.15"/>
        <line class="cls-3" x1="471.98" y1="822.92" x2="476.74" y2="818.57"/>
        <line class="cls-3" x1="493.68" y1="825.69" x2="484.4" y2="815.5"/>
      </g>
    </g>
    <g>
      <g>
        <line class="cls-3" x1="382.86" y1="739.09" x2="377.27" y2="752.61"/>
        <line class="cls-3" x1="354.84" y1="745.86" x2="360.6" y2="759.35"/>
        <line class="cls-3" x1="291.54" y1="739.1" x2="297.3" y2="752.6"/>
        <line class="cls-3" x1="314.55" y1="745.92" x2="307.8" y2="759.29"/>
        <line class="cls-3" x1="349.34" y1="739.09" x2="343.76" y2="752.61"/>
        <line class="cls-3" x1="323.19" y1="739.1" x2="328.95" y2="752.6"/>
        <line class="cls-3" x1="286.62" y1="749.78" x2="279.87" y2="763.15"/>
        <line class="cls-3" x1="373.46" y1="753.58" x2="379.22" y2="767.08"/>
        <line class="cls-3" x1="366.1" y1="759.36" x2="360.52" y2="772.88"/>
        <line class="cls-3" x1="346.2" y1="759.43" x2="340.23" y2="763.85"/>
        <line class="cls-3" x1="321.37" y1="755.18" x2="324.09" y2="760.38"/>
        <line class="cls-3" x1="333.17" y1="759.43" x2="326.42" y2="772.8"/>
        <line class="cls-3" x1="317.6" y1="759.37" x2="323.36" y2="772.87"/>
        <line class="cls-3" x1="293.66" y1="759.61" x2="302.62" y2="772.63"/>
        <line class="cls-3" x1="381" y1="770.95" x2="375.41" y2="784.46"/>
        <line class="cls-3" x1="368.55" y1="772.95" x2="362.57" y2="777.36"/>
        <line class="cls-3" x1="340.24" y1="770.74" x2="352.77" y2="780.58"/>
      </g>
      <g>
        <line class="cls-3" x1="276.97" y1="814.5" x2="283.2" y2="801.1"/>
        <line class="cls-3" x1="305.3" y1="808.26" x2="300.18" y2="794.66"/>
        <line class="cls-3" x1="368.26" y1="816.19" x2="363.14" y2="802.59"/>
        <line class="cls-3" x1="345.58" y1="808.94" x2="352.96" y2="795.71"/>
        <line class="cls-3" x1="310.47" y1="815.12" x2="316.7" y2="801.72"/>
        <line class="cls-3" x1="336.62" y1="815.6" x2="331.5" y2="802"/>
        <line class="cls-3" x1="373.68" y1="805.6" x2="381.06" y2="792.37"/>
        <line class="cls-3" x1="287.06" y1="800.19" x2="281.94" y2="786.6"/>
        <line class="cls-3" x1="294.69" y1="794.55" x2="300.92" y2="781.15"/>
        <line class="cls-3" x1="314.58" y1="794.85" x2="320.77" y2="790.55"/>
        <line class="cls-3" x1="339.2" y1="799.57" x2="336.73" y2="794.32"/>
        <line class="cls-3" x1="327.61" y1="795.09" x2="335" y2="781.85"/>
        <line class="cls-3" x1="343.17" y1="795.44" x2="338.05" y2="781.85"/>
        <line class="cls-3" x1="367.12" y1="795.65" x2="358.77" y2="782.47"/>
        <line class="cls-3" x1="280.35" y1="782.7" x2="286.58" y2="769.29"/>
        <line class="cls-3" x1="292.9" y1="780.93" x2="299.08" y2="776.63"/>
        <line class="cls-3" x1="321.08" y1="783.66" x2="309.02" y2="773.59"/>
      </g>
      <g>
        <line class="cls-3" x1="271.46" y1="846.66" x2="277.68" y2="833.25"/>
        <line class="cls-3" x1="299.78" y1="840.41" x2="294.67" y2="826.82"/>
        <line class="cls-3" x1="362.74" y1="848.34" x2="357.62" y2="834.75"/>
        <line class="cls-3" x1="340.06" y1="841.1" x2="347.45" y2="827.86"/>
        <line class="cls-3" x1="304.96" y1="847.28" x2="311.18" y2="833.88"/>
        <line class="cls-3" x1="331.1" y1="847.76" x2="325.99" y2="834.16"/>
        <line class="cls-3" x1="368.16" y1="837.76" x2="375.55" y2="824.52"/>
        <line class="cls-3" x1="281.54" y1="832.35" x2="276.42" y2="818.76"/>
        <line class="cls-3" x1="289.17" y1="826.71" x2="295.4" y2="813.3"/>
        <line class="cls-3" x1="309.07" y1="827.01" x2="315.25" y2="822.71"/>
        <line class="cls-3" x1="333.68" y1="831.72" x2="331.21" y2="826.47"/>
        <line class="cls-3" x1="322.1" y1="827.25" x2="329.48" y2="814.01"/>
        <line class="cls-3" x1="337.65" y1="827.6" x2="332.53" y2="814.01"/>
        <line class="cls-3" x1="361.6" y1="827.81" x2="353.25" y2="814.63"/>
        <line class="cls-3" x1="274.83" y1="814.85" x2="281.06" y2="801.45"/>
        <line class="cls-3" x1="287.38" y1="813.08" x2="293.56" y2="808.79"/>
        <line class="cls-3" x1="315.57" y1="815.82" x2="303.51" y2="805.75"/>
      </g>
    </g>
  </g>
  <g id="arme">
    <path class="cls-4" d="M524,495.81s14.17,58,60.83,102L508.9,677s10.14,32.27,37.37,33c0,0,116-85.81,89.16-148.46,0,0-29.8-64.73-66.08-113.32"/>
    <path class="cls-4" d="M244.63,436.55s-14.27,3.87,11.09,46l-51.43,91.11s26.76,13.55,61.7,61.83L249.8,658.24s-104.35-69-91.5-89.12C158.3,569.12,138.73,504.68,244.63,436.55Z"/>
  </g>
  <g id="bukser">
    <path class="cls-5" d="M240.5,618.5s83.05,13.9,165.07,23c58.86,6.49,117.19,10.48,143.93,5,0,0,31,122-22,124l-70-7s-32-65-33-90-6,89-41,88l-115-9S237.5,717.5,240.5,618.5Z"/>
  </g>
  <g id="overkrop">
    <path class="cls-4" d="M247.5,417.5s158,142.29,326,19.56c0,0,15,180.53-22,203.65,0,0-88,19.57-311-24.9C240.5,615.81,195.5,501.09,247.5,417.5Z"/>
  </g>
  <g id="underbukser">
    <path class="cls-6" d="M235.62,607.17c0,.12,0,.23,0,.35a9.7,9.7,0,0,0,4.84,9.44c16.14,9.31,80.19,33.78,305.69,31.94a9.89,9.89,0,0,0,9.76-11.42l-.47-2.9a10,10,0,0,0-12.06-8.05C514.61,633,423.94,645,248.08,598.94A9.93,9.93,0,0,0,235.62,607.17Z"/>
  </g>
  <g id="Layer_10" data-name="Layer 10">
    <rect class="cls-1" x="399.5" y="139.5" width="17" height="17"/>
    <rect class="cls-1" x="333.5" y="180.5" width="32" height="12"/>
  </g>
  <g id="ansigt">
    <path class="cls-1" d="M326.5,91.5l224,8s52,275,18,354c0,0-171,128-321-36C247.5,417.5,231.5,343.5,326.5,91.5Z"/>
    <polyline class="cls-7" points="436.59 227.5 413.5 312.5 450 312.5"/>
    <g>
      <path class="cls-8" d="M461.63,214.9c20.88-3.17,69.22-6.33,88.33,27.69a13.7,13.7,0,0,1,1.84,9.24c-1.39,7-9.94,16.15-48.72,7.9-.27-.06-.53-.11-.8-.15-4.27-.68-45.82-7.86-51.77-28.68C448.31,223.23,453.47,216.13,461.63,214.9Z"/>
      <ellipse class="cls-4" cx="500.08" cy="236.54" rx="14.09" ry="22.48" transform="translate(-25.17 62.92) rotate(-7.02)"/>
    </g>
    <g>
      <path class="cls-8" d="M335.63,203.9c20.88-3.17,69.22-6.33,88.33,27.69a13.7,13.7,0,0,1,1.84,9.24c-1.39,7-9.94,16.15-48.72,7.9-.27-.06-.53-.11-.8-.15-4.27-.68-45.82-7.86-51.77-28.68C322.31,212.23,327.47,205.13,335.63,203.9Z"/>
      <ellipse class="cls-4" cx="374.08" cy="225.54" rx="14.09" ry="22.48" transform="translate(-24.77 47.43) rotate(-7.02)"/>
    </g>
    <line class="cls-8" x1="462.5" y1="213.5" x2="522.5" y2="184.5"/>
    <polyline class="cls-9" points="384.5 136.5 330.5 128.5 325.6 153.34 322.45 169.3 316.5 199.5 374.5 202.5 374.5 172.5 332.5 172.5"/>
    <polyline class="cls-10" points="419.5 168.5 389.5 163.5 389.5 128.5 432.5 133.5 419.5 217.5 394.5 174.5"/>
    <path class="cls-1" d="M456.5,265.5s-10.12,6.75-6.33,12.66c1.27,2,4.08,3.84,9.33,5.34,0,0,12-5-3-9,0,0-6,0-3,4"/>
    <line class="cls-8" x1="467.5" y1="274.5" x2="467.5" y2="283.5"/>
    <polyline class="cls-8" points="471.5 274.5 475.5 280.5 479.5 286.5"/>
    <line class="cls-8" x1="472.5" y1="284.5" x2="480.5" y2="276.5"/>
    <path class="cls-1" d="M492.5,280.5s-18-7-2-12,4,13,4,13-3,9,4,10"/>
    <path class="cls-1" d="M504.5,277.5s0,11,4,13"/>
    <path class="cls-1" d="M517.5,290.5s-1-28,5-3"/>
    <path class="cls-1" d="M528.5,283.5h7s0-8-4-6c0,0-17,6,2,15l6-2"/>
    <path class="cls-8" d="M283,352s4.78-63.39,131.06-32.21c0,0,129.15-15.59,141.59,51.95,0,0,13.39,76.91-124.37,75.87C431.28,447.65,298.31,459.08,283,352Z"/>
  </g>
  <g id="tænder">
    <path class="cls-11" d="M283.5,354.5s-2-28,40-14a22.48,22.48,0,0,1,2.19,10.71c-.29,7.66-4.58,18-22.19,26.29C303.5,377.5,282.5,362.5,283.5,354.5Z"/>
    <path class="cls-12" d="M324.51,356.73s-2.63-39.29,52.59-19.65a33.32,33.32,0,0,1,2.88,15c-.38,10.75-6,25.32-29.17,36.9C350.81,389,323.2,368,324.51,356.73Z"/>
    <path class="cls-13" d="M375.51,361.66s-2.63-34.5,52.59-17.25A26.34,26.34,0,0,1,431,357.6c-.38,9.44-6,22.23-29.17,32.4C401.81,390,374.2,371.52,375.51,361.66Z"/>
    <path class="cls-14" d="M418.51,372.66s-2.63-34.5,52.59-17.25A26.34,26.34,0,0,1,474,368.6c-.38,9.44-6,22.23-29.17,32.4C444.81,401,417.2,382.52,418.51,372.66Z"/>
    <path class="cls-11" d="M466,372.66s-2-34.5,39.78-17.25A33.2,33.2,0,0,1,508,368.6c-.29,9.44-4.55,22.23-22.06,32.4C485.92,401,465,382.52,466,372.66Z"/>
    <path class="cls-12" d="M513.14,366.17s-15-32.58,30.67-31.4a35.34,35.34,0,0,1,7.08,11.94c3.33,9.22,4.23,23.14-8.29,39.46C542.6,386.17,516,376.06,513.14,366.17Z"/>
    <path class="cls-15" d="M286.21,341.57s26.81-57.66,140.66-21c0,0,113.32-19.71,122.14,20.61C549,341.16,522.68,372.78,286.21,341.57Z"/>
    <path class="cls-9" d="M303,399.61s21-2.94,26.86,28.83C329.86,428.44,297.11,408.63,303,399.61Z"/>
    <path class="cls-9" d="M364.27,443.77s-46.8-11.12-44-25.63c0,0,23-13.39,44,25.63"/>
    <path class="cls-9" d="M401.41,447.4s-44.31,2.67-47.81-12.54c0,0,14.14-20,47.81,12.54"/>
    <path class="cls-9" d="M422,449s-40,5.1-44.91-8.94c0,0,10.57-19.58,44.91,8.94"/>
    <path class="cls-9" d="M456.22,446.82s-43.07,10.77-49.31-3.55c0,0,10.23-22.28,49.31,3.55"/>
    <path class="cls-9" d="M490.27,442.42s-41.23,16.46-49.34,3.11c0,0,7.14-23.45,49.34-3.11"/>
    <path class="cls-9" d="M518.65,431s-37.7,23.45-48,11.74c0,0,2.9-24.35,48-11.74"/>
    <path class="cls-9" d="M539.56,416.31s-31,31.79-43.82,22.89c0,0-3-24.33,43.82-22.89"/>
  </g>
  <g id="hår">
    <path class="cls-11" d="M434.5,72.5s-11-21-37,0c0,0,9-19-23-5,0,0-50-27-62,21,0,0-37-13-57,21,0,0-42,6-32,36,0,0-38,1-28,26,0,0-53,22-49,62,0,0,15,3,24-25,0,0,27,9,40-27,0,0,3,8,12-21,0,0,10,1,17-21,0,0,17,3,25-18,0,0,24,6,37-17,0,0-1,16-32,37,0,0-3,10-23,10,0,0-13,9-7,15,0,0-24,6-21,21,0,0-27,8-31,49s11,6,11,6,15-41,36-50c0,0,12-4,17-20,0,0,18,4,25-24,0,0,27-7,28-29,0,0,2,34-22,43,0,0-31,12-26,31,0,0-24,6-31,29,0,0-23,15-19,29,0,0-32,38-13,55,0,0,16,0,13-34,0,0,38-44,40-60,0,0,26-10,26-32l12-10-5,17s-40,27-25,42c0,0-27,21-16,43,0,0-29,39-16,59,0,0-24,26-10,54,0,0-33,26-9,79,0,0,9-4,4-25,0,0,16-13,7-30,0,0,16-15,4-34,0,0,11-12,10-40,0,0,25-26,11-44,0,0,16-16,14-44,0,0,19-11,25-44,0,0,25-7,21-23,0,0-32,60-27,70,0,0-30,36-16,43,0,0-24,30-10,42,0,0-19,26-12,47,0,0-7,43,4,26s12-39,12-39,16-30,6-45c0,0,13-11,11-38a36.6,36.6,0,0,0,14-36s12,2,15-34c0,0,15-8,10-33l14-30s26-1,60-36c0,0-1,36,30,4,0,0,30,21,31-10s26,10,26,10,60,36,58,3c0,0,17,39,28,37,0,0-20,29,16,89,0,0-14,65,9,89,0,0-12,51,0,60s9-64,9-64-1-84-9-98-23-45-17-70-5-42-5-42,32,67,27,82,10,69,10,69-9,81,4,91c0,0-12,97,17,111,0,0,9-73-9-90,0,0,16-51-2-78,0,0,13-40,1-64,0,0,16-40,0-49s-11-52-11-52,20,24,30,70,23,78,23,78-11,42,4,88c0,0,25-80,15-88,0,0,5-54-17-77,0,0,11-44-25-81,0,0,6-17-56-51,0,0-3,17-32-19,0,0-31-15-42,6,0,0,5-25-41-3Z"/>
    <path class="cls-13" d="M325.37,82.48s-39.93-13.21-61.51,21.34c0,0-45.33,6.09-34.54,36.57,0,0-41,1-30.21,26.42,0,0-57.19,22.35-52.88,63,0,0,16.19,3,25.9-25.4,0,0,29.14,9.15,43.17-27.43,0,0,3.23,8.13,12.95-21.34,0,0,10.79,1,18.34-21.33,0,0,18.35,3,27-18.29,0,0,25.9,6.09,39.93-17.27,0,0-1.08,16.25-34.54,37.59,0,0-3.23,10.16-24.82,10.16,0,0-14,9.14-7.55,15.24,0,0-25.9,6.1-22.66,21.34,0,0-29.14,8.12-33.45,49.78s11.87,6.1,11.87,6.1,16.18-41.66,38.85-50.8c0,0,12.94-4.07,18.34-20.32,0,0,19.42,4.06,27-24.39,0,0,29.13-7.11,30.21-29.46,0,0,2.16,34.54-23.74,43.68,0,0-33.45,12.2-28.05,31.5,0,0-25.9,6.1-33.46,29.47,0,0-24.82,15.24-20.5,29.46,0,0-34.53,38.61-14,55.88,0,0,17.27,0,14-34.54,0,0,41-44.71,43.16-61A59.7,59.7,0,0,0,268.88,200c2-2,4-4,6.12-5.81,4.12-4.81,7.2-10.86,7.2-18.27l12.95-10.16-5.39,17.28A137,137,0,0,0,275,194.22a43.86,43.86,0,0,1-6.12,5.81c-8.09,8.49-13.79,18.47-6.1,25.71,0,0-29.14,21.33-17.27,43.69,0,0-31.29,39.62-17.26,59.94,0,0-25.9,26.42-10.8,54.87,0,0-35.61,26.41-9.71,80.26,0,0,9.71-4.06,4.32-25.4,0,0,17.26-13.21,7.55-30.48,0,0,17.27-15.24,4.32-34.54,0,0,11.87-12.2,10.79-40.65,0,0,27-26.41,11.87-44.7,0,0,17.27-16.26,15.11-44.7,0,0,20.5-11.18,27-44.71a54.76,54.76,0,0,0,13.14-5.71c5.27-10.16,9.52-17.66,9.52-17.66,2.13,8.05-3.39,13.85-9.52,17.66-9.78,18.84-23.12,46.86-19.62,53.46,0,0-32.37,36.58-17.26,43.69,0,0-25.9,30.48-10.8,42.67,0,0-20.5,26.42-12.94,47.76,0,0-7.56,43.69,4.31,26.41S258.46,368,258.46,368s17.27-30.48,6.48-45.72c0,0,14-11.18,11.87-38.61,0,0,19.42-12.19,15.1-36.58,0,0,12.95,2,16.19-34.54,0,0,16.19-8.13,10.79-33.53L334,148.52Z"/>
    <path class="cls-14" d="M554.5,155.5s-20,29,16,89c0,0-14,65,9,89,0,0-12,51,0,60s9-64,9-64-1-84-9-98-23-45-17-70-5-42-5-42,32,67,27,82,10,69,10,69-9,81,4,91c0,0-12,97,17,111,0,0,9-73-9-90,0,0,16-51-2-78,0,0,13-40,1-64,0,0,16-40,0-49s-11-52-11-52,20,24,30,70,23,78,23,78-11,42,4,88c0,0,25-80,15-88,0,0,5-54-17-77,0,0,11-44-25-81"/>
  </g>
</svg>
