<?xml version="1.0" encoding="utf-8"?>
<!-- Generator: Adobe Illustrator 22.0.1, SVG Export Plug-In . SVG Version: 6.00 Build 0)  -->
<svg version="1.1" id="Layer_1" xmlns="http://www.w3.org/2000/svg" xmlns:xlink="http://www.w3.org/1999/xlink" x="0px" y="0px"
	 viewBox="0 0 1600 900" style="enable-background:new 0 0 1600 900;" xml:space="preserve">
<style type="text/css">
	.st0{fill:#9B613A;stroke:#020201;stroke-miterlimit:10;}
	.st1{fill:#F4F3F2;stroke:#020201;stroke-miterlimit:10;}
	.st2{fill:none;}
	.st3{font-family:'Handwriting-Dakota';}
	.st4{font-size:8px;}
	.st5{fill:#437DD1;}
	.st6{fill:#8C562D;}
	.st7{fill:#050403;}
</style>
<polygon class="st0" points="623.6,373.4 651.9,430.5 976,421.8 927.4,370.2 "/>
<polyline class="st0" points="623.9,372.9 624,512.7 630.2,512.7 630.2,396.8 630.2,387.7 "/>
<polyline class="st0" points="650.4,428.4 650.4,530.3 642.1,530.3 642.1,411.7 "/>
<polyline class="st0" points="655.5,430.1 655.5,441.6 968.7,435.4 968.7,422 "/>
<polygon class="st0" points="931.4,511.7 931.4,436.1 940.3,436.1 940.3,511.7 "/>
<polyline class="st0" points="953.2,435.6 953.2,524.1 964.2,524.1 964.2,435.4 "/>
<g>

		<rect x="706.1" y="384.9" transform="matrix(0.4201 -0.9075 0.9075 0.4201 57.562 891.5447)" class="st1" width="40.5" height="31.7"/>

		<rect x="710.2" y="387.8" transform="matrix(0.4201 -0.9075 0.9075 0.4201 58.6497 890.6082)" class="st2" width="32" height="23.3"/>
	<text transform="matrix(0.9075 0.4201 -0.4201 0.9075 720.1573 384.7259)" class="st3 st4">Niller </text>
	<text transform="matrix(0.9075 0.4201 -0.4201 0.9075 716.1246 393.4381)" class="st3 st4">er </text>
	<text transform="matrix(0.9075 0.4201 -0.4201 0.9075 712.0914 402.15)" class="st3 st4">dåm</text>
</g>
<g>
	<g>
		<rect x="736.5" y="394.9" transform="matrix(0.9617 -0.274 0.274 0.9617 -84.4945 217.8213)" class="st5" width="2" height="33"/>
		<polygon class="st6" points="732.1,393.7 732.8,393.5 734,395.3 732,395.8 		"/>
	</g>
	<polygon class="st7" points="730.5,391 731.7,393.7 732.6,393.2 	"/>
</g>
</svg>
