<svg xmlns="http://www.w3.org/2000/svg" width="806.5" height="697.51" viewBox="0 0 806.5 697.51"><defs><style>.cls-1,.cls-9{fill:#0d1b28;}.cls-2{fill:#ff9207;}.cls-3{fill:#1f2532;}.cls-4{font-size:37.17px;font-family:ArialNarrow-Bold, Arial Narrow;font-weight:700;letter-spacing:0.02em;}.cls-4,.cls-8{fill:#fff;}.cls-5{letter-spacing:-0.04em;}.cls-6{letter-spacing:0.02em;}.cls-7{font-size:48px;fill:#f3f3f4;font-family:ArialMT, Arial;}.cls-9{font-size:36px;font-family:MyriadPro-Regular, Myriad Pro;}.cls-10{letter-spacing:-0.02em;}.cls-11{letter-spacing:-0.01em;}.cls-12{letter-spacing:-0.01em;}</style></defs><title>forkert_valg</title><g id="Layer_2" data-name="Layer 2"><path class="cls-1" d="M1134,761l-571.22-.5a31.36,31.36,0,0,1-31.28-31.28V222.78a31.36,31.36,0,0,1,31.28-31.28h743.44a31.36,31.36,0,0,1,31.28,31.28L1338,886C1331,912,1151.2,761,1134,761Z" transform="translate(-531.5 -191.5)"/><rect class="cls-2" x="589.4" y="484.92" width="150.94" height="56.42" rx="13.5" ry="13.5"/><polygon class="cls-2" points="640.47 528.81 610.62 528.81 610.62 561.5 610.71 561.5 640.47 528.81"/><rect class="cls-3" x="559.5" y="428.5" width="180.84" height="56.42" rx="13.5" ry="13.5"/><polygon class="cls-3" points="610.57 472.39 580.72 472.39 580.72 505.08 580.81 505.08 610.57 472.39"/><text class="cls-4" transform="translate(587.47 467.65) scale(1.08 1)">PRI<tspan class="cls-5" x="53.47" y="0">VA</tspan><tspan class="cls-6" x="93.12" y="0">T</tspan></text><text class="cls-4" transform="translate(609.17 525.87) scale(1.08 1)">SNAK</text><text x="-531.5" y="-191.5"></text></g><g id="Layer_3" data-name="Layer 3"><text class="cls-7" transform="translate(151.5 178.87)">Desværre, du gættede <tspan x="0" y="57.6">forkert.</tspan></text><rect class="cls-8" x="152" y="367" width="216" height="118" rx="11.5" ry="11.5"/><path d="M888,559a11,11,0,0,1,11,11v95a11,11,0,0,1-11,11H695a11,11,0,0,1-11-11V570a11,11,0,0,1,11-11H888m0-1H695a12,12,0,0,0-12,12v95a12,12,0,0,0,12,12H888a12,12,0,0,0,12-12V570a12,12,0,0,0-12-12Z" transform="translate(-531.5 -191.5)"/><text class="cls-9" transform="translate(189.49 428.06)"><tspan class="cls-10">P</tspan><tspan class="cls-11" x="18.58" y="0">r</tspan><tspan class="cls-12" x="29.99" y="0">ø</tspan><tspan x="49.5" y="0">v igen</tspan></text><text x="-531.5" y="-191.5"></text></g></svg>
