<svg id="walk" xmlns="http://www.w3.org/2000/svg" xmlns:xlink="http://www.w3.org/1999/xlink" width="591" height="677" viewBox="0 0 591 677">
  <defs>
    <style>
      .cls-1, .cls-10 {
        fill: #f38b2e;
      }

      .cls-1, .cls-10, .cls-11, .cls-12, .cls-13, .cls-14, .cls-15, .cls-2, .cls-3, .cls-4, .cls-5, .cls-7, .cls-8 {
        stroke: #000;
      }

      .cls-1, .cls-10, .cls-11, .cls-12, .cls-13, .cls-14, .cls-15, .cls-16, .cls-17, .cls-2, .cls-3, .cls-4, .cls-5, .cls-6, .cls-7, .cls-8, .cls-9 {
        stroke-miterlimit: 10;
      }

      .cls-11, .cls-2 {
        fill: #f3d3c3;
      }

      .cls-3 {
        fill: #020100;
      }

      .cls-4 {
        fill: #110801;
      }

      .cls-5 {
        fill: #63868c;
      }

      .cls-6 {
        fill: #510c0c;
      }

      .cls-17, .cls-6 {
        stroke: #9e0808;
      }

      .cls-8 {
        fill: #050200;
      }

      .cls-9 {
        fill: #f9a94b;
        stroke-width: 5px;
        stroke: url(#Summer);
      }

      .cls-10, .cls-11 {
        stroke-width: 0.75px;
      }

      .cls-12 {
        fill: #000102;
      }

      .cls-13, .cls-17 {
        fill: #fff;
      }

      .cls-14 {
        fill: #0d1b28;
      }

      .cls-15 {
        fill: #b69e92;
      }

      .cls-16 {
        fill: #f9f8f7;
        stroke: #b69e92;
      }
    </style>
    <radialGradient id="Summer" cx="189.12" cy="327.97" r="39.7" gradientTransform="matrix(-1, 0, 0, 1, 495.92, 0)" gradientUnits="userSpaceOnUse">
      <stop offset="0" stop-color="#fff"/>
      <stop offset="0.09" stop-color="#ffedd8"/>
      <stop offset="0.21" stop-color="#ffd5a7"/>
      <stop offset="0.33" stop-color="#ffc17d"/>
      <stop offset="0.46" stop-color="#ffb05b"/>
      <stop offset="0.59" stop-color="#ffa340"/>
      <stop offset="0.72" stop-color="#ff9a2d"/>
      <stop offset="0.86" stop-color="#ff9522"/>
      <stop offset="1" stop-color="#ff931e"/>
    </radialGradient>
  </defs>
  <title>hovedpersonen</title>
  <polygon class="cls-1" points="376.42 225.5 331.42 244.5 268.42 244.5 231.42 236.5 231.42 344.5 372.42 344.5 376.42 225.5"/>
  <path class="cls-2" d="M252.42,321.5l-20,18,16,11s22,20,23,11l-10-8s16,13,16,5c0,0,9,6,4-5l-8-7s11,1,8-7c0,0-4-2-16-2Z"/>
  <path class="cls-3" d="M391.06,353.5s5,61-9,84l-65.73,6-8-30s-8,6-11,30l-74.69,3s-17.47-94-3.26-93S256.61,389.5,391.06,353.5Z"/>
  <path class="cls-4" d="M331.42,408.5s-16,15-42,0"/>
  <path class="cls-2" d="M382.88,437s1.95,100.23-20.53,105.5H316.42s6.84-39,0-99.17C316.42,443.33,378,440.17,382.88,437Z"/>
  <path class="cls-2" d="M296.42,442.5l-75,3s9,79,5,91h62S281.42,517.5,296.42,442.5Z"/>
  <path class="cls-5" d="M289.82,534.22s8.14,44.6-10.72,49.43l-84.13.78s-12.61-7.8,1.06-17,26.54-5.36,31.54-33.11Z"/>
  <path class="cls-5" d="M318,536.7s-6.25,44.47,9.39,49.51l69.52,1.68s10.35-7.66-1.05-17-22-5.64-26.42-33.42Z"/>
  <g>
    <g>
      <line class="cls-6" x1="378.92" y1="446" x2="375.88" y2="457.09"/>
      <line class="cls-6" x1="363.69" y1="451.55" x2="366.82" y2="462.62"/>
      <line class="cls-6" x1="329.26" y1="446.01" x2="332.4" y2="457.08"/>
      <line class="cls-6" x1="341.78" y1="451.6" x2="338.11" y2="462.57"/>
      <line class="cls-6" x1="360.7" y1="446" x2="357.66" y2="457.09"/>
      <line class="cls-6" x1="346.48" y1="446.01" x2="349.61" y2="457.08"/>
      <line class="cls-6" x1="326.59" y1="454.77" x2="322.92" y2="465.74"/>
      <line class="cls-6" x1="373.81" y1="457.89" x2="376.94" y2="468.96"/>
      <line class="cls-6" x1="369.81" y1="462.63" x2="366.77" y2="473.71"/>
      <line class="cls-6" x1="358.99" y1="462.69" x2="355.74" y2="466.31"/>
      <line class="cls-6" x1="345.49" y1="459.2" x2="346.97" y2="463.46"/>
      <line class="cls-6" x1="351.9" y1="462.69" x2="348.23" y2="473.66"/>
      <line class="cls-6" x1="343.44" y1="462.64" x2="346.57" y2="473.71"/>
      <line class="cls-6" x1="330.42" y1="462.83" x2="335.29" y2="473.51"/>
      <line class="cls-6" x1="377.91" y1="472.13" x2="374.87" y2="483.22"/>
      <line class="cls-6" x1="371.14" y1="473.77" x2="367.89" y2="477.39"/>
      <line class="cls-6" x1="355.75" y1="471.96" x2="362.56" y2="480.03"/>
    </g>
    <g>
      <line class="cls-6" x1="321.35" y1="507.86" x2="324.73" y2="496.87"/>
      <line class="cls-6" x1="336.75" y1="502.74" x2="333.97" y2="491.59"/>
      <line class="cls-6" x1="370.98" y1="509.25" x2="368.2" y2="498.09"/>
      <line class="cls-6" x1="358.65" y1="503.3" x2="362.66" y2="492.44"/>
      <line class="cls-6" x1="339.56" y1="508.37" x2="342.95" y2="497.38"/>
      <line class="cls-6" x1="353.78" y1="508.76" x2="351" y2="497.61"/>
      <line class="cls-6" x1="373.93" y1="500.56" x2="377.94" y2="489.7"/>
      <line class="cls-6" x1="326.83" y1="496.12" x2="324.05" y2="484.97"/>
      <line class="cls-6" x1="330.98" y1="491.5" x2="334.37" y2="480.5"/>
      <line class="cls-6" x1="341.8" y1="491.74" x2="345.16" y2="488.21"/>
      <line class="cls-6" x1="355.18" y1="495.61" x2="353.84" y2="491.3"/>
      <line class="cls-6" x1="348.88" y1="491.94" x2="352.9" y2="481.08"/>
      <line class="cls-6" x1="357.34" y1="492.23" x2="354.56" y2="481.08"/>
      <line class="cls-6" x1="370.36" y1="492.4" x2="365.82" y2="481.59"/>
      <line class="cls-6" x1="323.18" y1="481.77" x2="326.57" y2="470.78"/>
      <line class="cls-6" x1="330" y1="480.32" x2="333.36" y2="476.79"/>
      <line class="cls-6" x1="345.33" y1="482.56" x2="338.77" y2="474.3"/>
    </g>
    <g>
      <line class="cls-6" x1="318.35" y1="534.24" x2="321.73" y2="523.25"/>
      <line class="cls-6" x1="333.75" y1="529.12" x2="330.97" y2="517.97"/>
      <line class="cls-6" x1="367.98" y1="535.63" x2="365.2" y2="524.47"/>
      <line class="cls-6" x1="355.65" y1="529.69" x2="359.66" y2="518.83"/>
      <line class="cls-6" x1="336.56" y1="534.75" x2="339.95" y2="523.76"/>
      <line class="cls-6" x1="350.78" y1="535.14" x2="348" y2="523.99"/>
      <line class="cls-6" x1="370.93" y1="526.95" x2="374.94" y2="516.09"/>
      <line class="cls-6" x1="323.83" y1="522.51" x2="321.05" y2="511.35"/>
      <line class="cls-6" x1="327.98" y1="517.88" x2="331.37" y2="506.88"/>
      <line class="cls-6" x1="338.8" y1="518.12" x2="342.16" y2="514.6"/>
      <line class="cls-6" x1="352.18" y1="521.99" x2="350.84" y2="517.68"/>
      <line class="cls-6" x1="345.88" y1="518.32" x2="349.9" y2="507.46"/>
      <line class="cls-6" x1="354.34" y1="518.61" x2="351.56" y2="507.46"/>
      <line class="cls-6" x1="367.36" y1="518.78" x2="362.82" y2="507.97"/>
      <line class="cls-6" x1="320.18" y1="508.15" x2="323.57" y2="497.16"/>
      <line class="cls-6" x1="327" y1="506.7" x2="330.36" y2="503.17"/>
      <line class="cls-6" x1="342.33" y1="508.94" x2="335.77" y2="500.68"/>
    </g>
  </g>
  <g>
    <g>
      <line class="cls-6" x1="286.92" y1="446" x2="283.88" y2="456.96"/>
      <line class="cls-6" x1="271.69" y1="451.49" x2="274.82" y2="462.43"/>
      <line class="cls-6" x1="237.26" y1="446.01" x2="240.4" y2="456.95"/>
      <line class="cls-6" x1="249.78" y1="451.54" x2="246.11" y2="462.38"/>
      <line class="cls-6" x1="268.7" y1="446" x2="265.66" y2="456.96"/>
      <line class="cls-6" x1="254.48" y1="446.01" x2="257.61" y2="456.95"/>
      <line class="cls-6" x1="234.59" y1="454.67" x2="230.92" y2="465.52"/>
      <line class="cls-6" x1="281.81" y1="457.75" x2="284.94" y2="468.7"/>
      <line class="cls-6" x1="277.81" y1="462.44" x2="274.77" y2="473.4"/>
      <line class="cls-6" x1="266.99" y1="462.5" x2="263.74" y2="466.08"/>
      <line class="cls-6" x1="253.49" y1="459.05" x2="254.97" y2="463.27"/>
      <line class="cls-6" x1="259.9" y1="462.5" x2="256.23" y2="473.35"/>
      <line class="cls-6" x1="251.44" y1="462.45" x2="254.57" y2="473.4"/>
      <line class="cls-6" x1="238.42" y1="462.65" x2="243.29" y2="473.2"/>
      <line class="cls-6" x1="285.91" y1="471.84" x2="282.87" y2="482.8"/>
      <line class="cls-6" x1="279.14" y1="473.46" x2="275.89" y2="477.04"/>
      <line class="cls-6" x1="263.75" y1="471.67" x2="270.56" y2="479.65"/>
    </g>
    <g>
      <line class="cls-6" x1="229.35" y1="507.17" x2="232.73" y2="496.3"/>
      <line class="cls-6" x1="244.75" y1="502.11" x2="241.97" y2="491.08"/>
      <line class="cls-6" x1="278.98" y1="508.54" x2="276.2" y2="497.51"/>
      <line class="cls-6" x1="266.65" y1="502.66" x2="270.66" y2="491.93"/>
      <line class="cls-6" x1="247.56" y1="507.68" x2="250.95" y2="496.8"/>
      <line class="cls-6" x1="261.78" y1="508.06" x2="259" y2="497.04"/>
      <line class="cls-6" x1="281.93" y1="499.96" x2="285.94" y2="489.22"/>
      <line class="cls-6" x1="234.83" y1="495.57" x2="232.05" y2="484.54"/>
      <line class="cls-6" x1="238.98" y1="490.99" x2="242.37" y2="480.12"/>
      <line class="cls-6" x1="249.8" y1="491.23" x2="253.16" y2="487.74"/>
      <line class="cls-6" x1="263.18" y1="495.06" x2="261.84" y2="490.8"/>
      <line class="cls-6" x1="256.88" y1="491.43" x2="260.9" y2="480.69"/>
      <line class="cls-6" x1="265.34" y1="491.71" x2="262.56" y2="480.68"/>
      <line class="cls-6" x1="278.36" y1="491.88" x2="273.82" y2="481.19"/>
      <line class="cls-6" x1="231.18" y1="481.37" x2="234.57" y2="470.5"/>
      <line class="cls-6" x1="238" y1="479.94" x2="241.36" y2="476.45"/>
      <line class="cls-6" x1="253.33" y1="482.16" x2="246.77" y2="473.99"/>
    </g>
    <g>
      <line class="cls-6" x1="226.35" y1="533.26" x2="229.73" y2="522.39"/>
      <line class="cls-6" x1="241.75" y1="528.19" x2="238.97" y2="517.17"/>
      <line class="cls-6" x1="275.98" y1="534.63" x2="273.2" y2="523.6"/>
      <line class="cls-6" x1="263.65" y1="528.75" x2="267.66" y2="518.01"/>
      <line class="cls-6" x1="244.56" y1="533.76" x2="247.95" y2="522.89"/>
      <line class="cls-6" x1="258.78" y1="534.15" x2="256" y2="523.12"/>
      <line class="cls-6" x1="278.93" y1="526.04" x2="282.94" y2="515.3"/>
      <line class="cls-6" x1="231.83" y1="521.65" x2="229.05" y2="510.62"/>
      <line class="cls-6" x1="235.98" y1="517.08" x2="239.37" y2="506.2"/>
      <line class="cls-6" x1="246.8" y1="517.32" x2="250.16" y2="513.83"/>
      <line class="cls-6" x1="260.18" y1="521.14" x2="258.84" y2="516.88"/>
      <line class="cls-6" x1="253.88" y1="517.51" x2="257.9" y2="506.77"/>
      <line class="cls-6" x1="262.34" y1="517.8" x2="259.56" y2="506.77"/>
      <line class="cls-6" x1="275.36" y1="517.97" x2="270.82" y2="507.28"/>
      <line class="cls-6" x1="228.18" y1="507.46" x2="231.57" y2="496.59"/>
      <line class="cls-6" x1="235" y1="506.02" x2="238.36" y2="502.54"/>
      <line class="cls-6" x1="250.33" y1="508.24" x2="243.77" y2="500.07"/>
    </g>
  </g>
  <path class="cls-1" d="M330.42,244.5c44.25-15,65.44-28,74.64-38.46,15.33-17.38-2.64-27.54-2.64-27.54,10-25-19-32-19-32,3,25,0,37,0,37l-87,50-84-27s1-6,4-40c0,0-27-1-18,14,0,0-71,40,71,64"/>
  <path class="cls-1" d="M392.42,317.5s9,16,0,41c0,0-112,26-174-5,0,0-7.85-5.36-6.43-26.18"/>
  <path class="cls-1" d="M405.42,313.5s16-118-12-99-27,12-22,77c0,0-9-4-31,28,0,0-11-10,0,25,0,0,28.7-4.1,48-13.53C397.67,326.43,404.77,320.65,405.42,313.5Z"/>
  <path class="cls-3" d="M340.42,233.5s-7,24,0,45,0,10,0,10"/>
  <path class="cls-7" d="M243.42,233.5s5,48,3,58"/>
  <circle class="cls-8" cx="340.92" cy="233" r="3.5"/>
  <circle class="cls-7" cx="243.92" cy="233" r="3.5"/>
  <path class="cls-9" d="M339,297.5l-63.24,4s-32.14,43,9.33,57c0,0,67.64,1.37,63.88-16.32C349,342.18,353.56,322.5,339,297.5Z"/>
  <path class="cls-10" d="M306.92,364.91a70.05,70.05,0,0,1-7.5-6.41A51,51,0,0,1,306.92,364.91Z"/>
  <path class="cls-10" d="M293.42,361.5a70.77,70.77,0,0,1,8.25,7.3A56.8,56.8,0,0,1,293.42,361.5Z"/>
  <path class="cls-11" d="M245,313.16l19.38,25.34s18,0,17,5-9,4-9,4,12,11,8,11c-1.41,0-3.45-1.13-5.5-2.59a51,51,0,0,0-7.5-6.41,70.05,70.05,0,0,0,7.5,6.41c2,2.18,3.12,4.38,1.5,5.59s-4.14.07-6.75-1.7a70.77,70.77,0,0,0-8.25-7.3,56.8,56.8,0,0,0,8.25,7.3c2.48,2.72,3.81,5.26.75,5.7-7,1-22-14-22-14l-30.69-20.74,24.51-21.26Z"/>
  <path class="cls-10" d="M242.24,309.5l-2.45-3.21-9.9-12.94-4.47-5.85S237,315.16,237.7,239.33c0,0-37.74-11.54-44.51-18.19,0,0-19.77,81.36,18.23,105.36l6.3,4.26"/>
  <g>
    <g>
      <line class="cls-6" x1="248.73" y1="346" x2="245.93" y2="342.52"/>
      <line class="cls-6" x1="251.52" y1="342.27" x2="246.84" y2="339.68"/>
      <line class="cls-6" x1="263.92" y1="338.81" x2="259.24" y2="336.22"/>
      <line class="cls-6" x1="258.21" y1="339.08" x2="255.64" y2="335.54"/>
      <line class="cls-6" x1="254.31" y1="343.36" x2="251.51" y2="339.88"/>
      <line class="cls-6" x1="258.65" y1="341.3" x2="253.97" y2="338.71"/>
      <line class="cls-6" x1="261.79" y1="336.01" x2="259.22" y2="332.47"/>
      <line class="cls-6" x1="246.29" y1="342" x2="241.61" y2="339.41"/>
      <line class="cls-6" x1="245.92" y1="340.11" x2="243.12" y2="336.63"/>
      <line class="cls-6" x1="249.21" y1="338.53" x2="248.99" y2="337.07"/>
      <line class="cls-6" x1="254.52" y1="337.54" x2="252.63" y2="336.58"/>
      <line class="cls-6" x1="251.38" y1="337.51" x2="248.82" y2="333.96"/>
      <line class="cls-6" x1="253.99" y1="336.29" x2="249.31" y2="333.71"/>
      <line class="cls-6" x1="257.91" y1="334.35" x2="252.82" y2="332.13"/>
      <line class="cls-6" x1="240.25" y1="338.68" x2="237.45" y2="335.2"/>
      <line class="cls-6" x1="241.77" y1="337.25" x2="241.54" y2="335.78"/>
      <line class="cls-6" x1="247.09" y1="335.52" x2="242.28" y2="334.29"/>
    </g>
    <g>
      <line class="cls-6" x1="245.53" y1="320.68" x2="248.2" y2="324.19"/>
      <line class="cls-6" x1="242.54" y1="324.31" x2="247.15" y2="326.97"/>
      <line class="cls-6" x1="229.88" y1="327.49" x2="234.48" y2="330.14"/>
      <line class="cls-6" x1="235.65" y1="327.33" x2="238.08" y2="330.89"/>
      <line class="cls-6" x1="239.79" y1="323.18" x2="242.45" y2="326.68"/>
      <line class="cls-6" x1="235.31" y1="325.13" x2="239.91" y2="327.79"/>
      <line class="cls-6" x1="231.9" y1="330.3" x2="234.32" y2="333.86"/>
      <line class="cls-6" x1="247.8" y1="324.69" x2="252.41" y2="327.35"/>
      <line class="cls-6" x1="248.09" y1="326.57" x2="250.76" y2="330.08"/>
      <line class="cls-6" x1="244.7" y1="328.07" x2="244.86" y2="329.52"/>
      <line class="cls-6" x1="239.3" y1="328.94" x2="241.16" y2="329.93"/>
      <line class="cls-6" x1="242.46" y1="329.04" x2="244.89" y2="332.6"/>
      <line class="cls-6" x1="239.78" y1="330.18" x2="244.38" y2="332.84"/>
      <line class="cls-6" x1="235.74" y1="332.02" x2="240.76" y2="334.33"/>
      <line class="cls-6" x1="253.75" y1="328.11" x2="256.41" y2="331.62"/>
      <line class="cls-6" x1="252.15" y1="329.49" x2="252.31" y2="330.95"/>
      <line class="cls-6" x1="246.71" y1="331.1" x2="251.49" y2="332.42"/>
    </g>
    <g>
      <line class="cls-6" x1="237.57" y1="313" x2="240.24" y2="316.51"/>
      <line class="cls-6" x1="234.58" y1="316.64" x2="239.19" y2="319.3"/>
      <line class="cls-6" x1="221.92" y1="319.81" x2="226.52" y2="322.47"/>
      <line class="cls-6" x1="227.69" y1="319.65" x2="230.12" y2="323.22"/>
      <line class="cls-6" x1="231.83" y1="315.5" x2="234.49" y2="319.01"/>
      <line class="cls-6" x1="227.35" y1="317.45" x2="231.95" y2="320.11"/>
      <line class="cls-6" x1="223.94" y1="322.62" x2="226.37" y2="326.18"/>
      <line class="cls-6" x1="239.85" y1="317.02" x2="244.45" y2="319.68"/>
      <line class="cls-6" x1="240.13" y1="318.89" x2="242.8" y2="322.4"/>
      <line class="cls-6" x1="236.74" y1="320.39" x2="236.9" y2="321.84"/>
      <line class="cls-6" x1="231.34" y1="321.26" x2="233.2" y2="322.25"/>
      <line class="cls-6" x1="234.51" y1="321.36" x2="236.93" y2="324.92"/>
      <line class="cls-6" x1="231.82" y1="322.5" x2="236.43" y2="325.16"/>
      <line class="cls-6" x1="227.78" y1="324.34" x2="232.81" y2="326.65"/>
      <line class="cls-6" x1="245.79" y1="320.43" x2="248.45" y2="323.94"/>
      <line class="cls-6" x1="244.19" y1="321.82" x2="244.35" y2="323.27"/>
      <line class="cls-6" x1="238.75" y1="323.42" x2="243.53" y2="324.74"/>
    </g>
  </g>
  <polyline class="cls-4" points="218.44 331 207.92 324.96 236.2 301 244.92 310.86"/>
  <path class="cls-2" d="M386.42,183.5s3-131-102-100c0,0-67-3-73,122l88,28Z"/>
  <path class="cls-12" d="M308.28,128.5l7,11s2-6,25-11S339.28,107.5,308.28,128.5Z"/>
  <path class="cls-13" d="M362.56,153.18c-8.34-6.66-28.52-20-43.95-7.69a7.57,7.57,0,0,0-2.74,4.16c-.89,3.84.87,10.47,19.34,15.79l.38.12c2,.7,21.42,7.23,28.39-1.7A7.7,7.7,0,0,0,362.56,153.18Z"/>
  <ellipse class="cls-14" cx="341.4" cy="154.61" rx="12.05" ry="7" transform="translate(54.62 395.89) rotate(-64.44)"/>
  <polyline class="cls-15" points="295.39 142.5 296.16 176 306.92 176"/>
  <path class="cls-16" d="M335.42,201.5s-10-20-46-14c0,0-42-14-44,14,0,0-3.11,9.33,10.78,11.31,6.34.91,12.52-1.7,17-6.31,3.42-3.55,13-5.25,39.25,7C312.42,213.5,339.42,216.5,335.42,201.5Z"/>
  <path class="cls-15" d="M334.42,193.5s15,11.74,6,14.37"/>
  <path class="cls-15" d="M242.32,197.64s-4.12,8.2,4.2,20.15"/>
  <line class="cls-13" x1="329.92" y1="195" x2="328.33" y2="212.43"/>
  <line class="cls-13" x1="325.05" y1="191.69" x2="323.7" y2="214"/>
  <line class="cls-13" x1="319.05" y1="188.69" x2="317.7" y2="214"/>
  <line class="cls-13" x1="313.05" y1="187.69" x2="311.7" y2="213"/>
  <line class="cls-13" x1="308.05" y1="186.69" x2="306.7" y2="210"/>
  <line class="cls-13" x1="303.05" y1="186.69" x2="301.7" y2="209"/>
  <line class="cls-13" x1="298.05" y1="186.69" x2="296.7" y2="207"/>
  <line class="cls-13" x1="293.05" y1="187" x2="291.7" y2="204"/>
  <line class="cls-13" x1="287.05" y1="186.69" x2="285.7" y2="204"/>
  <line class="cls-13" x1="282.05" y1="187" x2="280.7" y2="204"/>
  <line class="cls-13" x1="278.05" y1="184.69" x2="276.7" y2="204"/>
  <line class="cls-13" x1="274.05" y1="184.69" x2="272.7" y2="206"/>
  <line class="cls-13" x1="269.05" y1="183" x2="267.7" y2="211"/>
  <line class="cls-13" x1="264.05" y1="184" x2="262.7" y2="212"/>
  <line class="cls-13" x1="259.05" y1="185" x2="257.7" y2="213"/>
  <line class="cls-13" x1="253.05" y1="188" x2="251.7" y2="212"/>
  <path class="cls-13" d="M235.7,150.79c9.83-7.09,28.08-16.8,42-4.29,0,0,10,11-18,19,0,0-10.91,4-19.79,2.79C231.29,167.12,228.65,155.87,235.7,150.79Z"/>
  <ellipse class="cls-14" cx="253.7" cy="154.61" rx="7" ry="12.05" transform="translate(-41.88 124.59) rotate(-25.56)"/>
  <path class="cls-12" d="M287.42,124.5l-7,11s-2-6-25-11S256.42,103.5,287.42,124.5Z"/>
  <path class="cls-13" d="M327.55,89.27s1.12,14.83-10.21,22.09"/>
  <path class="cls-5" d="M380.92,141.5s-107.25-43-156-9c0,0,23.4-60,91.65-54C316.57,78.5,370.2,68.5,380.92,141.5Z"/>
  <polygon class="cls-2" points="333.42 107.5 296.42 104.5 296.42 112.5 333.42 116.5 333.42 107.5"/>
  <path class="cls-6" d="M321.42,88.5s5,14-4,24"/>
  <path class="cls-6" d="M317.42,95.5s-7,1-6,14"/>
  <path class="cls-17" d="M307.42,98.5s1,8-3,11"/>
  <path class="cls-17" d="M302.42,97.5a10.2,10.2,0,0,1-1,12"/>
  <path class="cls-6" d="M304.42,89.5s-7,13-5,21"/>
  <path class="cls-6" d="M346.42,93.5s-11,5-16,21"/>
  <path class="cls-6" d="M335.42,93.5s0,10-11,17"/>
</svg>
