<svg xmlns="http://www.w3.org/2000/svg" viewBox="0 0 1050 500"><defs><style>.cls-1,.cls-11,.cls-13,.cls-15,.cls-16,.cls-17,.cls-2,.cls-3,.cls-4,.cls-5,.cls-7,.cls-9{stroke:#000;stroke-miterlimit:10;}.cls-1{opacity:0.3;}.cls-2{fill:#cbcbcb;}.cls-11,.cls-13,.cls-2,.cls-3,.cls-4,.cls-5,.cls-7,.cls-9{stroke-width:2px;}.cls-4{fill:#ffb400;}.cls-5{fill:#ffcb00;}.cls-6,.cls-7{fill:red;}.cls-8,.cls-9{fill:#6f1a66;}.cls-10,.cls-11{fill:#39b44a;}.cls-12,.cls-13{fill:#f1f1f1;}.cls-14{fill:#383634;}.cls-15{fill:#fff;}.cls-17{fill:none;}.cls-18{fill:#444241;}.cls-19{fill:#f2574c;}.cls-20{fill:#ea3d39;}.cls-21{fill:#4c4b4a;}</style></defs><title>kat_walkcycle_done</title><g id="Layer_1" data-name="Layer 1"><path class="cls-1" d="M303.12,320.81c0,19.51-57.08,35.32-127.5,35.32s-127.5-15.81-127.5-35.32S195.2,263,265.62,263,303.12,301.31,303.12,320.81Z"/><polyline class="cls-2" points="234.41 316.89 252.65 329.44 262 321.32 250.26 311.13"/><path class="cls-2" d="M90.16,309.21l21.36,21.7s-.56-11.07,6.09-12S90.16,309.21,90.16,309.21Z"/><ellipse class="cls-3" cx="77.09" cy="297.71" rx="11.6" ry="11.44"/><path class="cls-2" d="M68.59,284.43C68.59,306.84,115,325,172.22,325s103.63-18.17,103.63-40.58-46.39-40.58-103.63-40.58S68.59,262,68.59,284.43Z"/><path class="cls-4" d="M178,248.34s20.77-5.52,30.59-1.53a194.92,194.92,0,0,1,20.94,10.48s34.18-1.59,39.25,17.36-15,30.53-21.59,29.48c0,0-19.3,16.67-48.09,12.11,0,0-27.15,8.24-47.27-.18,0,0-41.06,7-65.43-14.38s-14.24-32.06,0-41.47,29.28-3.84,29.28-3.84,38.11-17,52.28-14C180,245,178,248.34,178,248.34Z"/><path class="cls-5" d="M177.46,250.65s28.92-3.34,49.06,9.46c0,0,19.34-1.71,20.65,9.93,0,0,10,1.19,7.2,9.92,0,0-16.2,3.2-21.1,8.69s-2.49,7.24-17.11,7.06-25.58-3.66-30.66,0-10.14,6-16.52,4-17.86-8.11-24.72-7.56-28.19,4.22-34.12-1.74-15.75-17.61-25.4-17.58c0,0,2.29-13.62,29.12-14.07C113.86,258.8,161.4,238.58,177.46,250.65Z"/><path class="cls-6" d="M120.06,276c0,3.87,4.57,7,10.22,7s10.21-3.13,10.21-7-4.57-7-10.21-7S120.06,272.12,120.06,276Z"/><path class="cls-7" d="M146.18,260.21c0,2.47,4.87,4.48,10.88,4.48s10.88-2,10.88-4.48-4.87-4.49-10.88-4.49S146.18,257.73,146.18,260.21Z"/><path class="cls-6" d="M162.46,279.76c1,4.05,6.2,6.07,11.56,4.51s8.86-6.12,7.83-10.17-6.21-6.08-11.56-4.52S161.43,275.7,162.46,279.76Z"/><path class="cls-6" d="M185.5,286.16c0,3.23,4.49,5.85,10,5.85s10-2.62,10-5.85-4.49-5.85-10-5.85S185.5,282.93,185.5,286.16Z"/><path class="cls-7" d="M195.52,261.34c0,3.11,3.9,5.63,8.72,5.63s8.72-2.52,8.72-5.63-3.91-5.62-8.72-5.62S195.52,258.24,195.52,261.34Z"/><path class="cls-6" d="M213,274.65c0,3.13,5.37,5.66,12,5.66s12-2.53,12-5.66S231.58,269,225,269,213,271.52,213,274.65Z"/><path class="cls-8" d="M105.24,271.48a4.92,4.92,0,1,0,4.9-4.51A4.72,4.72,0,0,0,105.24,271.48Z"/><path class="cls-9" d="M132.42,256.37c0,2.12,2.65,3.84,5.92,3.84s5.92-1.72,5.92-3.84-2.65-3.83-5.92-3.83S132.42,254.25,132.42,256.37Z"/><ellipse class="cls-8" cx="150.66" cy="284.44" rx="6.4" ry="4.12"/><path class="cls-9" d="M178.82,255.54c0,2.58,3.74,4.67,8.35,4.67s8.35-2.09,8.35-4.67-3.74-4.67-8.35-4.67S178.82,253,178.82,255.54Z"/><path class="cls-8" d="M234,267.53c0,2.64,2.74,4.79,6.12,4.79s6.11-2.15,6.11-4.79-2.73-4.79-6.11-4.79S234,264.88,234,267.53Z"/><path class="cls-10" d="M213,284.44a6.86,6.86,0,0,0-.47-1.53,12.21,12.21,0,0,0-.81-1.63,13.81,13.81,0,0,0-1.39-1.91,15.12,15.12,0,0,0-2-1.91,14.4,14.4,0,0,0-2.65-1.62,15.91,15.91,0,0,0-3.11-1.1c-.55-.1-1.1-.22-1.66-.3s-1.12-.08-1.68-.12l-1.42-.07-.75,0-.52-.08a7.27,7.27,0,0,1-1.08-.2,6.82,6.82,0,0,1-1.08-.33l-.52-.19-.48-.26a5.42,5.42,0,0,1-.93-.55,9.69,9.69,0,0,1-1.6-1.38c-.24-.25-.44-.52-.67-.77l-.57-.77c-.34-.51-.65-1-.88-1.38s-.42-.74-.53-1-.18-.36-.18-.36a6.88,6.88,0,0,0-.24,1.58,11.24,11.24,0,0,0,.06,1.87c.05.37.13.75.21,1.16s.23.82.38,1.26a10,10,0,0,0,1.49,2.65,7.39,7.39,0,0,0,1.14,1.24c.21.2.43.39.66.58l.73.48a6.9,6.9,0,0,0,.77.47l.82.36c.28.11.54.24.84.34l.93.22.94.21.76.07,1.6.12c.44,0,.89,0,1.33.05s.87.09,1.31.13.85.15,1.27.2.83.2,1.24.27c.81.21,1.6.44,2.34.71s1.44.57,2.09.88,1.24.63,1.77.93,1,.58,1.37.84.69.46.89.61Z"/><path class="cls-11" d="M182,255.54a1.3,1.3,0,0,0,0-.19,2.62,2.62,0,0,0,0-.55,2.82,2.82,0,0,0-.13-.8,3.74,3.74,0,0,0-.39-.95,4.69,4.69,0,0,0-.71-.93,5.07,5.07,0,0,0-1-.76,4.3,4.3,0,0,0-1.17-.5,4.61,4.61,0,0,0-1.25-.21,4.4,4.4,0,0,0-1.21.09,3.67,3.67,0,0,0-1.11.33,5.17,5.17,0,0,0-1.72,1.17,3.43,3.43,0,0,0-.58.7,5.13,5.13,0,0,0-.39.62,3.07,3.07,0,0,0-.22.47l-.08.17.16.1a4.06,4.06,0,0,0,.42.26,10.81,10.81,0,0,0,1.35.64,5.84,5.84,0,0,0,.8.28c.27.06.54.17.81.22l.8.15.77.06H178c.25,0,.46,0,.7-.07s.46-.08.69-.11l.69-.11a5.83,5.83,0,0,1,.7-.09c.22,0,.44,0,.63,0h.46Z"/><path class="cls-10" d="M146.18,278.56a4.55,4.55,0,0,0,1.1-.64,7.54,7.54,0,0,0,1.11-1.06,6.12,6.12,0,0,0,1.06-1.9,5.75,5.75,0,0,0,.21-3,5.6,5.6,0,0,0-.56-1.61,5.72,5.72,0,0,0-.92-1.41,7.46,7.46,0,0,0-1.13-1.12,7.28,7.28,0,0,0-1.25-.88l-.32-.19-.16-.1,0,0,0,0h0l.07,0-.07,0c-.17-.11-.35-.21-.54-.31a8.77,8.77,0,0,1-1-.58,15.39,15.39,0,0,1-1.67-1.14,12.84,12.84,0,0,1-1.43-1.26,9.15,9.15,0,0,1-1.09-1.36,8,8,0,0,1-.71-1.48,7.81,7.81,0,0,1-.39-1.51,9.63,9.63,0,0,1-.11-1.33,9.1,9.1,0,0,1,0-.94v-.35l-.25.21a4.58,4.58,0,0,0-.68.7,6.26,6.26,0,0,0-.83,1.33,6.75,6.75,0,0,0-.59,2.07,8.16,8.16,0,0,0,.09,2.68,9.46,9.46,0,0,0,1.07,2.78c.13.22.25.45.4.66l.46.6a7.83,7.83,0,0,0,1,1.13,12.93,12.93,0,0,0,2.36,1.83,11.17,11.17,0,0,0,1.19.64l1.09.52a9.88,9.88,0,0,1,1.54.83,4.39,4.39,0,0,1,.55.43,2.57,2.57,0,0,1,.42.46,2.53,2.53,0,0,1,.48,1.23,5.87,5.87,0,0,1,0,1.51,13.11,13.11,0,0,1-.21,1.34c-.09.38-.15.7-.21.91Z"/><path class="cls-12" d="M115.29,280c2.15,0,7.55,1.12,5.13,4.63-.75,1.08-2.45,0-1.7-1.06.42-.61.36-.61-.28-.95a5,5,0,0,0-2-.46,9.23,9.23,0,0,0,1.66,4.3c1.16.11,1.09,2-.11,2.08a13.07,13.07,0,0,1-1.77,0c-1,0-1.94.05-2.92.11s-1.23-1.47-.45-1.95a1.3,1.3,0,0,1,.16-.31,7,7,0,0,0,1.14-3.77l0-.41c-1.36.16-3.12.46-3,.84.5,1.23-1.2,2.31-1.7,1.07C108,280.55,113.22,280,115.29,280Z"/><path class="cls-12" d="M124,261.16a.68.68,0,0,1,.26-.18,6.73,6.73,0,0,1,6.1-.76c1.2.42.69,2.45-.52,2a5.45,5.45,0,0,0-2.93-.21,35.1,35.1,0,0,1,3.33,2.1c.4-.35.81-.69,1.25-1,.92-.67,2,.87,1.19,1.65-.53.49-1,1-1.56,1.5a1.14,1.14,0,0,1-.53.28l-1.1,1c-1,.88-2.35-.6-1.39-1.49l.59-.54a29.29,29.29,0,0,0-3.95-2.34,4,4,0,0,0-1,2.75,1,1,0,1,1-2,0A6.06,6.06,0,0,1,124,261.16Z"/><path class="cls-12" d="M152.87,266.35c.15-1.32,2.12-1.34,2,0a3.05,3.05,0,0,0,1,2.87c.24-.44.47-.87.72-1.27a2.29,2.29,0,0,1,.43-1.89,1.94,1.94,0,0,1,.59-.44l.42-.18c-.06,0,0,0,.07-.09.62-.77,1.54-.13,1.63.66a1,1,0,0,1,.62,1v.35a1,1,0,0,1-.72,1c-.22.05-.43.09-.65.12h-.14a8.16,8.16,0,0,0-.5.66.79.79,0,0,1-.33.25,5.12,5.12,0,0,0-.3.57,4.12,4.12,0,0,0,3.09-1.08,1,1,0,0,1,1.39,1.48C158.78,273.49,152.19,272,152.87,266.35Z"/><path class="cls-13" d="M172.41,259.83a7.13,7.13,0,0,1,7.83-.21,4,4,0,0,1,2.12,2.74,1,1,0,1,1-1.89.56,2.59,2.59,0,0,0-.95-1.31c-.66-.22-1.47.31-2,1.13,0,.47,0,.95,0,1.43.52,0,1,.09,1.56.17,1.25.21.72,2.23-.52,2-.5-.08-1-.12-1.53-.15a1,1,0,0,1-1,0,15.22,15.22,0,0,0-1.91.16c-1.24.19-1.77-1.83-.52-2,.53-.08,1.06-.13,1.59-.17a.75.75,0,0,1,0-.22c.07-.92.12-1.83.26-2.73a3.83,3.83,0,0,0-2.2.46,2.45,2.45,0,0,0-.76,1.57,1,1,0,1,1-2,0A3.63,3.63,0,0,1,172.41,259.83Z"/><path class="cls-13" d="M220.06,263c.24,1.48,2.52,1.42,4.33.53a16.6,16.6,0,0,1-1.83-2,.93.93,0,0,1-1.18-.43,1.11,1.11,0,0,1,.35-1.44,4.84,4.84,0,0,0,1.6-1.32.93.93,0,0,1,1.39,0,1.11,1.11,0,0,1,0,1.48,7,7,0,0,1-.52.57,12.26,12.26,0,0,0,1.39,1.49,7.57,7.57,0,0,1,.63-.49,1.52,1.52,0,0,0,.35-.28,1.67,1.67,0,0,0,0-.5c0-.12-.05-.27-.07-.46-.18-1.32,1.47-1.88,1.89-.56,1.81,5.74-9.36,9.55-10.24,4C218,262.2,219.85,261.63,220.06,263Z"/><path class="cls-12" d="M214.82,285.49a17.86,17.86,0,0,0,3.23,3.33l.42-.94a17.66,17.66,0,0,1,0-2.52,1,1,0,0,1,1.76-.66l.08-.09a1,1,0,0,1,1.64,1c-.44,1.18-.93,2.34-1.39,3.51l0,.06.06.85a2,2,0,0,0,2.19-1.2c.63-1.17,2.33-.11,1.7,1.07-2.79,5.19-8.73.23-11-2.95C212.67,285.92,214.05,284.42,214.82,285.49Z"/><ellipse class="cls-3" cx="117.14" cy="333.13" rx="11.6" ry="11.44"/><ellipse class="cls-3" cx="262" cy="328.7" rx="11.6" ry="11.44"/><path class="cls-14" d="M270,261.13c.31,13.43-1.25,11.87-2.19,23.43-11.25,5-33.44,5.94-36.25,5.63-10.94-5.94-37.81.31-42.19-1.56-1.25-20,51.88-3.75,61.88-10.63,2.5-5.62,2.5-7.5,1.25-14.37C256.4,258.94,265.28,257.45,270,261.13Z"/><path class="cls-14" d="M270,266.75c0-36.25,3.12-43.12-8.13-57.5-18.49-14.4-35.62-15-60.62-8.12-4.38-21.88-5.42-60.31-8.13-60.63-1.65-.19-5,8.75-11.87,26.25-18.75-1.25-26.88-2.5-45.63-1.25-7.5-13.75-10.34-27.66-13.12-27.5-3.7.22-4.75,30.69-5,38.75-1.74,54.18-2.54,81.38.62,86.88C153.75,268,200,270.5,270,266.75Z"/><ellipse class="cls-15" cx="142.5" cy="175.5" rx="12.5" ry="6.25"/><ellipse class="cls-15" cx="176.25" cy="176.75" rx="12.5" ry="6.25"/><circle class="cls-16" cx="142.5" cy="175.5" r="5.62"/><circle class="cls-16" cx="175.62" cy="176.75" r="5.62"/><path class="cls-17" d="M131.87,243.63c2.27.9,27.5,6.25,29.38,18.75.68,4.58-16.88,3.8-38.13,1.87"/><path class="cls-17" d="M197.5,251.75c-23.75-3.75-36.57,9.8-36.25,12.5q.44,3.74,32.5,3.75"/><path class="cls-17" d="M220,239.25c0,9.38,0,14.38,8.12,21.25-16.25-3.12-26.26,7-26.25,7.5,0,.31,9,.41,36.88,0"/><path class="cls-17" d="M148.12,209.25c.42,2.71-1.25,5.63,1.25,8.13"/><path class="cls-17" d="M169.37,214.25v6.88"/><path class="cls-17" d="M156.25,211.75c.41,1,.83,2.08,1.25,3.13"/><path class="cls-17" d="M160,224.25c.2,1.88-.63,4.38.62,5.63"/><path class="cls-17" d="M150,229.25l-.63,3.75"/><ellipse class="cls-18" cx="158.75" cy="194.56" rx="15.31" ry="8.75"/><path class="cls-17" d="M159.06,193.31c.05.11-.31,3.44,0,4.38-1.21,1.81-4.32,2.4-6.88.62"/><path class="cls-17" d="M159.06,193.31c-.05.11.32,3.44,0,4.38,1.21,1.81,4.32,2.4,6.88.62"/><path class="cls-19" d="M156.19,189.57c2-1.5,3.32-1.83,5.81-.17a3.48,3.48,0,0,1,.33,4,19.09,19.09,0,0,1-6.14,0A3.43,3.43,0,0,1,156.19,189.57Z"/><path class="cls-20" d="M158.52,193a.76.76,0,1,0-1.52,0c0,.41.34.5.76.5S158.52,193.41,158.52,193Z"/><path class="cls-20" d="M161.29,193a.75.75,0,0,0-.75-.76.76.76,0,0,0-.76.76c0,.41.34.5.76.5S161.29,193.41,161.29,193Z"/><path class="cls-21" d="M128.22,166.86l-5,.37a3.13,3.13,0,0,1-3.35-2.88l1.5-5.13c.49-1.91,1.18-3.22,2.89-3.35l1.25-.09c1.71-.12,2.58,1.07,3.34,2.89l2.24,4.85A3.12,3.12,0,0,1,128.22,166.86Z"/><path class="cls-21" d="M191.91,168.63l-4.94-.77a3.14,3.14,0,0,1-2.61-3.57l2.63-4.65c.91-1.76,1.87-2.87,3.57-2.61l1.24.2c1.69.26,2.27,1.62,2.6,3.57l1.08,5.23A3.13,3.13,0,0,1,191.91,168.63Z"/><path class="cls-6" d="M104.68,266.74c.65,2.73,4.55,4,8.72,2.89s7-4.27,6.38-7-4.55-4-8.72-2.88S104,264,104.68,266.74Z"/><path class="cls-12" d="M243.64,277.24a8.66,8.66,0,0,0,3-1.65,8.54,8.54,0,0,0-2.65.7c-.9.38-1.7-1.11-1-1.76a6,6,0,0,1,9.82,2.48.87.87,0,0,1-.05.81.94.94,0,0,1-.48.64,1.18,1.18,0,0,1-1.55-.16.93.93,0,0,1-.87-.73,2.79,2.79,0,0,0-.85-1.38c-.2.2-.41.4-.62.58-.47,1-1.05,1.89-1.48,2.89a1,1,0,0,1-1.11.48,6.88,6.88,0,0,1-2.44-1A1.09,1.09,0,0,1,243.64,277.24Z"/></g><g id="Layer_4" data-name="Layer 4"><path class="cls-1" d="M653.5,321.19c0,19.5-57.09,35.31-127.5,35.31s-127.5-15.81-127.5-35.31S545.58,263.38,616,263.38,653.5,301.69,653.5,321.19Z"/><polyline class="cls-2" points="584.79 317.27 603.02 329.81 612.38 321.7 600.63 311.51"/><path class="cls-2" d="M440.53,309.59l21.37,21.7s-.56-11.07,6.08-12S440.53,309.59,440.53,309.59Z"/><ellipse class="cls-3" cx="427.46" cy="298.09" rx="11.6" ry="11.44"/><path class="cls-2" d="M419,284.8c0,22.42,46.4,40.59,103.63,40.59s103.63-18.17,103.63-40.59-46.4-40.58-103.63-40.58S419,262.39,419,284.8Z"/><path class="cls-4" d="M528.36,248.71s20.77-5.51,30.58-1.53a195.9,195.9,0,0,1,20.94,10.48s34.19-1.59,39.26,17.37-15,30.53-21.59,29.48c0,0-19.3,16.66-48.09,12.1,0,0-27.16,8.25-47.28-.17,0,0-41.05,7-65.43-14.39s-14.23-32.06,0-41.47S466,256.75,466,256.75s38.12-17,52.29-14C530.42,245.35,528.36,248.71,528.36,248.71Z"/><path class="cls-5" d="M527.84,251s28.92-3.35,49,9.45c0,0,19.35-1.7,20.66,9.93,0,0,10,1.2,7.2,9.93,0,0-16.2,3.2-21.11,8.68s-2.48,7.24-17.1,7.06-25.59-3.66-30.66,0-10.14,5.95-16.52,4-17.87-8.1-24.72-7.56-28.19,4.23-34.12-1.74-15.75-17.6-25.4-17.57c0,0,2.29-13.62,29.11-14.08C464.23,259.17,511.78,239,527.84,251Z"/><path class="cls-6" d="M470.44,276.36c0,3.87,4.57,7,10.21,7s10.22-3.13,10.22-7-4.58-7-10.22-7S470.44,272.5,470.44,276.36Z"/><path class="cls-7" d="M496.56,260.58c0,2.48,4.87,4.48,10.88,4.48s10.88-2,10.88-4.48-4.87-4.48-10.88-4.48S496.56,258.11,496.56,260.58Z"/><path class="cls-6" d="M512.84,280.13c1,4.06,6.2,6.08,11.56,4.51s8.85-6.11,7.82-10.17-6.2-6.08-11.55-4.51S511.81,276.07,512.84,280.13Z"/><path class="cls-6" d="M535.88,286.54c0,3.23,4.49,5.85,10,5.85s10-2.62,10-5.85-4.48-5.85-10-5.85S535.88,283.31,535.88,286.54Z"/><path class="cls-7" d="M545.9,261.72c0,3.1,3.9,5.62,8.72,5.62s8.71-2.52,8.71-5.62-3.9-5.62-8.71-5.62S545.9,258.62,545.9,261.72Z"/><path class="cls-6" d="M563.33,275c0,3.12,5.38,5.66,12,5.66s12-2.54,12-5.66-5.37-5.67-12-5.67S563.33,271.9,563.33,275Z"/><path class="cls-8" d="M455.62,271.85a4.91,4.91,0,1,0,4.9-4.51A4.72,4.72,0,0,0,455.62,271.85Z"/><path class="cls-9" d="M482.8,256.75c0,2.11,2.65,3.83,5.92,3.83s5.92-1.72,5.92-3.83-2.65-3.84-5.92-3.84S482.8,254.63,482.8,256.75Z"/><ellipse class="cls-8" cx="501.04" cy="284.81" rx="6.4" ry="4.12"/><path class="cls-9" d="M529.2,255.91c0,2.58,3.74,4.67,8.35,4.67s8.35-2.09,8.35-4.67-3.74-4.67-8.35-4.67S529.2,253.33,529.2,255.91Z"/><path class="cls-8" d="M584.33,267.9c0,2.65,2.74,4.79,6.12,4.79s6.11-2.14,6.11-4.79-2.74-4.79-6.11-4.79S584.33,265.26,584.33,267.9Z"/><path class="cls-10" d="M563.33,284.81a7,7,0,0,0-.46-1.52,13.56,13.56,0,0,0-.81-1.63,15.7,15.7,0,0,0-1.39-1.91,14.71,14.71,0,0,0-4.69-3.54,16,16,0,0,0-3.12-1.1c-.54-.1-1.1-.22-1.66-.3s-1.12-.08-1.68-.12l-1.41-.06-.75,0-.53-.09a6.54,6.54,0,0,1-1.08-.2,5.33,5.33,0,0,1-1.07-.33l-.53-.19-.48-.25a6,6,0,0,1-.92-.55,9.74,9.74,0,0,1-1.6-1.39c-.25-.24-.45-.52-.67-.76l-.57-.77c-.34-.51-.65-1-.88-1.39s-.42-.74-.53-1l-.18-.37a6.37,6.37,0,0,0-.24,1.58,10.36,10.36,0,0,0,.06,1.88c0,.36.12.74.2,1.15s.23.83.39,1.27a10.38,10.38,0,0,0,1.48,2.65,8.37,8.37,0,0,0,1.15,1.24c.21.19.43.39.66.58l.73.48a7.45,7.45,0,0,0,.77.46l.81.36c.28.11.55.25.85.34l.93.23.94.2c.25,0,.5.06.75.08l1.6.11c.45,0,.89,0,1.33.06s.88.08,1.31.12.85.15,1.28.21.82.2,1.24.27a22.65,22.65,0,0,1,2.33.71c.75.27,1.45.57,2.09.87s1.24.63,1.78.93,1,.59,1.37.84.69.46.89.62Z"/><path class="cls-11" d="M532.4,255.91s0-.06.05-.18a3.78,3.78,0,0,0,0-.55,4,4,0,0,0-.52-1.75,4.47,4.47,0,0,0-.72-.93,4.89,4.89,0,0,0-2.17-1.27,4.46,4.46,0,0,0-1.24-.2,4.92,4.92,0,0,0-1.22.08,4,4,0,0,0-1.1.34,5.31,5.31,0,0,0-1.73,1.16,4.49,4.49,0,0,0-.57.7,4.18,4.18,0,0,0-.39.63,3.88,3.88,0,0,0-.23.46,1.52,1.52,0,0,1-.07.18l.16.1a4.82,4.82,0,0,0,.42.26,14.67,14.67,0,0,0,1.35.64c.26.1.52.2.8.28s.54.17.81.22.54.1.8.14l.77.07h.72a5.78,5.78,0,0,0,.7-.08c.22,0,.46-.07.68-.1s.47-.09.7-.12l.7-.09.62,0,.47,0Z"/><path class="cls-10" d="M496.56,278.94a4.43,4.43,0,0,0,1.1-.65,6.91,6.91,0,0,0,1.1-1.05,6.1,6.1,0,0,0,1.06-1.91,5.74,5.74,0,0,0,.22-3,6.16,6.16,0,0,0-.56-1.61,5.66,5.66,0,0,0-.92-1.4,6.76,6.76,0,0,0-1.14-1.13,7.73,7.73,0,0,0-1.24-.87l-.32-.2-.16-.1,0,0h0s.14.07.07,0l-.07,0c-.18-.11-.36-.22-.54-.31a8.92,8.92,0,0,1-1-.59,17.63,17.63,0,0,1-1.67-1.14,11.69,11.69,0,0,1-1.42-1.26,9,9,0,0,1-1.09-1.35,7.48,7.48,0,0,1-.72-1.48,8.15,8.15,0,0,1-.38-1.51,10,10,0,0,1-.12-1.34c0-.39,0-.71,0-.93s0-.35,0-.35a2.8,2.8,0,0,0-.26.21,4.62,4.62,0,0,0-.67.7A5.79,5.79,0,0,0,487,259a6.94,6.94,0,0,0-.6,2.07,8.47,8.47,0,0,0,.1,2.68,9.3,9.3,0,0,0,1.07,2.78c.13.22.25.44.39.66l.46.6a8.31,8.31,0,0,0,1,1.12,12.91,12.91,0,0,0,2.37,1.83c.46.29.82.46,1.18.65l1.09.52a8.86,8.86,0,0,1,1.55.83,3.09,3.09,0,0,1,.54.43,2.27,2.27,0,0,1,.43.45,2.84,2.84,0,0,1,.48,1.23,5.94,5.94,0,0,1,0,1.52,10.94,10.94,0,0,1-.2,1.34c-.09.37-.15.7-.22.9Z"/><path class="cls-12" d="M465.67,280.34c2.15,0,7.55,1.11,5.12,4.63-.74,1.08-2.44,0-1.69-1.06.42-.61.36-.62-.29-1a5.13,5.13,0,0,0-2-.47,9.33,9.33,0,0,0,1.65,4.3c1.17.12,1.1,2-.1,2.09a11.62,11.62,0,0,1-1.77,0c-1,0-1.95.06-2.92.12s-1.23-1.47-.45-2a1.53,1.53,0,0,1,.16-.31,6.9,6.9,0,0,0,1.13-3.76c0-.14,0-.28,0-.41-1.37.16-3.12.46-3,.84.5,1.23-1.19,2.3-1.69,1.06C458.34,280.92,463.6,280.35,465.67,280.34Z"/><path class="cls-12" d="M474.33,261.53a.68.68,0,0,1,.26-.18,6.75,6.75,0,0,1,6.1-.76c1.2.42.68,2.45-.52,2a5.66,5.66,0,0,0-2.93-.21c1.14.64,2.24,1.35,3.33,2.11.4-.35.81-.7,1.24-1,.93-.67,2,.87,1.19,1.65l-1.55,1.49a1.24,1.24,0,0,1-.54.29l-1.1,1a1,1,0,0,1-1.38-1.49l.58-.55a28,28,0,0,0-3.95-2.33,4.07,4.07,0,0,0-1,2.75,1,1,0,1,1-2,0A6,6,0,0,1,474.33,261.53Z"/><path class="cls-12" d="M503.24,266.73c.16-1.33,2.12-1.35,2,0a3.08,3.08,0,0,0,1,2.87c.24-.44.47-.87.72-1.28a2.34,2.34,0,0,1,.43-1.88,1.93,1.93,0,0,1,.6-.44l.42-.18c-.07,0,0,0,.07-.1.61-.77,1.54-.13,1.63.67a1,1,0,0,1,.62.95v.35a1,1,0,0,1-.73,1l-.64.11-.15,0a7.89,7.89,0,0,0-.49.65.69.69,0,0,1-.34.25l-.3.57a4.07,4.07,0,0,0,3.1-1.08,1,1,0,0,1,1.38,1.49C509.16,273.87,502.57,272.4,503.24,266.73Z"/><path class="cls-13" d="M522.79,260.21a7.11,7.11,0,0,1,7.83-.22,4,4,0,0,1,2.12,2.74,1,1,0,1,1-1.89.56,2.69,2.69,0,0,0-1-1.31c-.67-.22-1.47.32-1.95,1.13,0,.48,0,.95,0,1.43.52,0,1,.09,1.56.18,1.25.2.71,2.23-.53,2a11,11,0,0,0-1.53-.15,1,1,0,0,1-1,0,14.9,14.9,0,0,0-1.9.17c-1.24.19-1.77-1.84-.52-2,.53-.09,1.06-.14,1.59-.18a.71.71,0,0,1,0-.21c.06-.92.11-1.83.25-2.73a3.86,3.86,0,0,0-2.2.45,2.51,2.51,0,0,0-.75,1.58,1,1,0,1,1-2,0A3.63,3.63,0,0,1,522.79,260.21Z"/><path class="cls-13" d="M570.44,263.35c.24,1.47,2.52,1.42,4.33.53a17.55,17.55,0,0,1-1.84-2,.92.92,0,0,1-1.17-.43,1.09,1.09,0,0,1,.35-1.44,4.75,4.75,0,0,0,1.6-1.33,1,1,0,0,1,1.39,0,1.14,1.14,0,0,1,0,1.49c-.17.2-.34.39-.52.57a12.17,12.17,0,0,0,1.39,1.48,7.31,7.31,0,0,1,.62-.48,2,2,0,0,0,.36-.28,2.18,2.18,0,0,0,0-.51c0-.12-.05-.26-.08-.46-.18-1.31,1.48-1.87,1.89-.56,1.82,5.75-9.35,9.56-10.23,4C568.34,262.58,570.23,262,570.44,263.35Z"/><path class="cls-12" d="M565.2,285.87a17.75,17.75,0,0,0,3.22,3.32c.15-.31.29-.62.42-.94a17.66,17.66,0,0,1,0-2.52,1,1,0,0,1,1.77-.65l.07-.09a1,1,0,0,1,1.64,1c-.43,1.19-.93,2.34-1.39,3.51a.33.33,0,0,1,0,.06l.06.85a2,2,0,0,0,2.19-1.19c.63-1.18,2.32-.12,1.69,1.06-2.78,5.2-8.72.23-11-2.95C563.05,286.3,564.42,284.8,565.2,285.87Z"/><ellipse class="cls-3" cx="467.51" cy="333.5" rx="11.6" ry="11.44"/><ellipse class="cls-3" cx="612.38" cy="329.07" rx="11.6" ry="11.44"/><path class="cls-14" d="M620.37,261.5c.31,13.44-1.25,11.88-2.19,23.44-11.25,5-33.43,5.94-36.25,5.62-10.93-5.93-37.5-9.37-41.87-11.25-1.25-20,51.56,5.94,61.56-.93,2.5-5.63,2.5-7.5,1.25-14.38C606.77,259.31,615.66,257.82,620.37,261.5Z"/><path class="cls-14" d="M620.37,267.13c0-36.25,3.13-43.13-8.12-57.5-18.5-14.41-35.63-15-60.63-8.13-4.37-21.87-5.42-60.31-8.12-60.62-1.65-.2-5,8.75-11.88,26.25-18.75-1.25-26.87-2.5-45.62-1.25-7.5-13.75-10.35-27.67-13.13-27.5-3.69.21-4.74,30.69-5,38.75-1.73,54.17-2.53,81.38.63,86.87C504.12,268.38,550.37,270.88,620.37,267.13Z"/><ellipse class="cls-15" cx="492.87" cy="175.88" rx="12.5" ry="6.25"/><ellipse class="cls-15" cx="526.62" cy="177.13" rx="12.5" ry="6.25"/><circle class="cls-16" cx="492.87" cy="175.88" r="5.62"/><circle class="cls-16" cx="526" cy="177.13" r="5.62"/><path class="cls-17" d="M482.25,244c2.27.9,27.5,6.25,29.37,18.75.69,4.59-16.87,3.8-38.12,1.88"/><path class="cls-17" d="M547.87,252.13c-23.75-3.75-36.57,9.79-36.25,12.5q.45,3.74,32.5,3.75"/><path class="cls-17" d="M570.37,239.63c0,9.37,0,14.37,8.13,21.25-16.25-3.13-26.27,7-26.25,7.5,0,.31,9,.41,36.87,0"/><path class="cls-17" d="M498.5,209.63c.41,2.7-1.25,5.62,1.25,8.12"/><path class="cls-17" d="M519.75,214.63v6.87"/><path class="cls-17" d="M506.62,212.13c.42,1,.84,2.08,1.25,3.12"/><path class="cls-17" d="M510.37,224.63c.21,1.87-.62,4.37.63,5.62"/><path class="cls-17" d="M500.37,229.63c-.21,1.25-.41,2.5-.62,3.75"/><ellipse class="cls-18" cx="509.12" cy="194.94" rx="15.31" ry="8.75"/><path class="cls-17" d="M509.44,193.69c.05.11-.32,3.44,0,4.37-1.21,1.81-4.32,2.4-6.88.63"/><path class="cls-17" d="M509.44,193.69c-.05.11.31,3.44,0,4.37,1.2,1.81,4.32,2.4,6.88.63"/><path class="cls-19" d="M506.57,189.94c2-1.49,3.32-1.82,5.8-.17a3.46,3.46,0,0,1,.33,4,19,19,0,0,1-6.13,0A3.41,3.41,0,0,1,506.57,189.94Z"/><path class="cls-20" d="M508.89,193.37a.75.75,0,0,0-.75-.76.76.76,0,0,0-.76.76c0,.42.34.5.76.5S508.89,193.79,508.89,193.37Z"/><path class="cls-20" d="M511.67,193.37a.76.76,0,1,0-1.51,0c0,.42.34.5.75.5S511.67,193.79,511.67,193.37Z"/><path class="cls-21" d="M478.59,167.24l-5,.37a3.15,3.15,0,0,1-3.35-2.89l1.5-5.12c.49-1.92,1.17-3.22,2.89-3.35l1.24-.09c1.72-.13,2.59,1.06,3.35,2.88l2.24,4.85A3.13,3.13,0,0,1,478.59,167.24Z"/><path class="cls-21" d="M542.28,169l-4.94-.78a3.13,3.13,0,0,1-2.6-3.57l2.63-4.65c.9-1.75,1.87-2.87,3.57-2.6l1.23.19c1.7.27,2.28,1.62,2.61,3.57l1.08,5.23A3.15,3.15,0,0,1,542.28,169Z"/><path class="cls-6" d="M455.06,267.12c.64,2.72,4.55,4,8.72,2.88s7-4.27,6.38-7-4.55-4-8.72-2.89S454.41,264.39,455.06,267.12Z"/><path class="cls-12" d="M594,277.61a8.66,8.66,0,0,0,3-1.65,8.83,8.83,0,0,0-2.65.7c-.9.38-1.71-1.11-1-1.76a6,6,0,0,1,9.82,2.48.9.9,0,0,1,0,.81.92.92,0,0,1-.48.64,1.19,1.19,0,0,1-1.55-.15.94.94,0,0,1-.88-.74,2.64,2.64,0,0,0-.84-1.37l-.62.58c-.47,1-1.05,1.88-1.49,2.89a1,1,0,0,1-1.1.48,6.86,6.86,0,0,1-2.45-1A1.1,1.1,0,0,1,594,277.61Z"/></g><g id="Layer_3" data-name="Layer 3"><path class="cls-1" d="M1003.5,321.19c0,19.5-57.08,35.31-127.5,35.31s-127.5-15.81-127.5-35.31S895.58,263.38,966,263.38,1003.5,301.69,1003.5,321.19Z"/><polyline class="cls-2" points="934.79 317.27 953.02 329.81 962.38 321.7 950.64 311.51"/><path class="cls-2" d="M790.54,309.59l21.36,21.7s-.56-11.07,6.08-12S790.54,309.59,790.54,309.59Z"/><ellipse class="cls-3" cx="777.46" cy="298.09" rx="11.6" ry="11.44"/><path class="cls-2" d="M769,284.8c0,22.42,46.4,40.59,103.63,40.59s103.63-18.17,103.63-40.59-46.4-40.58-103.63-40.58S769,262.39,769,284.8Z"/><path class="cls-4" d="M878.36,248.71s20.77-5.51,30.59-1.53a196.36,196.36,0,0,1,20.93,10.48s34.19-1.59,39.26,17.37-15,30.53-21.59,29.48c0,0-19.3,16.66-48.09,12.1,0,0-27.16,8.25-47.28-.17,0,0-41,7-65.43-14.39s-14.23-32.06,0-41.47S816,256.75,816,256.75s38.11-17,52.28-14C880.42,245.35,878.36,248.71,878.36,248.71Z"/><path class="cls-5" d="M877.84,251s28.92-3.35,49,9.45c0,0,19.35-1.7,20.66,9.93,0,0,10,1.2,7.2,9.93,0,0-16.2,3.2-21.1,8.68s-2.49,7.24-17.11,7.06-25.59-3.66-30.66,0-10.14,5.95-16.52,4-17.86-8.1-24.72-7.56-28.19,4.23-34.12-1.74-15.75-17.6-25.4-17.57c0,0,2.29-13.62,29.12-14.08C814.24,259.17,861.78,239,877.84,251Z"/><path class="cls-6" d="M820.44,276.36c0,3.87,4.57,7,10.21,7s10.22-3.13,10.22-7-4.57-7-10.22-7S820.44,272.5,820.44,276.36Z"/><path class="cls-7" d="M846.56,260.58c0,2.48,4.87,4.48,10.88,4.48s10.88-2,10.88-4.48-4.87-4.48-10.88-4.48S846.56,258.11,846.56,260.58Z"/><path class="cls-6" d="M862.84,280.13c1,4.06,6.2,6.08,11.56,4.51s8.85-6.11,7.82-10.17-6.2-6.08-11.55-4.51S861.81,276.07,862.84,280.13Z"/><path class="cls-6" d="M885.88,286.54c0,3.23,4.49,5.85,10,5.85s10-2.62,10-5.85-4.49-5.85-10-5.85S885.88,283.31,885.88,286.54Z"/><path class="cls-7" d="M895.9,261.72c0,3.1,3.9,5.62,8.72,5.62s8.72-2.52,8.72-5.62-3.91-5.62-8.72-5.62S895.9,258.62,895.9,261.72Z"/><path class="cls-6" d="M913.34,275c0,3.12,5.37,5.66,12,5.66s12-2.54,12-5.66-5.37-5.67-12-5.67S913.34,271.9,913.34,275Z"/><path class="cls-8" d="M805.62,271.85a4.91,4.91,0,1,0,4.9-4.51A4.72,4.72,0,0,0,805.62,271.85Z"/><path class="cls-9" d="M832.8,256.75c0,2.11,2.65,3.83,5.92,3.83s5.92-1.72,5.92-3.83-2.65-3.84-5.92-3.84S832.8,254.63,832.8,256.75Z"/><ellipse class="cls-8" cx="851.04" cy="284.81" rx="6.4" ry="4.12"/><path class="cls-9" d="M879.2,255.91c0,2.58,3.74,4.67,8.35,4.67s8.35-2.09,8.35-4.67-3.74-4.67-8.35-4.67S879.2,253.33,879.2,255.91Z"/><path class="cls-8" d="M934.33,267.9c0,2.65,2.74,4.79,6.12,4.79s6.11-2.14,6.11-4.79-2.73-4.79-6.11-4.79S934.33,265.26,934.33,267.9Z"/><path class="cls-10" d="M913.34,284.81a6.72,6.72,0,0,0-.47-1.52,12.21,12.21,0,0,0-.81-1.63,15.7,15.7,0,0,0-1.39-1.91,14.71,14.71,0,0,0-4.69-3.54,15.91,15.91,0,0,0-3.11-1.1c-.55-.1-1.11-.22-1.66-.3s-1.12-.08-1.69-.12l-1.41-.06-.75,0-.52-.09a6.18,6.18,0,0,1-1.08-.2,5.23,5.23,0,0,1-1.08-.33l-.52-.19-.48-.25a6.15,6.15,0,0,1-.93-.55,9.74,9.74,0,0,1-1.6-1.39c-.24-.24-.45-.52-.67-.76l-.57-.77c-.34-.51-.65-1-.88-1.39s-.42-.74-.53-1-.18-.37-.18-.37a6.37,6.37,0,0,0-.24,1.58,11.36,11.36,0,0,0,.06,1.88c.05.36.13.74.2,1.15s.24.83.39,1.27a10.14,10.14,0,0,0,1.49,2.65,7.8,7.8,0,0,0,1.14,1.24c.21.19.43.39.66.58l.73.48a7.45,7.45,0,0,0,.77.46l.82.36c.28.11.54.25.84.34l.93.23.94.2c.26,0,.5.06.75.08l1.6.11c.45,0,.9,0,1.34.06s.87.08,1.31.12.84.15,1.27.21.83.2,1.24.27a22.65,22.65,0,0,1,2.33.71c.75.27,1.45.57,2.1.87s1.24.63,1.77.93,1,.59,1.37.84.69.46.89.62Z"/><path class="cls-11" d="M882.4,255.91s0-.06.05-.18a2.75,2.75,0,0,0,0-.55,2.72,2.72,0,0,0-.13-.8,3.6,3.6,0,0,0-.39-.95,4.86,4.86,0,0,0-1.71-1.7,4.56,4.56,0,0,0-1.18-.5,4.46,4.46,0,0,0-1.24-.2,4.83,4.83,0,0,0-1.21.08,4,4,0,0,0-1.11.34,5.31,5.31,0,0,0-1.73,1.16,4.49,4.49,0,0,0-.57.7,5.18,5.18,0,0,0-.39.63,3.56,3.56,0,0,0-.22.46l-.08.18.16.1c.1,0,.25.18.42.26a14.67,14.67,0,0,0,1.35.64c.26.1.53.2.8.28s.54.17.81.22.55.1.8.14l.77.07h.72a5.35,5.35,0,0,0,.7-.08c.22,0,.46-.07.68-.1l.7-.12.7-.09.62,0,.47,0Z"/><path class="cls-10" d="M846.56,278.94a4.43,4.43,0,0,0,1.1-.65,6.92,6.92,0,0,0,1.11-1.05,6.3,6.3,0,0,0,1.06-1.91,5.75,5.75,0,0,0,.21-3,5.81,5.81,0,0,0-.56-1.61,5.66,5.66,0,0,0-.92-1.4,6.76,6.76,0,0,0-1.14-1.13,7.73,7.73,0,0,0-1.24-.87l-.32-.2-.16-.1,0,0h0l.07,0-.07,0a4.74,4.74,0,0,0-.54-.31,8.69,8.69,0,0,1-1-.59,15.39,15.39,0,0,1-1.67-1.14,11.09,11.09,0,0,1-1.43-1.26,9,9,0,0,1-1.09-1.35,6.92,6.92,0,0,1-.71-1.48,7.47,7.47,0,0,1-.39-1.51,12,12,0,0,1-.12-1.34c0-.39,0-.71,0-.93s0-.35,0-.35a2.8,2.8,0,0,0-.26.21,5.17,5.17,0,0,0-.67.7A5.79,5.79,0,0,0,837,259a6.67,6.67,0,0,0-.59,2.07,8.17,8.17,0,0,0,.09,2.68,9.57,9.57,0,0,0,1.07,2.78c.13.22.25.44.4.66l.45.6a9.91,9.91,0,0,0,1,1.12,12.91,12.91,0,0,0,2.37,1.83c.46.29.82.46,1.19.65l1.09.52a9.11,9.11,0,0,1,1.54.83,3.63,3.63,0,0,1,.55.43,2.52,2.52,0,0,1,.42.45,2.72,2.72,0,0,1,.48,1.23,5.94,5.94,0,0,1,0,1.52,13.11,13.11,0,0,1-.21,1.34c-.09.37-.15.7-.21.9Z"/><path class="cls-12" d="M815.67,280.34c2.15,0,7.55,1.11,5.13,4.63-.75,1.08-2.45,0-1.7-1.06.42-.61.36-.62-.28-1a5.22,5.22,0,0,0-2.05-.47,9.33,9.33,0,0,0,1.65,4.3c1.17.12,1.1,2-.1,2.09a11.62,11.62,0,0,1-1.77,0c-1,0-1.95.06-2.92.12s-1.23-1.47-.45-2a1.53,1.53,0,0,1,.16-.31,7,7,0,0,0,1.14-3.76l0-.41c-1.36.16-3.12.46-3,.84.5,1.23-1.19,2.3-1.69,1.06C808.35,280.92,813.6,280.35,815.67,280.34Z"/><path class="cls-12" d="M824.33,261.53a.68.68,0,0,1,.26-.18,6.75,6.75,0,0,1,6.1-.76c1.2.42.69,2.45-.52,2a5.66,5.66,0,0,0-2.93-.21,38.84,38.84,0,0,1,3.33,2.11,15.31,15.31,0,0,1,1.25-1c.92-.67,2,.87,1.19,1.65-.53.49-1,1-1.56,1.49a1.24,1.24,0,0,1-.54.29l-1.09,1c-1,.88-2.35-.6-1.39-1.49l.59-.55a29.22,29.22,0,0,0-3.95-2.33,4,4,0,0,0-1,2.75,1,1,0,1,1-2,0A6.08,6.08,0,0,1,824.33,261.53Z"/><path class="cls-12" d="M853.24,266.73c.16-1.33,2.13-1.35,2,0a3.06,3.06,0,0,0,1,2.87c.23-.44.47-.87.72-1.28a2.27,2.27,0,0,1,.43-1.88A1.79,1.79,0,0,1,858,266l.42-.18c-.06,0,0,0,.07-.1.62-.77,1.54-.13,1.63.67a1,1,0,0,1,.62.95v.35a1,1,0,0,1-.72,1l-.65.11-.15,0a7.89,7.89,0,0,0-.49.65.71.71,0,0,1-.33.25c-.11.19-.21.38-.31.57a4.05,4.05,0,0,0,3.1-1.08,1,1,0,0,1,1.39,1.49C859.16,273.87,852.57,272.4,853.24,266.73Z"/><path class="cls-13" d="M872.79,260.21a7.11,7.11,0,0,1,7.83-.22,4,4,0,0,1,2.12,2.74,1,1,0,1,1-1.89.56,2.63,2.63,0,0,0-1-1.31c-.66-.22-1.47.32-1.95,1.13,0,.48,0,.95,0,1.43.52,0,1,.09,1.56.18,1.25.2.71,2.23-.52,2a11.32,11.32,0,0,0-1.53-.15,1,1,0,0,1-1,0,15.06,15.06,0,0,0-1.91.17c-1.24.19-1.77-1.84-.52-2,.53-.09,1.06-.14,1.59-.18a.71.71,0,0,1,0-.21c.07-.92.11-1.83.25-2.73a3.86,3.86,0,0,0-2.2.45,2.51,2.51,0,0,0-.75,1.58,1,1,0,1,1-2,0A3.61,3.61,0,0,1,872.79,260.21Z"/><path class="cls-13" d="M920.44,263.35c.24,1.47,2.52,1.42,4.33.53a17.55,17.55,0,0,1-1.84-2,.92.92,0,0,1-1.17-.43,1.1,1.1,0,0,1,.35-1.44,4.75,4.75,0,0,0,1.6-1.33.94.94,0,0,1,1.39,0,1.13,1.13,0,0,1,0,1.49,7,7,0,0,1-.52.57,12.17,12.17,0,0,0,1.39,1.48,7.47,7.47,0,0,1,.63-.48,2.27,2.27,0,0,0,.35-.28,1.75,1.75,0,0,0,0-.51c0-.12-.05-.26-.08-.46-.17-1.31,1.48-1.87,1.9-.56,1.81,5.75-9.36,9.56-10.24,4C918.34,262.58,920.23,262,920.44,263.35Z"/><path class="cls-12" d="M915.2,285.87a17.53,17.53,0,0,0,3.23,3.32c.14-.31.28-.62.41-.94a19.26,19.26,0,0,1,0-2.52,1,1,0,0,1,1.77-.65l.08-.09a1,1,0,0,1,1.64,1c-.44,1.19-.93,2.34-1.39,3.51,0,0,0,0,0,.06l.06.85a2,2,0,0,0,2.19-1.19c.63-1.18,2.33-.12,1.69,1.06-2.78,5.2-8.72.23-11-2.95C913.05,286.3,914.43,284.8,915.2,285.87Z"/><ellipse class="cls-3" cx="817.52" cy="333.5" rx="11.6" ry="11.44"/><ellipse class="cls-3" cx="962.38" cy="329.07" rx="11.6" ry="11.44"/><path class="cls-14" d="M970.37,267.13c0-36.25,3.13-43.13-8.12-57.5-18.5-14.41-35.63-15-60.63-8.13-4.37-21.87-5.42-60.31-8.12-60.62-1.65-.2-5,8.75-11.88,26.25-18.75-1.25-26.87-2.5-45.62-1.25-7.5-13.75-10.35-27.67-13.13-27.5-3.69.21-4.74,30.69-5,38.75-1.73,54.17-2.53,81.38.63,86.87C854.12,268.38,900.37,270.88,970.37,267.13Z"/><ellipse class="cls-15" cx="842.87" cy="175.88" rx="12.5" ry="6.25"/><ellipse class="cls-15" cx="876.62" cy="177.13" rx="12.5" ry="6.25"/><circle class="cls-16" cx="842.87" cy="175.88" r="5.62"/><circle class="cls-16" cx="876" cy="177.13" r="5.62"/><path class="cls-17" d="M832.25,244c2.27.9,27.5,6.25,29.37,18.75.69,4.59-16.87,3.8-38.12,1.88"/><path class="cls-17" d="M897.87,252.13c-23.75-3.75-36.56,9.79-36.25,12.5q.45,3.74,32.5,3.75"/><path class="cls-17" d="M920.37,239.63c0,9.37,0,14.37,8.13,21.25-16.25-3.13-26.27,7-26.25,7.5,0,.31,9,.41,36.87,0"/><path class="cls-17" d="M848.5,209.63c.42,2.7-1.25,5.62,1.25,8.12"/><path class="cls-17" d="M869.75,214.63v6.87"/><path class="cls-17" d="M856.62,212.13c.42,1,.84,2.08,1.25,3.12"/><path class="cls-17" d="M860.37,224.63c.21,1.87-.62,4.37.63,5.62"/><path class="cls-17" d="M850.37,229.63c-.2,1.25-.41,2.5-.62,3.75"/><ellipse class="cls-18" cx="859.12" cy="194.94" rx="15.31" ry="8.75"/><path class="cls-17" d="M859.44,193.69c0,.11-.32,3.44,0,4.37-1.21,1.81-4.32,2.4-6.88.63"/><path class="cls-17" d="M859.44,193.69c-.05.11.32,3.44,0,4.37,1.21,1.81,4.32,2.4,6.88.63"/><path class="cls-19" d="M856.57,189.94c2-1.49,3.32-1.82,5.8-.17a3.48,3.48,0,0,1,.34,4,19.09,19.09,0,0,1-6.14,0A3.43,3.43,0,0,1,856.57,189.94Z"/><path class="cls-20" d="M858.9,193.37a.76.76,0,0,0-1.52,0c0,.42.34.5.76.5S858.9,193.79,858.9,193.37Z"/><path class="cls-20" d="M861.67,193.37a.76.76,0,1,0-1.51,0c0,.42.34.5.76.5S861.67,193.79,861.67,193.37Z"/><path class="cls-21" d="M828.59,167.24l-5,.37a3.15,3.15,0,0,1-3.35-2.89l1.5-5.12c.49-1.92,1.18-3.22,2.89-3.35l1.25-.09c1.71-.13,2.58,1.06,3.34,2.88l2.24,4.85A3.13,3.13,0,0,1,828.59,167.24Z"/><path class="cls-21" d="M892.29,169l-4.94-.78a3.14,3.14,0,0,1-2.61-3.57l2.63-4.65c.91-1.75,1.87-2.87,3.57-2.6l1.23.19c1.7.27,2.28,1.62,2.61,3.57l1.08,5.23A3.15,3.15,0,0,1,892.29,169Z"/><path class="cls-14" d="M970.37,261.5c.32,13.44-1.25,11.88-2.18,23.44-11.25,5-33.44,5.94-36.25,5.62-10.94-5.93-33.13-20.62-37.5-22.5-1.25-20,47.18,17.19,57.18,10.32,2.5-5.63,2.5-7.5,1.25-14.38C956.78,259.31,965.66,257.82,970.37,261.5Z"/><path class="cls-6" d="M805.06,267.12c.64,2.72,4.55,4,8.72,2.88s7-4.27,6.38-7-4.55-4-8.72-2.89S804.41,264.39,805.06,267.12Z"/><path class="cls-12" d="M944,277.61a8.66,8.66,0,0,0,3-1.65,8.83,8.83,0,0,0-2.65.7c-.9.38-1.71-1.11-1-1.76a6,6,0,0,1,9.82,2.48.9.9,0,0,1,0,.81.92.92,0,0,1-.48.64,1.19,1.19,0,0,1-1.55-.15.94.94,0,0,1-.87-.74,2.71,2.71,0,0,0-.85-1.37c-.2.2-.41.39-.62.58-.47,1-1.05,1.88-1.48,2.89a1,1,0,0,1-1.11.48,7,7,0,0,1-2.45-1A1.1,1.1,0,0,1,944,277.61Z"/></g></svg>
