<svg xmlns="http://www.w3.org/2000/svg" viewBox="0 0 1400 500"><defs><style>.cls-1,.cls-13{fill:#fff;}.cls-1,.cls-10,.cls-11,.cls-2,.cls-3,.cls-5,.cls-6,.cls-7,.cls-8,.cls-9{stroke:#000;}.cls-1,.cls-10,.cls-11,.cls-12,.cls-13,.cls-2,.cls-3,.cls-4,.cls-5,.cls-6,.cls-7,.cls-8,.cls-9{stroke-miterlimit:10;}.cls-2{fill:#f3d3c3;}.cls-3{fill:#b77d6d;stroke-width:2px;}.cls-4{stroke:#050000;}.cls-5{fill:#bc5020;}.cls-6{fill:#b69e92;}.cls-7{fill:#a55d48;}.cls-8{fill:#0d1b28;}.cls-9{fill:#f38b2e;}.cls-10{fill:#f5a258;}.cls-11{fill:#020100;}.cls-11,.cls-13{stroke-width:5px;}.cls-12{fill:#f5c8f5;stroke:#efa3ef;}.cls-13{stroke:#d61ad6;}</style></defs><title>kvinde_walkcycle</title><g id="Layer_4" data-name="Layer 4"><path class="cls-1" d="M1296.84,131.36s-14.58,35.4,10.15,55"/><ellipse class="cls-1" cx="1231" cy="256.87" rx="2.02" ry="1.91"/><path class="cls-2" d="M1307,186.36S1314.6,420,1283.53,445h-34.25s-32.34-101.28-14.58-122c0,0-26,49.55-29.81,115.44l-27.9-1.09s-58.35-141.57-17.76-298.94c0,0,40-12,43.76-76.77l72.93,5.44s-9.52,46.29,20.92,64.25"/><ellipse class="cls-3" cx="1226.38" cy="251.43" rx="1.73" ry="1.63"/><line class="cls-4" x1="1191.15" y1="286.28" x2="1194.95" y2="291.93"/><line class="cls-4" x1="1210.18" y1="289.11" x2="1206.27" y2="294.76"/><line class="cls-4" x1="1253.17" y1="286.28" x2="1249.26" y2="291.93"/><line class="cls-4" x1="1237.55" y1="289.14" x2="1242.13" y2="294.73"/><line class="cls-4" x1="1213.91" y1="286.28" x2="1217.71" y2="291.93"/><line class="cls-4" x1="1231.68" y1="286.28" x2="1227.76" y2="291.93"/><line class="cls-4" x1="1256.51" y1="290.75" x2="1261.1" y2="296.35"/><line class="cls-4" x1="1197.54" y1="292.34" x2="1193.62" y2="297.99"/><line class="cls-4" x1="1202.53" y1="294.76" x2="1206.33" y2="300.42"/><line class="cls-4" x1="1216.05" y1="294.79" x2="1220.11" y2="296.64"/><line class="cls-4" x1="1232.91" y1="293.01" x2="1231.06" y2="295.19"/><line class="cls-4" x1="1224.9" y1="294.79" x2="1229.48" y2="300.39"/><line class="cls-4" x1="1235.47" y1="294.77" x2="1231.56" y2="300.42"/><line class="cls-4" x1="1251.73" y1="294.87" x2="1245.64" y2="300.32"/><line class="cls-4" x1="1192.42" y1="299.61" x2="1196.21" y2="305.27"/><line class="cls-4" x1="1200.88" y1="300.45" x2="1204.93" y2="302.3"/><line class="cls-4" x1="1220.1" y1="299.52" x2="1211.59" y2="303.64"/><line class="cls-4" x1="1263.06" y1="317.85" x2="1258.83" y2="312.23"/><line class="cls-4" x1="1243.83" y1="315.23" x2="1247.3" y2="309.54"/><line class="cls-4" x1="1201.07" y1="318.55" x2="1204.54" y2="312.86"/><line class="cls-4" x1="1216.47" y1="315.52" x2="1211.46" y2="309.98"/><line class="cls-4" x1="1240.31" y1="318.11" x2="1236.08" y2="312.5"/><line class="cls-4" x1="1222.56" y1="318.31" x2="1226.03" y2="312.61"/><line class="cls-4" x1="1197.39" y1="314.12" x2="1192.37" y2="308.58"/><line class="cls-4" x1="1256.21" y1="311.86" x2="1259.69" y2="306.16"/><line class="cls-4" x1="1251.03" y1="309.49" x2="1246.8" y2="303.88"/><line class="cls-4" x1="1237.52" y1="309.62" x2="1233.32" y2="307.82"/><line class="cls-4" x1="1220.81" y1="311.59" x2="1222.48" y2="309.4"/><line class="cls-4" x1="1228.67" y1="309.72" x2="1223.66" y2="304.18"/><line class="cls-4" x1="1218.11" y1="309.87" x2="1221.58" y2="304.18"/><line class="cls-4" x1="1201.85" y1="309.95" x2="1207.51" y2="304.44"/><line class="cls-4" x1="1260.77" y1="304.53" x2="1256.54" y2="298.92"/><line class="cls-4" x1="1252.25" y1="303.79" x2="1248.05" y2="301.99"/><line class="cls-4" x1="1233.11" y1="304.94" x2="1241.3" y2="300.72"/><line class="cls-4" x1="1266.81" y1="331.31" x2="1262.58" y2="325.7"/><line class="cls-4" x1="1247.57" y1="328.7" x2="1251.05" y2="323"/><line class="cls-4" x1="1204.82" y1="332.02" x2="1208.29" y2="326.32"/><line class="cls-4" x1="1220.22" y1="328.98" x2="1215.2" y2="323.44"/><line class="cls-4" x1="1244.06" y1="331.57" x2="1239.83" y2="325.96"/><line class="cls-4" x1="1226.3" y1="331.77" x2="1229.78" y2="326.08"/><line class="cls-4" x1="1201.13" y1="327.58" x2="1196.12" y2="322.04"/><line class="cls-4" x1="1259.96" y1="325.32" x2="1263.44" y2="319.63"/><line class="cls-4" x1="1254.78" y1="322.96" x2="1250.55" y2="317.35"/><line class="cls-4" x1="1241.27" y1="323.08" x2="1237.07" y2="321.28"/><line class="cls-4" x1="1224.55" y1="325.06" x2="1226.23" y2="322.86"/><line class="cls-4" x1="1232.42" y1="323.18" x2="1227.41" y2="317.64"/><line class="cls-4" x1="1221.86" y1="323.33" x2="1225.33" y2="317.64"/><line class="cls-4" x1="1205.59" y1="323.42" x2="1211.26" y2="317.9"/><line class="cls-4" x1="1264.51" y1="317.99" x2="1260.29" y2="312.38"/><line class="cls-4" x1="1256" y1="317.25" x2="1251.8" y2="315.45"/><line class="cls-4" x1="1236.85" y1="318.4" x2="1245.04" y2="314.18"/><path class="cls-2" d="M1159,138.19c-24.3,9.91-96.17,43.4-52,77.63,48.93,37.88,51.83,24.39,52,22.27,0-.22,0-.44.07-.65l2.37-14.61c.32-2-.93-4-3.16-4.9a186.41,186.41,0,0,1-23.5-12.13c-4.21-2.55-2.55-8,2.73-8.81,9.86-1.5,20.9-7.21,24.42-24.44a3.05,3.05,0,0,1-.52-.05"/><path class="cls-1" d="M1289,154.25c-.47,20.53,1.48,48.35,17.42,31.6"/><path class="cls-1" d="M1290.06,135.4s-.87,8.5-1.11,18.85"/><path class="cls-2" d="M1306.37,185.85c4.32-4.54,9.68-12.37,16.29-24.52,0,0,36.76-78.92,0-144.31,0,0-38.53-1.69-37.94,26.49s10.67,32.7,10.67,32.7,9.49-1.13,16.6-21.42c0,0-27.27,67.64-21.93,80.61"/><path class="cls-1" d="M1303.34,162.51c-.48.42,0,4.41,0,4.41"/><path class="cls-1" d="M1307.37,164.13c-.52,0-2.61,3-2.61,3"/><path class="cls-1" d="M1304.18,168.73c.08.68,3.63,2.25,3.63,2.25"/><path class="cls-1" d="M1306.29,171.11c.17-.62-2.36-3.65-2.36-3.65"/><path class="cls-1" d="M1302.07,172.12c.42-.33.54-4,.54-4"/><path class="cls-1" d="M1302.26,166.44c-.43-.51-4.22.25-4.22.25"/><path class="cls-1" d="M1304.64,171c0-.65-3-3-3-3"/><path class="cls-1" d="M1300.73,172.93c.34-.42-.29-4.07-.29-4.07"/><path class="cls-1" d="M1299.76,167.33c-.53-.4-4.07,1.18-4.07,1.18"/><path class="cls-1" d="M1300.57,162.91c-.15.63,2.45,3.59,2.45,3.59"/><path class="cls-1" d="M1304.76,161.79c-.41.34-.43,4.05-.43,4.05"/><path class="cls-1" d="M1304.72,167.47c.44.49,4.21-.37,4.21-.37"/><path class="cls-1" d="M1309.69,165.78c-.47.42,0,4.4,0,4.4"/><path class="cls-1" d="M1313.73,167.39c-.53,0-2.61,3.05-2.61,3.05"/><path class="cls-1" d="M1310.53,172c.09.67,3.64,2.24,3.64,2.24"/><path class="cls-1" d="M1312.64,174.38c.17-.62-2.36-3.65-2.36-3.65"/><path class="cls-1" d="M1308.43,175.39c.41-.33.53-4,.53-4"/><path class="cls-1" d="M1308.61,169.71c-.43-.51-4.22.25-4.22.25"/><path class="cls-1" d="M1311,174.28c0-.65-3-3.05-3-3.05"/><path class="cls-1" d="M1307.08,176.19c.35-.41-.29-4.07-.29-4.07"/><path class="cls-1" d="M1306.11,170.6c-.52-.4-4.07,1.18-4.07,1.18"/><path class="cls-1" d="M1306.93,166.17c-.16.63,2.45,3.59,2.45,3.59"/><path class="cls-1" d="M1311.11,165.05c-.41.35-.43,4.06-.43,4.06"/><path class="cls-1" d="M1311.07,170.74c.45.49,4.21-.37,4.21-.37"/><path class="cls-1" d="M1308,160.34c-.48.42,0,4.4,0,4.4"/><path class="cls-1" d="M1312,162c-.52,0-2.61,3-2.61,3"/><path class="cls-1" d="M1308.8,166.56c.08.67,3.64,2.24,3.64,2.24"/><path class="cls-1" d="M1310.91,168.94c.17-.63-2.36-3.66-2.36-3.66"/><path class="cls-1" d="M1306.69,169.94c.42-.33.54-4,.54-4"/><path class="cls-1" d="M1306.88,164.26c-.43-.5-4.22.26-4.22.26"/><path class="cls-1" d="M1309.26,168.83c0-.64-3-3.05-3-3.05"/><path class="cls-1" d="M1305.35,170.75c.34-.42-.29-4.07-.29-4.07"/><path class="cls-1" d="M1304.38,165.15c-.53-.4-4.07,1.18-4.07,1.18"/><path class="cls-1" d="M1305.19,160.73c-.15.63,2.45,3.59,2.45,3.59"/><path class="cls-1" d="M1309.38,159.61c-.41.34-.43,4-.43,4"/><path class="cls-1" d="M1309.34,165.29c.44.5,4.21-.37,4.21-.37"/><path class="cls-1" d="M1308,163.6c-.48.42,0,4.41,0,4.41"/><path class="cls-1" d="M1312,165.22c-.52,0-2.61,3-2.61,3"/><path class="cls-1" d="M1308.8,169.82c.08.67,3.64,2.25,3.64,2.25"/><path class="cls-1" d="M1310.91,172.2c.17-.62-2.36-3.65-2.36-3.65"/><path class="cls-1" d="M1306.69,173.21c.42-.33.54-4,.54-4"/><path class="cls-1" d="M1306.88,167.53c-.43-.51-4.22.25-4.22.25"/><path class="cls-1" d="M1309.26,172.1c0-.65-3-3-3-3"/><path class="cls-1" d="M1305.35,174c.34-.41-.29-4.06-.29-4.06"/><path class="cls-1" d="M1304.38,168.42c-.53-.4-4.07,1.18-4.07,1.18"/><path class="cls-1" d="M1305.19,164c-.15.63,2.45,3.59,2.45,3.59"/><path class="cls-1" d="M1309.38,162.87c-.41.35-.43,4.06-.43,4.06"/><path class="cls-1" d="M1309.34,168.56c.44.49,4.21-.37,4.21-.37"/><path class="cls-5" d="M1143.94,210.42l-10.83,26.71,19.82,7.13s29.39,15.26,26.38,4.84l-12.88-5.72s20.69,9.37,17.18.4c0,0,11.07,3.79,1.56-6.92l-10.57-5.24s10.74-2.47,4.42-10.46c0,0-4.63-.94-15.87,3Z"/><path class="cls-2" d="M1186.82,244.62l-11.55-3.81Z"/><path class="cls-2" d="M1295.27,154.23s39.3,49.55-24.56,62.62c0,0-51.93,2.72-43.51-36.48,0,0,16.14,37.57-43.5,43.56,0,0-56.6.49-33-40.79,1.2-2.08,2.59-4.28,4.21-6.58"/><path class="cls-6" d="M1220.32,159.68s6.93-3.81,6.35,10.34c0,0,.58-11.43,8.66-10.89"/><ellipse class="cls-7" cx="1181.91" cy="199.16" rx="5.49" ry="5.17"/><ellipse class="cls-7" cx="1279.52" cy="196.43" rx="5.49" ry="5.17"/><path class="cls-8" d="M1199,298s42.16-9.25,54.29,1.64l-19.64,27.77S1222.05,329,1199,298Z"/><path class="cls-8" d="M1317.63,261.47s-18.73-5.84-65.55,40.33"/><path class="cls-8" d="M1139.18,261.28s18.28-2.93,59.77,37.25"/><path class="cls-9" d="M1237.26,19.47s-118.54-2.31-93.76,102.63c2.91,12.3,18.13,18,29.1,10.8,12-7.83,25.57-26,34.32-66.85l64.06,3s-1.69,83,36,58.22C1307,127.31,1343.47,30.61,1237.26,19.47Z"/><path class="cls-10" d="M1288.19,65.12s-4,4.38-.07,16.74c0,0-.7,9.84-3.13,9.83"/><path class="cls-10" d="M1154.48,131.36s4-2.79,5.2-13.63,7.8-7.34,7.8-7.34"/><path class="cls-10" d="M1278.36,78.55s-2.86-2.8-3.7-13.63-5.54-7.34-5.54-7.34"/><path class="cls-10" d="M1292.8,91.07s-2.86-2.79-3.7-13.63-5.54-7.34-5.54-7.34"/><path class="cls-10" d="M1288.18,113.4s-2.86-2.8-3.7-13.63-5.54-7.34-5.54-7.34"/><path class="cls-10" d="M1167.44,122.9s.67-3.83,9.39-10.93,2.93-8.58,2.93-8.58"/><path class="cls-10" d="M1149.12,118.71s-.44-3.86,5.94-12.91.39-9,.39-9"/><path class="cls-10" d="M1145.58,96.62s-.81-3.8,4.68-13.36-.47-9-.47-9"/><path class="cls-10" d="M1190.51,68.71s2.15-3.3,13.07-6.78,6.15-6.9,6.15-6.9"/><path class="cls-10" d="M1169.33,102.55s0-3.88,7.27-12.28,1.34-8.93,1.34-8.93"/><path class="cls-10" d="M1161.82,86.22s0-3.89,7.27-12.29,1.34-8.92,1.34-8.92"/><path class="cls-10" d="M1184.92,96.56s0-3.88,7.27-12.28,1.34-8.93,1.34-8.93"/><path class="cls-10" d="M1157.68,66.31s.65-3.84,9.32-11,2.89-8.6,2.89-8.6"/><path class="cls-10" d="M1182.42,63.87s1.14-3.73,10.68-9.82,4-8.2,4-8.2"/><path class="cls-10" d="M1299.88,125s-1-3.76,3.89-13.59-1-9-1-9"/><path class="cls-10" d="M1299,103.35s-1.67-3.55,1.46-14-2.55-8.69-2.55-8.69"/><path class="cls-10" d="M1179.37,48.6s2.53-3.07,13.78-5.4,6.91-6.23,6.91-6.23"/><path class="cls-10" d="M1199.5,53.36s2.9-2.76,14.36-3.83,7.65-5.4,7.65-5.4"/><path class="cls-10" d="M1184.49,35.94s2.89-2.77,14.36-3.83,7.64-5.41,7.64-5.41"/><path class="cls-10" d="M1287.69,56.55s4,.76,11.29,9.2,9,3,9,3"/><path class="cls-10" d="M1263.44,39.67s4,.76,11.28,9.2,9,3.05,9,3.05"/><path class="cls-10" d="M1241.4,61s3.5-2,14.91-.49S1265.1,57,1265.1,57"/><path class="cls-10" d="M1217.72,57.23s3.51-2,14.91-.49,8.79-3.54,8.79-3.54"/><path class="cls-10" d="M1235,46.34s3.51-2,14.92-.49,8.79-3.54,8.79-3.54"/><path class="cls-10" d="M1210.21,39.26s3.51-2,14.91-.49,8.79-3.54,8.79-3.54"/><path class="cls-10" d="M1241.36,28.46s4-.88,14.31,4,9.53-.73,9.53-.73"/><path class="cls-10" d="M1205.76,34s3.35-2.25,14.84-1.44,8.52-4.1,8.52-4.1"/><path class="cls-1" d="M1204.74,81.23c5.25-2,17.68-5.6,24.78,1.67a3.38,3.38,0,0,1,1,2.17c.08,1.81-1.59,4.56-12.23,4.79h-.21c-1.16.08-12.45.74-15.3-4C1201.78,84.06,1202.68,82,1204.74,81.23Z"/><ellipse class="cls-8" cx="1216.12" cy="84.32" rx="3.75" ry="5.74" transform="translate(64.54 484.23) rotate(-23.12)"/><path class="cls-1" d="M1243.37,79.86c5.62-.8,18.62-1.6,23.76,7a3.33,3.33,0,0,1,.5,2.34c-.38,1.78-2.68,4.09-13.11,2l-.21,0c-1.15-.17-12.33-2-13.93-7.26C1239.79,82,1241.18,80.17,1243.37,79.86Z"/><ellipse class="cls-8" cx="1253.71" cy="85.34" rx="3.79" ry="5.7" transform="translate(0.48 177.53) rotate(-8.1)"/><path class="cls-11" d="M1197.2,65s8.16,1.28,11,15.22"/><polyline class="cls-6" points="1234.47 91.07 1230.43 116.66 1239.09 116.66"/><path class="cls-12" d="M1204.15,98.15s-2.89-7.08,11.55,0C1215.7,98.15,1218.59,104.14,1204.15,98.15Z"/><path class="cls-12" d="M1248.86,103.43s-6.11-4.94,10.16-5.17C1259,98.26,1264.58,102.23,1248.86,103.43Z"/><path class="cls-11" d="M1204.55,62.53s8.08,1.67,10.17,15.73"/><path class="cls-11" d="M1215,61.71s7.55,3.18,6.57,17.35"/><path class="cls-11" d="M1226,62.79s6.2,5.1.87,18.18"/><path class="cls-11" d="M1245.44,62.32s-6.65,4.58-2.54,18"/><path class="cls-11" d="M1254.59,61.71S1247,64.89,1248,79.06"/><path class="cls-11" d="M1263.81,64.16s-8.08,1.67-10.17,15.73"/><path class="cls-11" d="M1274,69.1s-8.25-.53-14.43,12.42"/><path class="cls-13" d="M1209.12,129.05c3.39-1.39,10-2.23,22.11-1.53a2.11,2.11,0,0,0,1.19-.23c3.42-2.05,20-10.25,20.74-2.46a6.6,6.6,0,0,1-.07,1.08c-.24,5.72-3.62,19-25.84,7.63-7.92-4-14-.89-16.73-.36A2.19,2.19,0,0,1,1209.12,129.05Z"/><line class="cls-1" x1="1247.02" y1="122.9" x2="1247.02" y2="135.57"/><line class="cls-1" x1="1239.09" y1="124.04" x2="1239.09" y2="137.98"/><line class="cls-1" x1="1230.71" y1="127.55" x2="1230.71" y2="135.57"/><line class="cls-1" x1="1222.19" y1="127.27" x2="1222.19" y2="131.01"/><line class="cls-1" x1="1214.72" y1="127.73" x2="1214.72" y2="131.56"/><path class="cls-9" d="M1285.7,448.45c1.54,2.51.9,5.18,0,8.65-2.15,8.29-9.48,20.84-18,20.76-10.91-.1-19-19-16-30.28C1258.65,439.33,1281,440.74,1285.7,448.45Z"/><path class="cls-2" d="M1245,438c21.19.5,26,1,48-.5.79,4.51-10,13.61-21.93,14.5C1258.73,452.91,1244.54,442.62,1245,438Z"/><path class="cls-9" d="M1212.51,462.52l-37.43-2.72s5.35,10.23-41.88,28.65c0,0-11.58,8.87,9.8,6.82h39.21l4.46-19.78h16L1200.93,498h11.58S1215.18,479.58,1212.51,462.52Z"/><polygon class="cls-9" points="1211.88 437.77 1170.07 437.77 1171.93 451.94 1211.88 451.94 1211.88 437.77"/></g><g id="Layer_3" data-name="Layer 3"><path class="cls-1" d="M952.84,123.36s-14.58,35.4,10.15,55"/><ellipse class="cls-1" cx="887" cy="248.87" rx="2.02" ry="1.91"/><path class="cls-2" d="M963,178.36S970.6,412,939.53,437H905.28S872.94,335.72,890.7,315c0,0-26,49.55-29.81,115.44L833,429.38s-58.35-141.57-17.76-298.94c0,0,39.95-12,43.76-76.77l72.93,5.44s-9.52,46.29,20.92,64.25"/><ellipse class="cls-3" cx="882.38" cy="243.43" rx="1.73" ry="1.63"/><line class="cls-4" x1="847.15" y1="278.28" x2="850.95" y2="283.93"/><line class="cls-4" x1="866.18" y1="281.11" x2="862.27" y2="286.76"/><line class="cls-4" x1="909.17" y1="278.28" x2="905.26" y2="283.93"/><line class="cls-4" x1="893.55" y1="281.14" x2="898.13" y2="286.73"/><line class="cls-4" x1="869.91" y1="278.28" x2="873.71" y2="283.93"/><line class="cls-4" x1="887.68" y1="278.28" x2="883.76" y2="283.93"/><line class="cls-4" x1="912.51" y1="282.75" x2="917.1" y2="288.35"/><line class="cls-4" x1="853.54" y1="284.34" x2="849.62" y2="289.99"/><line class="cls-4" x1="858.53" y1="286.76" x2="862.33" y2="292.42"/><line class="cls-4" x1="872.05" y1="286.79" x2="876.11" y2="288.64"/><line class="cls-4" x1="888.91" y1="285.01" x2="887.06" y2="287.19"/><line class="cls-4" x1="880.9" y1="286.79" x2="885.48" y2="292.39"/><line class="cls-4" x1="891.47" y1="286.77" x2="887.56" y2="292.42"/><line class="cls-4" x1="907.73" y1="286.87" x2="901.64" y2="292.32"/><line class="cls-4" x1="848.42" y1="291.61" x2="852.21" y2="297.27"/><line class="cls-4" x1="856.88" y1="292.45" x2="860.93" y2="294.3"/><line class="cls-4" x1="876.1" y1="291.52" x2="867.59" y2="295.64"/><line class="cls-4" x1="919.06" y1="309.85" x2="914.83" y2="304.23"/><line class="cls-4" x1="899.83" y1="307.23" x2="903.3" y2="301.54"/><line class="cls-4" x1="857.07" y1="310.55" x2="860.54" y2="304.86"/><line class="cls-4" x1="872.47" y1="307.52" x2="867.46" y2="301.98"/><line class="cls-4" x1="896.31" y1="310.11" x2="892.08" y2="304.5"/><line class="cls-4" x1="878.56" y1="310.31" x2="882.03" y2="304.61"/><line class="cls-4" x1="853.39" y1="306.12" x2="848.37" y2="300.58"/><line class="cls-4" x1="912.21" y1="303.86" x2="915.69" y2="298.16"/><line class="cls-4" x1="907.03" y1="301.49" x2="902.8" y2="295.88"/><line class="cls-4" x1="893.52" y1="301.62" x2="889.32" y2="299.82"/><line class="cls-4" x1="876.81" y1="303.59" x2="878.48" y2="301.4"/><line class="cls-4" x1="884.67" y1="301.72" x2="879.66" y2="296.18"/><line class="cls-4" x1="874.11" y1="301.87" x2="877.58" y2="296.18"/><line class="cls-4" x1="857.85" y1="301.95" x2="863.51" y2="296.44"/><line class="cls-4" x1="916.77" y1="296.53" x2="912.54" y2="290.92"/><line class="cls-4" x1="908.25" y1="295.79" x2="904.05" y2="293.99"/><line class="cls-4" x1="889.11" y1="296.94" x2="897.3" y2="292.72"/><line class="cls-4" x1="922.81" y1="323.31" x2="918.58" y2="317.7"/><line class="cls-4" x1="903.57" y1="320.7" x2="907.05" y2="315"/><line class="cls-4" x1="860.82" y1="324.02" x2="864.29" y2="318.32"/><line class="cls-4" x1="876.22" y1="320.98" x2="871.2" y2="315.44"/><line class="cls-4" x1="900.06" y1="323.57" x2="895.83" y2="317.96"/><line class="cls-4" x1="882.3" y1="323.77" x2="885.78" y2="318.08"/><line class="cls-4" x1="857.13" y1="319.58" x2="852.12" y2="314.04"/><line class="cls-4" x1="915.96" y1="317.32" x2="919.44" y2="311.63"/><line class="cls-4" x1="910.78" y1="314.96" x2="906.55" y2="309.35"/><line class="cls-4" x1="897.27" y1="315.08" x2="893.07" y2="313.28"/><line class="cls-4" x1="880.55" y1="317.06" x2="882.23" y2="314.86"/><line class="cls-4" x1="888.42" y1="315.18" x2="883.41" y2="309.64"/><line class="cls-4" x1="877.86" y1="315.33" x2="881.33" y2="309.64"/><line class="cls-4" x1="861.59" y1="315.42" x2="867.26" y2="309.9"/><line class="cls-4" x1="920.51" y1="309.99" x2="916.29" y2="304.38"/><line class="cls-4" x1="912" y1="309.25" x2="907.8" y2="307.45"/><line class="cls-4" x1="892.85" y1="310.4" x2="901.04" y2="306.18"/><path class="cls-2" d="M815,130.19c-24.3,9.91-96.17,43.4-52,77.63,48.93,37.88,51.83,24.39,52,22.27,0-.22,0-.44.07-.65l2.37-14.61c.32-2-.93-4-3.16-4.9a186.41,186.41,0,0,1-23.5-12.13c-4.21-2.55-2.55-8,2.73-8.81,9.86-1.5,20.9-7.21,24.42-24.44a3.05,3.05,0,0,1-.52-.05"/><path class="cls-1" d="M945,146.25c-.47,20.53,1.48,48.35,17.42,31.6"/><path class="cls-1" d="M946.06,127.4s-.87,8.5-1.11,18.85"/><path class="cls-2" d="M962.37,177.85c4.32-4.54,9.68-12.37,16.29-24.52,0,0,36.76-78.92,0-144.31,0,0-38.53-1.69-37.94,26.49s10.67,32.7,10.67,32.7,9.49-1.13,16.6-21.42c0,0-27.27,67.64-21.93,80.61"/><path class="cls-1" d="M959.34,154.51c-.48.42,0,4.41,0,4.41"/><path class="cls-1" d="M963.37,156.13c-.52,0-2.61,3-2.61,3"/><path class="cls-1" d="M960.18,160.73c.08.68,3.63,2.25,3.63,2.25"/><path class="cls-1" d="M962.29,163.11c.17-.62-2.36-3.65-2.36-3.65"/><path class="cls-1" d="M958.07,164.12c.42-.33.54-4,.54-4"/><path class="cls-1" d="M958.26,158.44c-.43-.51-4.22.25-4.22.25"/><path class="cls-1" d="M960.64,163c0-.65-3-3-3-3"/><path class="cls-1" d="M956.73,164.93c.34-.42-.29-4.07-.29-4.07"/><path class="cls-1" d="M955.76,159.33c-.53-.4-4.07,1.18-4.07,1.18"/><path class="cls-1" d="M956.57,154.91c-.15.63,2.45,3.59,2.45,3.59"/><path class="cls-1" d="M960.76,153.79c-.41.34-.43,4.05-.43,4.05"/><path class="cls-1" d="M960.72,159.47c.44.49,4.21-.37,4.21-.37"/><path class="cls-1" d="M965.69,157.78c-.47.42,0,4.4,0,4.4"/><path class="cls-1" d="M969.73,159.39c-.53,0-2.61,3.05-2.61,3.05"/><path class="cls-1" d="M966.53,164c.09.67,3.64,2.24,3.64,2.24"/><path class="cls-1" d="M968.64,166.38c.17-.62-2.36-3.65-2.36-3.65"/><path class="cls-1" d="M964.43,167.39c.41-.33.53-4,.53-4"/><path class="cls-1" d="M964.61,161.71c-.43-.51-4.22.25-4.22.25"/><path class="cls-1" d="M967,166.28c0-.65-3-3.05-3-3.05"/><path class="cls-1" d="M963.08,168.19c.35-.41-.29-4.07-.29-4.07"/><path class="cls-1" d="M962.11,162.6c-.52-.4-4.07,1.18-4.07,1.18"/><path class="cls-1" d="M962.93,158.17c-.16.63,2.45,3.59,2.45,3.59"/><path class="cls-1" d="M967.11,157.05c-.41.35-.43,4.06-.43,4.06"/><path class="cls-1" d="M967.07,162.74c.45.49,4.21-.37,4.21-.37"/><path class="cls-1" d="M964,152.34c-.48.42,0,4.4,0,4.4"/><path class="cls-1" d="M968,154c-.52,0-2.61,3-2.61,3"/><path class="cls-1" d="M964.8,158.56c.08.67,3.64,2.24,3.64,2.24"/><path class="cls-1" d="M966.91,160.94c.17-.63-2.36-3.66-2.36-3.66"/><path class="cls-1" d="M962.69,161.94c.42-.33.54-4,.54-4"/><path class="cls-1" d="M962.88,156.26c-.43-.5-4.22.26-4.22.26"/><path class="cls-1" d="M965.26,160.83c0-.64-3-3.05-3-3.05"/><path class="cls-1" d="M961.35,162.75c.34-.42-.29-4.07-.29-4.07"/><path class="cls-1" d="M960.38,157.15c-.53-.4-4.07,1.18-4.07,1.18"/><path class="cls-1" d="M961.19,152.73c-.15.63,2.45,3.59,2.45,3.59"/><path class="cls-1" d="M965.38,151.61c-.41.34-.43,4-.43,4"/><path class="cls-1" d="M965.34,157.29c.44.5,4.21-.37,4.21-.37"/><path class="cls-1" d="M964,155.6c-.48.42,0,4.41,0,4.41"/><path class="cls-1" d="M968,157.22c-.52,0-2.61,3-2.61,3"/><path class="cls-1" d="M964.8,161.82c.08.67,3.64,2.25,3.64,2.25"/><path class="cls-1" d="M966.91,164.2c.17-.62-2.36-3.65-2.36-3.65"/><path class="cls-1" d="M962.69,165.21c.42-.33.54-4,.54-4"/><path class="cls-1" d="M962.88,159.53c-.43-.51-4.22.25-4.22.25"/><path class="cls-1" d="M965.26,164.1c0-.65-3-3-3-3"/><path class="cls-1" d="M961.35,166c.34-.41-.29-4.06-.29-4.06"/><path class="cls-1" d="M960.38,160.42c-.53-.4-4.07,1.18-4.07,1.18"/><path class="cls-1" d="M961.19,156c-.15.63,2.45,3.59,2.45,3.59"/><path class="cls-1" d="M965.38,154.87c-.41.35-.43,4.06-.43,4.06"/><path class="cls-1" d="M965.34,160.56c.44.49,4.21-.37,4.21-.37"/><path class="cls-5" d="M799.94,202.42l-10.83,26.71,19.82,7.13s29.39,15.26,26.38,4.84l-12.88-5.72s20.69,9.37,17.18.4c0,0,11.07,3.79,1.56-6.92l-10.57-5.24s10.74-2.47,4.42-10.46c0,0-4.63-.94-15.87,3Z"/><path class="cls-2" d="M842.82,236.62l-11.55-3.81Z"/><path class="cls-2" d="M951.27,146.23s39.3,49.55-24.56,62.62c0,0-51.93,2.72-43.51-36.48,0,0,16.14,37.57-43.5,43.56,0,0-56.6.49-33-40.79,1.2-2.08,2.59-4.28,4.21-6.58"/><path class="cls-6" d="M876.32,151.68s6.93-3.81,6.35,10.34c0,0,.58-11.43,8.66-10.89"/><ellipse class="cls-7" cx="837.91" cy="191.16" rx="5.49" ry="5.17"/><ellipse class="cls-7" cx="935.52" cy="188.43" rx="5.49" ry="5.17"/><path class="cls-8" d="M855,290s42.16-9.25,54.29,1.64L889.6,319.39S878.05,321,855,290Z"/><path class="cls-8" d="M973.63,253.47s-18.73-5.84-65.55,40.33"/><path class="cls-8" d="M795.18,253.28s18.28-2.93,59.77,37.25"/><path class="cls-9" d="M893.26,11.47S774.72,9.16,799.5,114.1c2.91,12.3,18.13,18,29.1,10.8,11.95-7.83,25.57-26,34.32-66.85l64.06,3s-1.69,83,36,58.22C963,119.31,999.47,22.61,893.26,11.47Z"/><path class="cls-10" d="M944.19,57.12s-4,4.38-.07,16.74c0,0-.7,9.84-3.13,9.83"/><path class="cls-10" d="M810.48,123.36s4-2.79,5.2-13.63,7.8-7.34,7.8-7.34"/><path class="cls-10" d="M934.36,70.55s-2.86-2.8-3.7-13.63-5.54-7.34-5.54-7.34"/><path class="cls-10" d="M948.8,83.07s-2.86-2.79-3.7-13.63-5.54-7.34-5.54-7.34"/><path class="cls-10" d="M944.18,105.4s-2.86-2.8-3.7-13.63-5.54-7.34-5.54-7.34"/><path class="cls-10" d="M823.44,114.9s.67-3.83,9.39-10.93,2.93-8.58,2.93-8.58"/><path class="cls-10" d="M805.12,110.71s-.44-3.86,5.94-12.91.39-9,.39-9"/><path class="cls-10" d="M801.58,88.62s-.81-3.8,4.68-13.36-.47-9-.47-9"/><path class="cls-10" d="M846.51,60.71s2.15-3.3,13.07-6.78,6.15-6.9,6.15-6.9"/><path class="cls-10" d="M825.33,94.55s0-3.88,7.27-12.28,1.34-8.93,1.34-8.93"/><path class="cls-10" d="M817.82,78.22s0-3.89,7.27-12.29S826.43,57,826.43,57"/><path class="cls-10" d="M840.92,88.56s0-3.88,7.27-12.28,1.34-8.93,1.34-8.93"/><path class="cls-10" d="M813.68,58.31s.65-3.84,9.32-11,2.89-8.6,2.89-8.6"/><path class="cls-10" d="M838.42,55.87s1.14-3.73,10.68-9.82,4-8.2,4-8.2"/><path class="cls-10" d="M955.88,117s-1-3.76,3.89-13.59-1-9-1-9"/><path class="cls-10" d="M955,95.35s-1.67-3.55,1.46-14-2.55-8.69-2.55-8.69"/><path class="cls-10" d="M835.37,40.6s2.53-3.07,13.78-5.4S856.06,29,856.06,29"/><path class="cls-10" d="M855.5,45.36s2.9-2.76,14.36-3.83,7.65-5.4,7.65-5.4"/><path class="cls-10" d="M840.49,27.94s2.89-2.77,14.36-3.83,7.64-5.41,7.64-5.41"/><path class="cls-10" d="M943.69,48.55s4,.76,11.29,9.2,9,3,9,3"/><path class="cls-10" d="M919.44,31.67s4,.76,11.28,9.2,9,3.05,9,3.05"/><path class="cls-10" d="M897.4,53s3.5-2,14.91-.49S921.1,49,921.1,49"/><path class="cls-10" d="M873.72,49.23s3.51-2,14.91-.49,8.79-3.54,8.79-3.54"/><path class="cls-10" d="M891,38.34s3.51-2,14.92-.49,8.79-3.54,8.79-3.54"/><path class="cls-10" d="M866.21,31.26s3.51-2,14.91-.49,8.79-3.54,8.79-3.54"/><path class="cls-10" d="M897.36,20.46s4-.88,14.31,4,9.53-.73,9.53-.73"/><path class="cls-10" d="M861.76,26s3.35-2.25,14.84-1.44,8.52-4.1,8.52-4.1"/><path class="cls-1" d="M860.74,73.23c5.25-2,17.68-5.6,24.78,1.67a3.38,3.38,0,0,1,1.05,2.17c.08,1.81-1.59,4.56-12.23,4.79h-.21c-1.16.08-12.45.74-15.3-4C857.78,76.06,858.68,74,860.74,73.23Z"/><ellipse class="cls-8" cx="872.12" cy="76.32" rx="3.75" ry="5.74" transform="translate(40.06 348.53) rotate(-23.12)"/><path class="cls-1" d="M899.37,71.86c5.62-.8,18.62-1.6,23.76,7a3.33,3.33,0,0,1,.5,2.34c-.38,1.78-2.68,4.09-13.11,2l-.21,0c-1.15-.17-12.33-2-13.93-7.26C895.79,74,897.18,72.17,899.37,71.86Z"/><ellipse class="cls-8" cx="909.71" cy="77.34" rx="3.79" ry="5.7" transform="translate(-1.82 128.97) rotate(-8.1)"/><path class="cls-11" d="M853.2,57s8.16,1.28,11,15.22"/><polyline class="cls-6" points="890.47 83.07 886.43 108.66 895.09 108.66"/><path class="cls-12" d="M860.15,90.15s-2.89-7.08,11.55,0C871.7,90.15,874.59,96.14,860.15,90.15Z"/><path class="cls-12" d="M904.86,95.43s-6.11-4.94,10.16-5.17C915,90.26,920.58,94.23,904.86,95.43Z"/><path class="cls-11" d="M860.55,54.53s8.08,1.67,10.17,15.73"/><path class="cls-11" d="M871,53.71s7.55,3.18,6.57,17.35"/><path class="cls-11" d="M882,54.79s6.2,5.1.87,18.18"/><path class="cls-11" d="M901.44,54.32s-6.65,4.58-2.54,18"/><path class="cls-11" d="M910.59,53.71S903,56.89,904,71.06"/><path class="cls-11" d="M919.81,56.16s-8.08,1.67-10.17,15.73"/><path class="cls-11" d="M930,61.1s-8.25-.53-14.43,12.42"/><path class="cls-13" d="M865.12,121.05c3.39-1.39,10-2.23,22.11-1.53a2.11,2.11,0,0,0,1.19-.23c3.42-2.05,20-10.25,20.74-2.46a6.6,6.6,0,0,1-.07,1.08c-.24,5.72-3.62,19-25.84,7.63-7.92-4-14-.89-16.73-.36A2.19,2.19,0,0,1,865.12,121.05Z"/><line class="cls-1" x1="903.02" y1="114.9" x2="903.02" y2="127.57"/><line class="cls-1" x1="895.09" y1="116.04" x2="895.09" y2="129.98"/><line class="cls-1" x1="886.71" y1="119.55" x2="886.71" y2="127.57"/><line class="cls-1" x1="878.19" y1="119.27" x2="878.19" y2="123.01"/><line class="cls-1" x1="870.72" y1="119.73" x2="870.72" y2="123.56"/><path class="cls-9" d="M897.56,454,935,450.83s-5.34,11.83,41.89,33.13c0,0,11.58,10.25-9.8,7.89H927.86L923.4,469h-16l1.78,26H897.56S894.88,473.71,897.56,454Z"/><polygon class="cls-9" points="812.34 429 869.09 429 866.56 445.38 812.34 445.38 812.34 429"/><polygon class="cls-9" points="938.18 429 896.37 429 898.23 445.38 938.18 445.38 938.18 429"/><path class="cls-9" d="M808.32,412.07c17.68-1.39,40.37,18.67,54.68,54.69-3,16.13-21.68,12-46.1,10.58C800.91,439.94,800.82,417.36,808.32,412.07Z"/></g><g id="Layer_2" data-name="Layer 2"><path class="cls-1" d="M600.84,124.36s-14.58,35.4,10.15,55"/><ellipse class="cls-1" cx="535" cy="249.87" rx="2.02" ry="1.91"/><path class="cls-2" d="M611,179.36S618.6,413,587.53,438H553.28S520.94,336.72,538.7,316c0,0-26,49.55-29.81,115.44L481,430.38s-58.35-141.57-17.76-298.94c0,0,39.95-12,43.76-76.77l72.93,5.44s-9.52,46.29,20.92,64.25"/><ellipse class="cls-3" cx="530.38" cy="244.43" rx="1.73" ry="1.63"/><line class="cls-4" x1="495.15" y1="279.28" x2="498.95" y2="284.93"/><line class="cls-4" x1="514.18" y1="282.11" x2="510.27" y2="287.76"/><line class="cls-4" x1="557.17" y1="279.28" x2="553.26" y2="284.93"/><line class="cls-4" x1="541.55" y1="282.14" x2="546.13" y2="287.73"/><line class="cls-4" x1="517.91" y1="279.28" x2="521.71" y2="284.93"/><line class="cls-4" x1="535.68" y1="279.28" x2="531.76" y2="284.93"/><line class="cls-4" x1="560.51" y1="283.75" x2="565.1" y2="289.35"/><line class="cls-4" x1="501.54" y1="285.34" x2="497.62" y2="290.99"/><line class="cls-4" x1="506.53" y1="287.76" x2="510.33" y2="293.42"/><line class="cls-4" x1="520.05" y1="287.79" x2="524.11" y2="289.64"/><line class="cls-4" x1="536.91" y1="286.01" x2="535.06" y2="288.19"/><line class="cls-4" x1="528.9" y1="287.79" x2="533.48" y2="293.39"/><line class="cls-4" x1="539.47" y1="287.77" x2="535.56" y2="293.42"/><line class="cls-4" x1="555.73" y1="287.87" x2="549.64" y2="293.32"/><line class="cls-4" x1="496.42" y1="292.61" x2="500.21" y2="298.27"/><line class="cls-4" x1="504.88" y1="293.45" x2="508.93" y2="295.3"/><line class="cls-4" x1="524.1" y1="292.52" x2="515.59" y2="296.64"/><line class="cls-4" x1="567.06" y1="310.85" x2="562.83" y2="305.23"/><line class="cls-4" x1="547.83" y1="308.23" x2="551.3" y2="302.54"/><line class="cls-4" x1="505.07" y1="311.55" x2="508.54" y2="305.86"/><line class="cls-4" x1="520.47" y1="308.52" x2="515.46" y2="302.98"/><line class="cls-4" x1="544.31" y1="311.11" x2="540.08" y2="305.5"/><line class="cls-4" x1="526.56" y1="311.31" x2="530.03" y2="305.61"/><line class="cls-4" x1="501.39" y1="307.12" x2="496.37" y2="301.58"/><line class="cls-4" x1="560.21" y1="304.86" x2="563.69" y2="299.16"/><line class="cls-4" x1="555.03" y1="302.49" x2="550.8" y2="296.88"/><line class="cls-4" x1="541.52" y1="302.62" x2="537.32" y2="300.82"/><line class="cls-4" x1="524.81" y1="304.59" x2="526.48" y2="302.4"/><line class="cls-4" x1="532.67" y1="302.72" x2="527.66" y2="297.18"/><line class="cls-4" x1="522.11" y1="302.87" x2="525.58" y2="297.18"/><line class="cls-4" x1="505.85" y1="302.95" x2="511.51" y2="297.44"/><line class="cls-4" x1="564.77" y1="297.53" x2="560.54" y2="291.92"/><line class="cls-4" x1="556.25" y1="296.79" x2="552.05" y2="294.99"/><line class="cls-4" x1="537.11" y1="297.94" x2="545.3" y2="293.72"/><line class="cls-4" x1="570.81" y1="324.31" x2="566.58" y2="318.7"/><line class="cls-4" x1="551.57" y1="321.7" x2="555.05" y2="316"/><line class="cls-4" x1="508.82" y1="325.02" x2="512.29" y2="319.32"/><line class="cls-4" x1="524.22" y1="321.98" x2="519.2" y2="316.44"/><line class="cls-4" x1="548.06" y1="324.57" x2="543.83" y2="318.96"/><line class="cls-4" x1="530.3" y1="324.77" x2="533.78" y2="319.08"/><line class="cls-4" x1="505.13" y1="320.58" x2="500.12" y2="315.04"/><line class="cls-4" x1="563.96" y1="318.32" x2="567.44" y2="312.63"/><line class="cls-4" x1="558.78" y1="315.96" x2="554.55" y2="310.35"/><line class="cls-4" x1="545.27" y1="316.08" x2="541.07" y2="314.28"/><line class="cls-4" x1="528.55" y1="318.06" x2="530.23" y2="315.86"/><line class="cls-4" x1="536.42" y1="316.18" x2="531.41" y2="310.64"/><line class="cls-4" x1="525.86" y1="316.33" x2="529.33" y2="310.64"/><line class="cls-4" x1="509.59" y1="316.42" x2="515.26" y2="310.9"/><line class="cls-4" x1="568.51" y1="310.99" x2="564.29" y2="305.38"/><line class="cls-4" x1="560" y1="310.25" x2="555.8" y2="308.45"/><line class="cls-4" x1="540.85" y1="311.4" x2="549.04" y2="307.18"/><path class="cls-2" d="M463,131.19c-24.3,9.91-96.17,43.4-52,77.63,48.93,37.88,51.83,24.39,52,22.27,0-.22,0-.44.07-.65l2.37-14.61c.32-2-.93-4-3.16-4.9a186.41,186.41,0,0,1-23.5-12.13c-4.21-2.55-2.55-8,2.73-8.81,9.86-1.5,20.9-7.21,24.42-24.44a3.05,3.05,0,0,1-.52-.05"/><path class="cls-1" d="M593,147.25c-.47,20.53,1.48,48.35,17.42,31.6"/><path class="cls-1" d="M594.06,128.4s-.87,8.5-1.11,18.85"/><path class="cls-2" d="M610.37,178.85c4.32-4.54,9.68-12.37,16.29-24.52,0,0,36.76-78.92,0-144.31,0,0-38.53-1.69-37.94,26.49s10.67,32.7,10.67,32.7,9.49-1.13,16.6-21.42c0,0-27.27,67.64-21.93,80.61"/><path class="cls-1" d="M607.34,155.51c-.48.42,0,4.41,0,4.41"/><path class="cls-1" d="M611.37,157.13c-.52,0-2.61,3-2.61,3"/><path class="cls-1" d="M608.18,161.73c.08.68,3.63,2.25,3.63,2.25"/><path class="cls-1" d="M610.29,164.11c.17-.62-2.36-3.65-2.36-3.65"/><path class="cls-1" d="M606.07,165.12c.42-.33.54-4,.54-4"/><path class="cls-1" d="M606.26,159.44c-.43-.51-4.22.25-4.22.25"/><path class="cls-1" d="M608.64,164c0-.65-3-3-3-3"/><path class="cls-1" d="M604.73,165.93c.34-.42-.29-4.07-.29-4.07"/><path class="cls-1" d="M603.76,160.33c-.53-.4-4.07,1.18-4.07,1.18"/><path class="cls-1" d="M604.57,155.91c-.15.63,2.45,3.59,2.45,3.59"/><path class="cls-1" d="M608.76,154.79c-.41.34-.43,4.05-.43,4.05"/><path class="cls-1" d="M608.72,160.47c.44.49,4.21-.37,4.21-.37"/><path class="cls-1" d="M613.69,158.78c-.47.42,0,4.4,0,4.4"/><path class="cls-1" d="M617.73,160.39c-.53,0-2.61,3.05-2.61,3.05"/><path class="cls-1" d="M614.53,165c.09.67,3.64,2.24,3.64,2.24"/><path class="cls-1" d="M616.64,167.38c.17-.62-2.36-3.65-2.36-3.65"/><path class="cls-1" d="M612.43,168.39c.41-.33.53-4,.53-4"/><path class="cls-1" d="M612.61,162.71c-.43-.51-4.22.25-4.22.25"/><path class="cls-1" d="M615,167.28c0-.65-3-3.05-3-3.05"/><path class="cls-1" d="M611.08,169.19c.35-.41-.29-4.07-.29-4.07"/><path class="cls-1" d="M610.11,163.6c-.52-.4-4.07,1.18-4.07,1.18"/><path class="cls-1" d="M610.93,159.17c-.16.63,2.45,3.59,2.45,3.59"/><path class="cls-1" d="M615.11,158.05c-.41.35-.43,4.06-.43,4.06"/><path class="cls-1" d="M615.07,163.74c.45.49,4.21-.37,4.21-.37"/><path class="cls-1" d="M612,153.34c-.48.42,0,4.4,0,4.4"/><path class="cls-1" d="M616,155c-.52,0-2.61,3-2.61,3"/><path class="cls-1" d="M612.8,159.56c.08.67,3.64,2.24,3.64,2.24"/><path class="cls-1" d="M614.91,161.94c.17-.63-2.36-3.66-2.36-3.66"/><path class="cls-1" d="M610.69,162.94c.42-.33.54-4,.54-4"/><path class="cls-1" d="M610.88,157.26c-.43-.5-4.22.26-4.22.26"/><path class="cls-1" d="M613.26,161.83c0-.64-3-3.05-3-3.05"/><path class="cls-1" d="M609.35,163.75c.34-.42-.29-4.07-.29-4.07"/><path class="cls-1" d="M608.38,158.15c-.53-.4-4.07,1.18-4.07,1.18"/><path class="cls-1" d="M609.19,153.73c-.15.63,2.45,3.59,2.45,3.59"/><path class="cls-1" d="M613.38,152.61c-.41.34-.43,4-.43,4"/><path class="cls-1" d="M613.34,158.29c.44.5,4.21-.37,4.21-.37"/><path class="cls-1" d="M612,156.6c-.48.42,0,4.41,0,4.41"/><path class="cls-1" d="M616,158.22c-.52,0-2.61,3-2.61,3"/><path class="cls-1" d="M612.8,162.82c.08.67,3.64,2.25,3.64,2.25"/><path class="cls-1" d="M614.91,165.2c.17-.62-2.36-3.65-2.36-3.65"/><path class="cls-1" d="M610.69,166.21c.42-.33.54-4,.54-4"/><path class="cls-1" d="M610.88,160.53c-.43-.51-4.22.25-4.22.25"/><path class="cls-1" d="M613.26,165.1c0-.65-3-3-3-3"/><path class="cls-1" d="M609.35,167c.34-.41-.29-4.06-.29-4.06"/><path class="cls-1" d="M608.38,161.42c-.53-.4-4.07,1.18-4.07,1.18"/><path class="cls-1" d="M609.19,157c-.15.63,2.45,3.59,2.45,3.59"/><path class="cls-1" d="M613.38,155.87c-.41.35-.43,4.06-.43,4.06"/><path class="cls-1" d="M613.34,161.56c.44.49,4.21-.37,4.21-.37"/><path class="cls-5" d="M447.94,203.42l-10.83,26.71,19.82,7.13s29.39,15.26,26.38,4.84l-12.88-5.72s20.69,9.37,17.18.4c0,0,11.07,3.79,1.56-6.92l-10.57-5.24s10.74-2.47,4.42-10.46c0,0-4.63-.94-15.87,3Z"/><path class="cls-2" d="M490.82,237.62l-11.55-3.81Z"/><path class="cls-2" d="M599.27,147.23s39.3,49.55-24.56,62.62c0,0-51.93,2.72-43.51-36.48,0,0,16.14,37.57-43.5,43.56,0,0-56.6.49-33-40.79,1.2-2.08,2.59-4.28,4.21-6.58"/><path class="cls-6" d="M524.32,152.68s6.93-3.81,6.35,10.34c0,0,.58-11.43,8.66-10.89"/><ellipse class="cls-7" cx="485.91" cy="192.16" rx="5.49" ry="5.17"/><ellipse class="cls-7" cx="583.52" cy="189.43" rx="5.49" ry="5.17"/><path class="cls-8" d="M503,291s42.16-9.25,54.29,1.64L537.6,320.39S526.05,322,503,291Z"/><path class="cls-8" d="M621.63,254.47s-18.73-5.84-65.55,40.33"/><path class="cls-8" d="M443.18,254.28s18.28-2.93,59.77,37.25"/><path class="cls-9" d="M541.26,12.47S422.72,10.16,447.5,115.1c2.91,12.3,18.13,18,29.1,10.8,11.95-7.83,25.57-26,34.32-66.85l64.06,3s-1.69,83,36,58.22C611,120.31,647.47,23.61,541.26,12.47Z"/><path class="cls-10" d="M592.19,58.12s-4,4.38-.07,16.74c0,0-.7,9.84-3.13,9.83"/><path class="cls-10" d="M458.48,124.36s4-2.79,5.2-13.63,7.8-7.34,7.8-7.34"/><path class="cls-10" d="M582.36,71.55s-2.86-2.8-3.7-13.63-5.54-7.34-5.54-7.34"/><path class="cls-10" d="M596.8,84.07s-2.86-2.79-3.7-13.63-5.54-7.34-5.54-7.34"/><path class="cls-10" d="M592.18,106.4s-2.86-2.8-3.7-13.63-5.54-7.34-5.54-7.34"/><path class="cls-10" d="M471.44,115.9s.67-3.83,9.39-10.93,2.93-8.58,2.93-8.58"/><path class="cls-10" d="M453.12,111.71s-.44-3.86,5.94-12.91.39-9,.39-9"/><path class="cls-10" d="M449.58,89.62s-.81-3.8,4.68-13.36-.47-9-.47-9"/><path class="cls-10" d="M494.51,61.71s2.15-3.3,13.07-6.78,6.15-6.9,6.15-6.9"/><path class="cls-10" d="M473.33,95.55s0-3.88,7.27-12.28,1.34-8.93,1.34-8.93"/><path class="cls-10" d="M465.82,79.22s0-3.89,7.27-12.29S474.43,58,474.43,58"/><path class="cls-10" d="M488.92,89.56s0-3.88,7.27-12.28,1.34-8.93,1.34-8.93"/><path class="cls-10" d="M461.68,59.31s.65-3.84,9.32-11,2.89-8.6,2.89-8.6"/><path class="cls-10" d="M486.42,56.87s1.14-3.73,10.68-9.82,4-8.2,4-8.2"/><path class="cls-10" d="M603.88,118s-1-3.76,3.89-13.59-1-9-1-9"/><path class="cls-10" d="M603,96.35s-1.67-3.55,1.46-14-2.55-8.69-2.55-8.69"/><path class="cls-10" d="M483.37,41.6s2.53-3.07,13.78-5.4S504.06,30,504.06,30"/><path class="cls-10" d="M503.5,46.36s2.9-2.76,14.36-3.83,7.65-5.4,7.65-5.4"/><path class="cls-10" d="M488.49,28.94s2.89-2.77,14.36-3.83,7.64-5.41,7.64-5.41"/><path class="cls-10" d="M591.69,49.55s4,.76,11.29,9.2,9,3,9,3"/><path class="cls-10" d="M567.44,32.67s4,.76,11.28,9.2,9,3.05,9,3.05"/><path class="cls-10" d="M545.4,54s3.5-2,14.91-.49S569.1,50,569.1,50"/><path class="cls-10" d="M521.72,50.23s3.51-2,14.91-.49,8.79-3.54,8.79-3.54"/><path class="cls-10" d="M539,39.34s3.51-2,14.92-.49,8.79-3.54,8.79-3.54"/><path class="cls-10" d="M514.21,32.26s3.51-2,14.91-.49,8.79-3.54,8.79-3.54"/><path class="cls-10" d="M545.36,21.46s4-.88,14.31,4,9.53-.73,9.53-.73"/><path class="cls-10" d="M509.76,27s3.35-2.25,14.84-1.44,8.52-4.1,8.52-4.1"/><path class="cls-1" d="M508.74,74.23c5.25-2,17.68-5.6,24.78,1.67a3.38,3.38,0,0,1,1.05,2.17c.08,1.81-1.59,4.56-12.23,4.79h-.21c-1.16.08-12.45.74-15.3-4C505.78,77.06,506.68,75,508.74,74.23Z"/><ellipse class="cls-8" cx="520.12" cy="77.32" rx="3.75" ry="5.74" transform="translate(11.41 210.41) rotate(-23.12)"/><path class="cls-1" d="M547.37,72.86c5.62-.8,18.62-1.6,23.76,7a3.33,3.33,0,0,1,.5,2.34c-.38,1.78-2.68,4.09-13.11,2l-.21,0c-1.15-.17-12.33-2-13.93-7.26C543.79,75,545.18,73.17,547.37,72.86Z"/><ellipse class="cls-8" cx="557.71" cy="78.34" rx="3.79" ry="5.7" transform="translate(-5.47 79.38) rotate(-8.1)"/><path class="cls-11" d="M501.2,58s8.16,1.28,11,15.22"/><polyline class="cls-6" points="538.47 84.07 534.43 109.66 543.09 109.66"/><path class="cls-12" d="M508.15,91.15s-2.89-7.08,11.55,0C519.7,91.15,522.59,97.14,508.15,91.15Z"/><path class="cls-12" d="M552.86,96.43s-6.11-4.94,10.16-5.17C563,91.26,568.58,95.23,552.86,96.43Z"/><path class="cls-11" d="M508.55,55.53s8.08,1.67,10.17,15.73"/><path class="cls-11" d="M519,54.71s7.55,3.18,6.57,17.35"/><path class="cls-11" d="M530,55.79s6.2,5.1.87,18.18"/><path class="cls-11" d="M549.44,55.32s-6.65,4.58-2.54,18"/><path class="cls-11" d="M558.59,54.71S551,57.89,552,72.06"/><path class="cls-11" d="M567.81,57.16s-8.08,1.67-10.17,15.73"/><path class="cls-11" d="M578,62.1s-8.25-.53-14.43,12.42"/><path class="cls-13" d="M513.12,122.05c3.39-1.39,10-2.23,22.11-1.53a2.11,2.11,0,0,0,1.19-.23c3.42-2.05,20-10.25,20.74-2.46a6.6,6.6,0,0,1-.07,1.08c-.24,5.72-3.62,19-25.84,7.63-7.92-4-14-.89-16.73-.36A2.19,2.19,0,0,1,513.12,122.05Z"/><line class="cls-1" x1="551.02" y1="115.9" x2="551.02" y2="128.57"/><line class="cls-1" x1="543.09" y1="117.04" x2="543.09" y2="130.98"/><line class="cls-1" x1="534.71" y1="120.55" x2="534.71" y2="128.57"/><line class="cls-1" x1="526.19" y1="120.27" x2="526.19" y2="124.01"/><line class="cls-1" x1="518.72" y1="120.73" x2="518.72" y2="124.56"/><path class="cls-9" d="M476,425c-1.54,2.91-.9,6,0,10,2.15,9.58,9.48,24.09,18,24,10.91-.11,19-22,16-35C503.05,414.46,480.73,416.09,476,425Z"/><path class="cls-2" d="M473,413c16.33.5,20.05,1,37-.5.61,4.51-7.69,13.61-16.91,14.5C483.59,427.91,472.65,417.62,473,413Z"/><path class="cls-9" d="M549.19,454l37.43-3.16S581.27,462.66,628.5,484c0,0,11.58,10.25-9.8,7.89H579.49L575,469H559l1.78,26H549.19S546.51,473.71,549.19,454Z"/><polygon class="cls-9" points="547.82 430 589.63 430 587.77 446.38 547.82 446.38 547.82 430"/></g><g id="Layer_1" data-name="Layer 1"><path class="cls-1" d="M251.84,122.36s-14.58,35.4,10.15,55"/><ellipse class="cls-1" cx="186" cy="247.87" rx="2.02" ry="1.91"/><path class="cls-2" d="M262,177.36S269.6,411,238.53,436H204.28S171.94,334.72,189.7,314c0,0-26,49.55-29.81,115.44L132,428.38S73.64,286.81,114.23,129.44c0,0,40-12,43.76-76.77l72.93,5.44s-9.52,46.29,20.92,64.25"/><ellipse class="cls-3" cx="181.38" cy="242.43" rx="1.73" ry="1.63"/><line class="cls-4" x1="146.15" y1="277.28" x2="149.95" y2="282.93"/><line class="cls-4" x1="165.18" y1="280.11" x2="161.27" y2="285.76"/><line class="cls-4" x1="208.17" y1="277.28" x2="204.26" y2="282.93"/><line class="cls-4" x1="192.55" y1="280.14" x2="197.13" y2="285.73"/><line class="cls-4" x1="168.91" y1="277.28" x2="172.71" y2="282.93"/><line class="cls-4" x1="186.68" y1="277.28" x2="182.76" y2="282.93"/><line class="cls-4" x1="211.51" y1="281.75" x2="216.1" y2="287.35"/><line class="cls-4" x1="152.54" y1="283.34" x2="148.62" y2="288.99"/><line class="cls-4" x1="157.53" y1="285.76" x2="161.33" y2="291.42"/><line class="cls-4" x1="171.05" y1="285.79" x2="175.11" y2="287.64"/><line class="cls-4" x1="187.91" y1="284.01" x2="186.06" y2="286.19"/><line class="cls-4" x1="179.9" y1="285.79" x2="184.48" y2="291.39"/><line class="cls-4" x1="190.47" y1="285.77" x2="186.56" y2="291.42"/><line class="cls-4" x1="206.73" y1="285.87" x2="200.64" y2="291.32"/><line class="cls-4" x1="147.42" y1="290.61" x2="151.21" y2="296.27"/><line class="cls-4" x1="155.88" y1="291.45" x2="159.93" y2="293.3"/><line class="cls-4" x1="175.1" y1="290.52" x2="166.59" y2="294.64"/><line class="cls-4" x1="218.06" y1="308.85" x2="213.83" y2="303.23"/><line class="cls-4" x1="198.83" y1="306.23" x2="202.3" y2="300.54"/><line class="cls-4" x1="156.07" y1="309.55" x2="159.54" y2="303.86"/><line class="cls-4" x1="171.47" y1="306.52" x2="166.46" y2="300.98"/><line class="cls-4" x1="195.31" y1="309.11" x2="191.08" y2="303.5"/><line class="cls-4" x1="177.56" y1="309.31" x2="181.03" y2="303.61"/><line class="cls-4" x1="152.39" y1="305.12" x2="147.37" y2="299.58"/><line class="cls-4" x1="211.21" y1="302.86" x2="214.69" y2="297.16"/><line class="cls-4" x1="206.03" y1="300.49" x2="201.8" y2="294.88"/><line class="cls-4" x1="192.52" y1="300.62" x2="188.32" y2="298.82"/><line class="cls-4" x1="175.81" y1="302.59" x2="177.48" y2="300.4"/><line class="cls-4" x1="183.67" y1="300.72" x2="178.66" y2="295.18"/><line class="cls-4" x1="173.11" y1="300.87" x2="176.58" y2="295.18"/><line class="cls-4" x1="156.85" y1="300.95" x2="162.51" y2="295.44"/><line class="cls-4" x1="215.77" y1="295.53" x2="211.54" y2="289.92"/><line class="cls-4" x1="207.25" y1="294.79" x2="203.05" y2="292.99"/><line class="cls-4" x1="188.11" y1="295.94" x2="196.3" y2="291.72"/><line class="cls-4" x1="221.81" y1="322.31" x2="217.58" y2="316.7"/><line class="cls-4" x1="202.57" y1="319.7" x2="206.05" y2="314"/><line class="cls-4" x1="159.82" y1="323.02" x2="163.29" y2="317.32"/><line class="cls-4" x1="175.22" y1="319.98" x2="170.2" y2="314.44"/><line class="cls-4" x1="199.06" y1="322.57" x2="194.83" y2="316.96"/><line class="cls-4" x1="181.3" y1="322.77" x2="184.78" y2="317.08"/><line class="cls-4" x1="156.13" y1="318.58" x2="151.12" y2="313.04"/><line class="cls-4" x1="214.96" y1="316.32" x2="218.44" y2="310.63"/><line class="cls-4" x1="209.78" y1="313.96" x2="205.55" y2="308.35"/><line class="cls-4" x1="196.27" y1="314.08" x2="192.07" y2="312.28"/><line class="cls-4" x1="179.55" y1="316.06" x2="181.23" y2="313.86"/><line class="cls-4" x1="187.42" y1="314.18" x2="182.41" y2="308.64"/><line class="cls-4" x1="176.86" y1="314.33" x2="180.33" y2="308.64"/><line class="cls-4" x1="160.59" y1="314.42" x2="166.26" y2="308.9"/><line class="cls-4" x1="219.51" y1="308.99" x2="215.29" y2="303.38"/><line class="cls-4" x1="211" y1="308.25" x2="206.8" y2="306.45"/><line class="cls-4" x1="191.85" y1="309.4" x2="200.04" y2="305.18"/><path class="cls-2" d="M114,129.19c-24.3,9.91-96.17,43.4-52,77.63,48.93,37.88,51.83,24.39,52,22.27,0-.22,0-.44.07-.65l2.37-14.61c.32-2-.93-4-3.16-4.9a186.41,186.41,0,0,1-23.5-12.13c-4.21-2.55-2.55-8,2.73-8.81,9.86-1.5,20.9-7.21,24.42-24.44a3.05,3.05,0,0,1-.52-.05"/><path class="cls-1" d="M244,145.25c-.47,20.53,1.48,48.35,17.42,31.6"/><path class="cls-1" d="M245.06,126.4s-.87,8.5-1.11,18.85"/><path class="cls-2" d="M261.37,176.85c4.32-4.54,9.68-12.37,16.29-24.52,0,0,36.76-78.92,0-144.31,0,0-38.53-1.69-37.94,26.49s10.67,32.7,10.67,32.7,9.49-1.13,16.6-21.42c0,0-27.27,67.64-21.93,80.61"/><path class="cls-1" d="M258.34,153.51c-.48.42,0,4.41,0,4.41"/><path class="cls-1" d="M262.37,155.13c-.52,0-2.61,3-2.61,3"/><path class="cls-1" d="M259.18,159.73c.08.68,3.63,2.25,3.63,2.25"/><path class="cls-1" d="M261.29,162.11c.17-.62-2.36-3.65-2.36-3.65"/><path class="cls-1" d="M257.07,163.12c.42-.33.54-4,.54-4"/><path class="cls-1" d="M257.26,157.44c-.43-.51-4.22.25-4.22.25"/><path class="cls-1" d="M259.64,162c0-.65-3-3-3-3"/><path class="cls-1" d="M255.73,163.93c.34-.42-.29-4.07-.29-4.07"/><path class="cls-1" d="M254.76,158.33c-.53-.4-4.07,1.18-4.07,1.18"/><path class="cls-1" d="M255.57,153.91c-.15.63,2.45,3.59,2.45,3.59"/><path class="cls-1" d="M259.76,152.79c-.41.34-.43,4.05-.43,4.05"/><path class="cls-1" d="M259.72,158.47c.44.49,4.21-.37,4.21-.37"/><path class="cls-1" d="M264.69,156.78c-.47.42,0,4.4,0,4.4"/><path class="cls-1" d="M268.73,158.39c-.53,0-2.61,3.05-2.61,3.05"/><path class="cls-1" d="M265.53,163c.09.67,3.64,2.24,3.64,2.24"/><path class="cls-1" d="M267.64,165.38c.17-.62-2.36-3.65-2.36-3.65"/><path class="cls-1" d="M263.43,166.39c.41-.33.53-4,.53-4"/><path class="cls-1" d="M263.61,160.71c-.43-.51-4.22.25-4.22.25"/><path class="cls-1" d="M266,165.28c0-.65-3.05-3.05-3.05-3.05"/><path class="cls-1" d="M262.08,167.19c.35-.41-.29-4.07-.29-4.07"/><path class="cls-1" d="M261.11,161.6c-.52-.4-4.07,1.18-4.07,1.18"/><path class="cls-1" d="M261.93,157.17c-.16.63,2.45,3.59,2.45,3.59"/><path class="cls-1" d="M266.11,156.05c-.41.35-.43,4.06-.43,4.06"/><path class="cls-1" d="M266.07,161.74c.45.49,4.21-.37,4.21-.37"/><path class="cls-1" d="M263,151.34c-.48.42,0,4.4,0,4.4"/><path class="cls-1" d="M267,153c-.52,0-2.61,3-2.61,3"/><path class="cls-1" d="M263.8,157.56c.08.67,3.64,2.24,3.64,2.24"/><path class="cls-1" d="M265.91,159.94c.17-.63-2.36-3.66-2.36-3.66"/><path class="cls-1" d="M261.69,160.94c.42-.33.54-4,.54-4"/><path class="cls-1" d="M261.88,155.26c-.43-.5-4.22.26-4.22.26"/><path class="cls-1" d="M264.26,159.83c0-.64-3-3.05-3-3.05"/><path class="cls-1" d="M260.35,161.75c.34-.42-.29-4.07-.29-4.07"/><path class="cls-1" d="M259.38,156.15c-.53-.4-4.07,1.18-4.07,1.18"/><path class="cls-1" d="M260.19,151.73c-.15.63,2.45,3.59,2.45,3.59"/><path class="cls-1" d="M264.38,150.61c-.41.34-.43,4-.43,4"/><path class="cls-1" d="M264.34,156.29c.44.5,4.21-.37,4.21-.37"/><path class="cls-1" d="M263,154.6c-.48.42,0,4.41,0,4.41"/><path class="cls-1" d="M267,156.22c-.52,0-2.61,3-2.61,3"/><path class="cls-1" d="M263.8,160.82c.08.67,3.64,2.25,3.64,2.25"/><path class="cls-1" d="M265.91,163.2c.17-.62-2.36-3.65-2.36-3.65"/><path class="cls-1" d="M261.69,164.21c.42-.33.54-4,.54-4"/><path class="cls-1" d="M261.88,158.53c-.43-.51-4.22.25-4.22.25"/><path class="cls-1" d="M264.26,163.1c0-.65-3-3-3-3"/><path class="cls-1" d="M260.35,165c.34-.41-.29-4.06-.29-4.06"/><path class="cls-1" d="M259.38,159.42c-.53-.4-4.07,1.18-4.07,1.18"/><path class="cls-1" d="M260.19,155c-.15.63,2.45,3.59,2.45,3.59"/><path class="cls-1" d="M264.38,153.87c-.41.35-.43,4.06-.43,4.06"/><path class="cls-1" d="M264.34,159.56c.44.49,4.21-.37,4.21-.37"/><path class="cls-5" d="M98.94,201.42,88.11,228.13l19.82,7.13s29.39,15.26,26.38,4.84l-12.88-5.72s20.69,9.37,17.18.4c0,0,11.07,3.79,1.56-6.92l-10.57-5.24s10.74-2.47,4.42-10.46c0,0-4.63-.94-15.87,3Z"/><path class="cls-2" d="M141.82,235.62l-11.55-3.81Z"/><path class="cls-2" d="M250.27,145.23s39.3,49.55-24.56,62.62c0,0-51.93,2.72-43.51-36.48,0,0,16.14,37.57-43.5,43.56,0,0-56.6.49-33-40.79,1.2-2.08,2.59-4.28,4.21-6.58"/><path class="cls-6" d="M175.32,150.68s6.93-3.81,6.35,10.34c0,0,.58-11.43,8.66-10.89"/><ellipse class="cls-7" cx="136.91" cy="190.16" rx="5.49" ry="5.17"/><ellipse class="cls-7" cx="234.52" cy="187.43" rx="5.49" ry="5.17"/><path class="cls-8" d="M154,289s42.16-9.25,54.29,1.64L188.6,318.39S177.05,320,154,289Z"/><path class="cls-8" d="M272.63,252.47s-18.73-5.84-65.55,40.33"/><path class="cls-8" d="M94.18,252.28s18.28-2.93,59.77,37.25"/><path class="cls-9" d="M192.26,10.47S73.72,8.16,98.5,113.1c2.91,12.3,18.13,18,29.1,10.8,12-7.83,25.57-26,34.32-66.85l64.06,3s-1.69,83,36,58.22C262,118.31,298.47,21.61,192.26,10.47Z"/><path class="cls-10" d="M243.19,56.12s-4,4.38-.07,16.74c0,0-.7,9.84-3.13,9.83"/><path class="cls-10" d="M109.48,122.36s4-2.79,5.2-13.63,7.8-7.34,7.8-7.34"/><path class="cls-10" d="M233.36,69.55s-2.86-2.8-3.7-13.63-5.54-7.34-5.54-7.34"/><path class="cls-10" d="M247.8,82.07s-2.86-2.79-3.7-13.63-5.54-7.34-5.54-7.34"/><path class="cls-10" d="M243.18,104.4s-2.86-2.8-3.7-13.63-5.54-7.34-5.54-7.34"/><path class="cls-10" d="M122.44,113.9s.67-3.83,9.39-10.93,2.93-8.58,2.93-8.58"/><path class="cls-10" d="M104.12,109.71s-.44-3.86,5.94-12.91.39-9,.39-9"/><path class="cls-10" d="M100.58,87.62s-.81-3.8,4.68-13.36-.47-9-.47-9"/><path class="cls-10" d="M145.51,59.71s2.15-3.3,13.07-6.78,6.15-6.9,6.15-6.9"/><path class="cls-10" d="M124.33,93.55s0-3.88,7.27-12.28,1.34-8.93,1.34-8.93"/><path class="cls-10" d="M116.82,77.22s0-3.89,7.27-12.29S125.43,56,125.43,56"/><path class="cls-10" d="M139.92,87.56s0-3.88,7.27-12.28,1.34-8.93,1.34-8.93"/><path class="cls-10" d="M112.68,57.31s.65-3.84,9.32-11,2.89-8.6,2.89-8.6"/><path class="cls-10" d="M137.42,54.87s1.14-3.73,10.68-9.82,4-8.2,4-8.2"/><path class="cls-10" d="M254.88,116s-1-3.76,3.89-13.59-1-9-1-9"/><path class="cls-10" d="M254,94.35s-1.67-3.55,1.46-14-2.55-8.69-2.55-8.69"/><path class="cls-10" d="M134.37,39.6s2.53-3.07,13.78-5.4S155.06,28,155.06,28"/><path class="cls-10" d="M154.5,44.36s2.9-2.76,14.36-3.83,7.65-5.4,7.65-5.4"/><path class="cls-10" d="M139.49,26.94s2.89-2.77,14.36-3.83,7.64-5.41,7.64-5.41"/><path class="cls-10" d="M242.69,47.55s4,.76,11.29,9.2,9,3,9,3"/><path class="cls-10" d="M218.44,30.67s4,.76,11.28,9.2,9,3.05,9,3.05"/><path class="cls-10" d="M196.4,52s3.5-2,14.91-.49S220.1,48,220.1,48"/><path class="cls-10" d="M172.72,48.23s3.51-2,14.91-.49,8.79-3.54,8.79-3.54"/><path class="cls-10" d="M190,37.34s3.51-2,14.92-.49,8.79-3.54,8.79-3.54"/><path class="cls-10" d="M165.21,30.26s3.51-2,14.91-.49,8.79-3.54,8.79-3.54"/><path class="cls-10" d="M196.36,19.46s4-.88,14.31,4,9.53-.73,9.53-.73"/><path class="cls-10" d="M160.76,25s3.35-2.25,14.84-1.44,8.52-4.1,8.52-4.1"/><path class="cls-1" d="M159.74,72.23c5.25-2,17.68-5.6,24.78,1.67a3.38,3.38,0,0,1,1,2.17c.08,1.81-1.59,4.56-12.23,4.79h-.21c-1.16.08-12.45.74-15.3-4C156.78,75.06,157.68,73,159.74,72.23Z"/><ellipse class="cls-8" cx="171.12" cy="75.32" rx="3.75" ry="5.74" transform="translate(-15.83 73.23) rotate(-23.12)"/><path class="cls-1" d="M198.37,70.86c5.62-.8,18.62-1.6,23.76,7a3.33,3.33,0,0,1,.5,2.34c-.38,1.78-2.68,4.09-13.11,2l-.21,0c-1.15-.17-12.33-2-13.93-7.26C194.79,73,196.18,71.17,198.37,70.86Z"/><ellipse class="cls-8" cx="208.71" cy="76.34" rx="3.79" ry="5.7" transform="translate(-8.68 30.17) rotate(-8.1)"/><path class="cls-11" d="M152.2,56s8.16,1.28,11,15.22"/><polyline class="cls-6" points="189.47 82.07 185.43 107.66 194.09 107.66"/><path class="cls-12" d="M159.15,89.15s-2.89-7.08,11.55,0C170.7,89.15,173.59,95.14,159.15,89.15Z"/><path class="cls-12" d="M203.86,94.43s-6.11-4.94,10.16-5.17C214,89.26,219.58,93.23,203.86,94.43Z"/><path class="cls-11" d="M159.55,53.53s8.08,1.67,10.17,15.73"/><path class="cls-11" d="M170,52.71s7.55,3.18,6.57,17.35"/><path class="cls-11" d="M181,53.79s6.2,5.1.87,18.18"/><path class="cls-11" d="M200.44,53.32s-6.65,4.58-2.54,18"/><path class="cls-11" d="M209.59,52.71S202,55.89,203,70.06"/><path class="cls-11" d="M218.81,55.16s-8.08,1.67-10.17,15.73"/><path class="cls-11" d="M229,60.1s-8.25-.53-14.43,12.42"/><path class="cls-13" d="M164.12,120.05c3.39-1.39,9.95-2.23,22.11-1.53a2.11,2.11,0,0,0,1.19-.23c3.42-2.05,20-10.25,20.74-2.46a6.6,6.6,0,0,1-.07,1.08c-.24,5.72-3.62,19-25.84,7.63-7.92-4-14-.89-16.73-.36A2.19,2.19,0,0,1,164.12,120.05Z"/><line class="cls-1" x1="202.02" y1="113.9" x2="202.02" y2="126.57"/><line class="cls-1" x1="194.09" y1="115.04" x2="194.09" y2="128.98"/><line class="cls-1" x1="185.71" y1="118.55" x2="185.71" y2="126.57"/><line class="cls-1" x1="177.19" y1="118.27" x2="177.19" y2="122.01"/><line class="cls-1" x1="169.72" y1="118.73" x2="169.72" y2="122.56"/><path class="cls-9" d="M164.44,450,127,446.83s5.34,11.83-41.89,33.13c0,0-11.58,10.25,9.8,7.89h39.21L138.6,465h16l-1.78,26h11.58S167.12,469.71,164.44,450Z"/><polygon class="cls-9" points="249.66 425 192.91 425 195.44 441.38 249.66 441.38 249.66 425"/><polygon class="cls-9" points="123.82 425 165.63 425 163.77 441.38 123.82 441.38 123.82 425"/><path class="cls-9" d="M253.68,408.07C236,406.68,213.31,426.74,199,462.76c3,16.13,21.68,12,46.1,10.58C261.09,435.94,261.18,413.36,253.68,408.07Z"/></g></svg>
