<svg xmlns="http://www.w3.org/2000/svg" width="507" height="1080" viewBox="0 0 507 1080">
  <defs>
    <style>
      .cls-1, .cls-13 {
        fill: #fff;
      }

      .cls-1, .cls-10, .cls-11, .cls-2, .cls-3, .cls-5, .cls-6, .cls-7, .cls-8, .cls-9 {
        stroke: #000;
      }

      .cls-1, .cls-10, .cls-11, .cls-12, .cls-13, .cls-2, .cls-3, .cls-4, .cls-5, .cls-6, .cls-7, .cls-8, .cls-9 {
        stroke-miterlimit: 10;
      }

      .cls-2 {
        fill: #f3d3c3;
      }

      .cls-3 {
        fill: #b77d6d;
        stroke-width: 2px;
      }

      .cls-4 {
        stroke: #050000;
      }

      .cls-5 {
        fill: #bc5020;
      }

      .cls-6 {
        fill: #b69e92;
      }

      .cls-7 {
        fill: #a55d48;
      }

      .cls-8 {
        fill: #0d1b28;
      }

      .cls-9 {
        fill: #f38b2e;
      }

      .cls-10 {
        fill: #f5a258;
      }

      .cls-11 {
        fill: #020100;
      }

      .cls-11, .cls-13 {
        stroke-width: 5px;
      }

      .cls-12 {
        fill: #f5c8f5;
        stroke: #efa3ef;
      }

      .cls-13 {
        stroke: #d61ad6;
      }
    </style>
  </defs>
  <title>nøgen_dame</title>
  <g id="Kroppen">
    <path class="cls-1" d="M371,368.5s-25.26,65,17.57,101"/>
    <circle class="cls-1" cx="257" cy="599" r="3.5"/>
    <path class="cls-2" d="M388.58,469.5s13.17,429-40.63,475h-59.3s-56-186-25.26-224c0,0-45,91-51.61,212l-48.31-2s-101-260-30.75-549c0,0,69.18-22,75.77-141l126.28,10s-16.47,85,36.24,118"/>
    <circle class="cls-3" cx="249" cy="589" r="3"/>
    <g>
      <g>
        <line class="cls-4" x1="188" y1="653" x2="194.57" y2="663.39"/>
        <line class="cls-4" x1="220.95" y1="658.2" x2="214.17" y2="668.58"/>
        <line class="cls-4" x1="295.39" y1="653.01" x2="288.61" y2="663.38"/>
        <line class="cls-4" x1="268.33" y1="658.25" x2="276.26" y2="668.53"/>
        <line class="cls-4" x1="227.41" y1="653" x2="233.98" y2="663.39"/>
        <line class="cls-4" x1="258.17" y1="653.01" x2="251.39" y2="663.38"/>
        <line class="cls-4" x1="301.17" y1="661.22" x2="309.1" y2="671.5"/>
        <line class="cls-4" x1="199.05" y1="664.14" x2="192.28" y2="674.51"/>
        <line class="cls-4" x1="207.71" y1="668.58" x2="214.27" y2="678.97"/>
        <line class="cls-4" x1="231.11" y1="668.64" x2="238.13" y2="672.03"/>
        <line class="cls-4" x1="260.3" y1="665.37" x2="257.11" y2="669.37"/>
        <line class="cls-4" x1="246.43" y1="668.64" x2="254.37" y2="678.92"/>
        <line class="cls-4" x1="264.74" y1="668.59" x2="257.96" y2="678.97"/>
        <line class="cls-4" x1="292.89" y1="668.78" x2="282.35" y2="678.78"/>
        <line class="cls-4" x1="190.19" y1="677.49" x2="196.76" y2="687.88"/>
        <line class="cls-4" x1="204.83" y1="679.03" x2="211.86" y2="682.42"/>
        <line class="cls-4" x1="238.12" y1="677.33" x2="223.38" y2="684.9"/>
      </g>
      <g>
        <line class="cls-4" x1="312.51" y1="710.98" x2="305.19" y2="700.67"/>
        <line class="cls-4" x1="279.2" y1="706.18" x2="285.22" y2="695.73"/>
        <line class="cls-4" x1="205.17" y1="712.28" x2="211.19" y2="701.82"/>
        <line class="cls-4" x1="231.84" y1="706.71" x2="223.16" y2="696.53"/>
        <line class="cls-4" x1="273.12" y1="711.46" x2="265.8" y2="701.15"/>
        <line class="cls-4" x1="242.38" y1="711.82" x2="248.39" y2="701.37"/>
        <line class="cls-4" x1="198.79" y1="704.14" x2="190.11" y2="693.96"/>
        <line class="cls-4" x1="300.65" y1="699.98" x2="306.67" y2="689.53"/>
        <line class="cls-4" x1="291.68" y1="695.64" x2="284.36" y2="685.33"/>
        <line class="cls-4" x1="268.28" y1="695.87" x2="261.02" y2="692.56"/>
        <line class="cls-4" x1="239.34" y1="699.49" x2="242.24" y2="695.46"/>
        <line class="cls-4" x1="252.96" y1="696.06" x2="244.28" y2="685.88"/>
        <line class="cls-4" x1="234.67" y1="696.33" x2="240.69" y2="685.87"/>
        <line class="cls-4" x1="206.51" y1="696.48" x2="216.33" y2="686.35"/>
        <line class="cls-4" x1="308.54" y1="686.53" x2="301.22" y2="676.22"/>
        <line class="cls-4" x1="293.79" y1="685.16" x2="286.52" y2="681.86"/>
        <line class="cls-4" x1="260.64" y1="687.27" x2="274.82" y2="679.53"/>
      </g>
      <g>
        <line class="cls-4" x1="319" y1="735.7" x2="311.68" y2="725.4"/>
        <line class="cls-4" x1="285.69" y1="730.9" x2="291.71" y2="720.45"/>
        <line class="cls-4" x1="211.66" y1="737" x2="217.67" y2="726.55"/>
        <line class="cls-4" x1="238.32" y1="731.43" x2="229.64" y2="721.25"/>
        <line class="cls-4" x1="279.61" y1="736.18" x2="272.28" y2="725.88"/>
        <line class="cls-4" x1="248.86" y1="736.55" x2="254.88" y2="726.1"/>
        <line class="cls-4" x1="205.28" y1="728.86" x2="196.6" y2="718.68"/>
        <line class="cls-4" x1="307.14" y1="724.7" x2="313.16" y2="714.25"/>
        <line class="cls-4" x1="298.17" y1="720.36" x2="290.84" y2="710.06"/>
        <line class="cls-4" x1="274.77" y1="720.59" x2="267.5" y2="717.29"/>
        <line class="cls-4" x1="245.83" y1="724.22" x2="248.73" y2="720.18"/>
        <line class="cls-4" x1="259.45" y1="720.78" x2="250.77" y2="710.6"/>
        <line class="cls-4" x1="241.16" y1="721.05" x2="247.18" y2="710.6"/>
        <line class="cls-4" x1="213" y1="721.21" x2="222.81" y2="711.08"/>
        <line class="cls-4" x1="315.03" y1="711.25" x2="307.7" y2="700.94"/>
        <line class="cls-4" x1="300.28" y1="709.89" x2="293.01" y2="706.58"/>
        <line class="cls-4" x1="267.13" y1="711.99" x2="281.31" y2="704.25"/>
      </g>
    </g>
  </g>
  <g id="arme">
    <path class="cls-2" d="M132.39,381c-42.07,18.19-166.52,79.7-90,142.56,84.72,69.58,89.74,44.8,90,40.91,0-.41.07-.81.13-1.21l4.09-26.82c.56-3.71-1.61-7.27-5.47-9A315.35,315.35,0,0,1,90.5,505.2c-7.31-4.68-4.43-14.7,4.72-16.18,17.07-2.75,36.19-13.24,42.29-44.87a5.52,5.52,0,0,1-.91-.11"/>
    <path class="cls-1" d="M357.34,410.53c-.83,37.71,2.56,88.79,30.15,58"/>
    <path class="cls-1" d="M359.25,375.9s-1.49,15.61-1.91,34.63"/>
    <path class="cls-2" d="M387.49,468.57c7.49-8.35,16.77-22.73,28.22-45.05,0,0,63.65-144.93,0-265,0,0-66.72-3.1-65.7,48.66s18.48,60,18.48,60,16.43-2.07,28.74-39.34c0,0-47.22,124.23-38,148"/>
    <g>
      <g>
        <path class="cls-1" d="M382.25,425.71c-.82.77,0,8.08,0,8.08"/>
        <path class="cls-1" d="M389.24,428.67c-.91.06-4.52,5.58-4.52,5.58"/>
        <path class="cls-1" d="M383.71,437.13c.14,1.23,6.29,4.12,6.29,4.12"/>
        <path class="cls-1" d="M387.36,441.5c.29-1.14-4.09-6.71-4.09-6.71"/>
        <path class="cls-1" d="M380.06,443.35c.72-.61.93-7.42.93-7.42"/>
        <path class="cls-1" d="M380.38,432.92c-.75-.93-7.3.46-7.3.46"/>
        <path class="cls-1" d="M384.51,441.31c.07-1.19-5.27-5.6-5.27-5.6"/>
        <path class="cls-1" d="M377.74,444.83c.59-.77-.52-7.47-.52-7.47"/>
        <path class="cls-1" d="M376.05,434.56c-.91-.74-7.05,2.16-7.05,2.16"/>
        <path class="cls-1" d="M377.46,426.43c-.26,1.15,4.24,6.59,4.24,6.59"/>
        <path class="cls-1" d="M384.71,424.37c-.71.63-.75,7.44-.75,7.44"/>
        <path class="cls-1" d="M384.64,434.81c.77.91,7.29-.68,7.29-.68"/>
      </g>
      <g>
        <path class="cls-1" d="M393.25,431.71c-.82.77,0,8.08,0,8.08"/>
        <path class="cls-1" d="M400.24,434.67c-.91.06-4.52,5.58-4.52,5.58"/>
        <path class="cls-1" d="M394.71,443.13c.14,1.23,6.29,4.12,6.29,4.12"/>
        <path class="cls-1" d="M398.36,447.5c.29-1.14-4.09-6.71-4.09-6.71"/>
        <path class="cls-1" d="M391.06,449.35c.72-.61.93-7.42.93-7.42"/>
        <path class="cls-1" d="M391.38,438.92c-.75-.93-7.3.46-7.3.46"/>
        <path class="cls-1" d="M395.51,447.31c.07-1.19-5.27-5.6-5.27-5.6"/>
        <path class="cls-1" d="M388.74,450.83c.59-.77-.52-7.47-.52-7.47"/>
        <path class="cls-1" d="M387.05,440.56c-.91-.74-7.05,2.16-7.05,2.16"/>
        <path class="cls-1" d="M388.46,432.43c-.26,1.15,4.24,6.59,4.24,6.59"/>
        <path class="cls-1" d="M395.71,430.37c-.71.63-.75,7.44-.75,7.44"/>
        <path class="cls-1" d="M395.64,440.81c.77.91,7.29-.68,7.29-.68"/>
      </g>
      <g>
        <path class="cls-1" d="M390.25,421.71c-.82.77,0,8.08,0,8.08"/>
        <path class="cls-1" d="M397.24,424.67c-.91.06-4.52,5.58-4.52,5.58"/>
        <path class="cls-1" d="M391.71,433.13c.14,1.23,6.29,4.12,6.29,4.12"/>
        <path class="cls-1" d="M395.36,437.5c.29-1.14-4.09-6.71-4.09-6.71"/>
        <path class="cls-1" d="M388.06,439.35c.72-.61.93-7.42.93-7.42"/>
        <path class="cls-1" d="M388.38,428.92c-.75-.93-7.3.46-7.3.46"/>
        <path class="cls-1" d="M392.51,437.31c.07-1.19-5.27-5.6-5.27-5.6"/>
        <path class="cls-1" d="M385.74,440.83c.59-.77-.52-7.47-.52-7.47"/>
        <path class="cls-1" d="M384.05,430.56c-.91-.74-7.05,2.16-7.05,2.16"/>
        <path class="cls-1" d="M385.46,422.43c-.26,1.15,4.24,6.59,4.24,6.59"/>
        <path class="cls-1" d="M392.71,420.37c-.71.63-.75,7.44-.75,7.44"/>
        <path class="cls-1" d="M392.64,430.81c.77.91,7.29-.68,7.29-.68"/>
      </g>
      <g>
        <path class="cls-1" d="M390.25,427.71c-.82.77,0,8.08,0,8.08"/>
        <path class="cls-1" d="M397.24,430.67c-.91.06-4.52,5.58-4.52,5.58"/>
        <path class="cls-1" d="M391.71,439.13c.14,1.23,6.29,4.12,6.29,4.12"/>
        <path class="cls-1" d="M395.36,443.5c.29-1.14-4.09-6.71-4.09-6.71"/>
        <path class="cls-1" d="M388.06,445.35c.72-.61.93-7.42.93-7.42"/>
        <path class="cls-1" d="M388.38,434.92c-.75-.93-7.3.46-7.3.46"/>
        <path class="cls-1" d="M392.51,443.31c.07-1.19-5.27-5.6-5.27-5.6"/>
        <path class="cls-1" d="M385.74,446.83c.59-.77-.52-7.47-.52-7.47"/>
        <path class="cls-1" d="M384.05,436.56c-.91-.74-7.05,2.16-7.05,2.16"/>
        <path class="cls-1" d="M385.46,428.43c-.26,1.15,4.24,6.59,4.24,6.59"/>
        <path class="cls-1" d="M392.71,426.37c-.71.63-.75,7.44-.75,7.44"/>
        <path class="cls-1" d="M392.64,436.81c.77.91,7.29-.68,7.29-.68"/>
      </g>
    </g>
    <path class="cls-5" d="M106.25,513.69,87.49,562.75l34.32,13.08s50.9,28,45.68,8.89l-22.31-10.5s35.84,17.2,29.76.72c0,0,19.16,7,2.69-12.69l-18.3-9.63s18.61-4.53,7.66-19.21c0,0-8-1.73-27.48,5.46Z"/>
    <path class="cls-2" d="M180.5,576.5l-20-7Z"/>
  </g>
  <g id="Layer_5" data-name="Layer 5">
    <path class="cls-2" d="M368.29,410.5s68,91-42.53,115c0,0-89.92,5-75.34-67,0,0,28,69-75.33,80,0,0-98,.91-57.12-74.91,2.07-3.83,4.49-7.86,7.3-12.09"/>
    <path class="cls-6" d="M238.5,420.5s12-7,11,19c0,0,1-21,15-20"/>
    <circle class="cls-7" cx="172" cy="493" r="9.5"/>
    <circle class="cls-7" cx="341" cy="488" r="9.5"/>
  </g>
  <g id="G-streng">
    <path class="cls-8" d="M201.5,674.5s73-17,94,3l-34,51S241.5,731.5,201.5,674.5Z"/>
    <path class="cls-8" d="M407,607.44s-32.43-10.72-113.5,74.06"/>
    <path class="cls-8" d="M98,607.09s31.66-5.38,103.5,68.41"/>
  </g>
  <g id="sko">
    <path class="cls-9" d="M213.41,953.68l-50.12-3.18s7.16,11.92-56.09,33.38c0,0-15.52,10.33,13.12,7.94h52.51l6-23h21.48L197.89,995h15.52S217,973.54,213.41,953.68Z"/>
    <path class="cls-9" d="M285.75,953.68l55-3.18s-7.86,11.92,61.6,33.38c0,0,17,10.33-14.41,7.94H330.31l-6.55-23h-23.6L302.79,995h-17S281.82,973.54,285.75,953.68Z"/>
    <polygon class="cls-9" points="357 928.5 281 928.5 284.38 945 357 945 357 928.5"/>
    <polygon class="cls-9" points="159 928.5 215 928.5 212.51 945 159 945 159 928.5"/>
  </g>
  <g id="hår">
    <path class="cls-9" d="M267.84,163S62.58,158.76,105.49,351.49c5,22.58,31.38,33,50.38,19.83,20.7-14.38,44.28-47.79,59.42-122.77l110.93,5.57S323.3,406.61,388.5,361.05C388.5,361.05,451.74,183.46,267.84,163Z"/>
    <g>
      <path class="cls-10" d="M356,246.85s-6.87,8-.13,30.73c0,0-1.2,18.08-5.41,18.06"/>
      <path class="cls-10" d="M124.5,368.5s6.95-5.14,9-25S147,330,147,330"/>
      <path class="cls-10" d="M339,271.5s-4.95-5.14-6.4-25S323,233,323,233"/>
      <path class="cls-10" d="M364,294.5s-4.95-5.14-6.4-25S348,256,348,256"/>
      <path class="cls-10" d="M356,335.5s-4.95-5.14-6.4-25S340,297,340,297"/>
      <path class="cls-10" d="M146.93,353s1.17-7,16.26-20.08,5.09-15.75,5.09-15.75"/>
      <path class="cls-10" d="M115.22,345.26s-.76-7.09,10.28-23.71.67-16.53.67-16.53"/>
      <path class="cls-10" d="M109.09,304.7s-1.4-7,8.11-24.54-.82-16.53-.82-16.53"/>
      <path class="cls-10" d="M186.88,253.44s3.74-6.07,22.64-12.46,10.64-12.67,10.64-12.67"/>
      <path class="cls-10" d="M150.2,315.58s0-7.13,12.6-22.56,2.32-16.39,2.32-16.39"/>
      <path class="cls-10" d="M137.2,285.58s0-7.13,12.6-22.56,2.32-16.39,2.32-16.39"/>
      <path class="cls-10" d="M177.2,304.58s0-7.13,12.6-22.56,2.32-16.39,2.32-16.39"/>
      <path class="cls-10" d="M130,249s1.13-7,16.15-20.17,5-15.78,5-15.78"/>
      <path class="cls-10" d="M172.87,244.53s2-6.84,18.51-18,6.89-15,6.89-15"/>
      <path class="cls-10" d="M376.26,356.88s-1.78-6.9,6.73-24.95-1.74-16.45-1.74-16.45"/>
      <path class="cls-10" d="M374.77,317s-2.89-6.51,2.54-25.71-4.42-15.95-4.42-15.95"/>
      <path class="cls-10" d="M167.6,216.5s4.37-5.63,23.86-9.92,12-11.43,12-11.43"/>
      <path class="cls-10" d="M202.46,225.24s5-5.07,24.86-7,13.24-9.94,13.24-9.94"/>
      <path class="cls-10" d="M176.46,193.24s5-5.07,24.86-7,13.24-9.94,13.24-9.94"/>
      <path class="cls-10" d="M355.16,231.1s7,1.39,19.54,16.9,15.58,5.59,15.58,5.59"/>
      <path class="cls-10" d="M313.16,200.1s7,1.39,19.54,16.9,15.58,5.59,15.58,5.59"/>
      <path class="cls-10" d="M275,239.35s6.07-3.74,25.82-.91,15.22-6.5,15.22-6.5"/>
      <path class="cls-10" d="M234,232.35s6.07-3.74,25.82-.91,15.22-6.5,15.22-6.5"/>
      <path class="cls-10" d="M264,212.35s6.07-3.74,25.82-.91,15.22-6.5,15.22-6.5"/>
      <path class="cls-10" d="M221,199.35s6.07-3.74,25.82-.91,15.22-6.5,15.22-6.5"/>
      <path class="cls-10" d="M274.94,179.51s6.94-1.62,24.78,7.32,16.49-1.35,16.49-1.35"/>
      <path class="cls-10" d="M213.29,189.77s5.81-4.14,25.7-2.66,14.74-7.52,14.74-7.52"/>
    </g>
  </g>
  <g id="ansigtet">
    <g>
      <path class="cls-1" d="M211.52,276.43c9.1-3.68,30.62-10.3,42.91,3.06a6.35,6.35,0,0,1,1.83,4c.13,3.33-2.76,8.39-21.18,8.81l-.37,0c-2,.15-21.57,1.36-26.5-7.43C206.4,281.63,208,277.86,211.52,276.43Z"/>
      <ellipse class="cls-8" cx="231.23" cy="282.1" rx="6.55" ry="10.46" transform="translate(-83.67 98.02) rotate(-20.35)"/>
    </g>
    <g>
      <path class="cls-1" d="M278.42,273.91c9.72-1.47,32.24-2.94,41.14,12.89a6.42,6.42,0,0,1,.85,4.3c-.64,3.27-4.63,7.52-22.69,3.68l-.37-.07c-2-.32-21.34-3.66-24.11-13.35C272.21,277.79,274.61,274.49,278.42,273.91Z"/>
      <ellipse class="cls-8" cx="296.32" cy="283.98" rx="6.56" ry="10.46" transform="translate(-32.54 38.42) rotate(-7.03)"/>
    </g>
    <path class="cls-11" d="M198.47,246.55s14.12,2.35,19.07,27.95"/>
    <polyline class="cls-6" points="263 294.5 256 341.5 271 341.5"/>
    <path class="cls-12" d="M210.5,307.5s-5-13,20,0C230.5,307.5,235.5,318.5,210.5,307.5Z"/>
    <path class="cls-12" d="M287.91,317.2s-10.57-9.07,17.6-9.5C305.51,307.7,315.14,315,287.91,317.2Z"/>
    <path class="cls-11" d="M211.2,242.08s14,3.07,17.61,28.89"/>
    <path class="cls-11" d="M229.31,240.57s13.07,5.84,11.38,31.86"/>
    <path class="cls-11" d="M248.3,242.57s10.73,9.37,1.5,33.37"/>
    <path class="cls-11" d="M282,241.7s-11.5,8.41-4.39,33.12"/>
    <path class="cls-11" d="M297.84,240.57s-13.07,5.84-11.38,31.86"/>
    <path class="cls-11" d="M313.81,245.08s-14,3.07-17.61,28.89"/>
    <path class="cls-11" d="M331.49,254.15s-14.28-1-25,22.8"/>
    <path class="cls-13" d="M219.11,364.26c5.87-2.57,17.23-4.11,38.29-2.83a3.45,3.45,0,0,0,2.05-.42c5.92-3.75,34.6-18.81,35.92-4.52a16.77,16.77,0,0,1-.12,2c-.42,10.49-6.27,34.8-44.75,14-13.72-7.41-24.17-1.65-29-.67S214.74,366.16,219.11,364.26Z"/>
    <line class="cls-1" x1="284.74" y1="352.96" x2="284.74" y2="376.22"/>
    <line class="cls-1" x1="271" y1="355.04" x2="271" y2="380.65"/>
    <line class="cls-1" x1="256.5" y1="361.5" x2="256.5" y2="376.22"/>
    <line class="cls-1" x1="241.74" y1="360.98" x2="241.74" y2="367.85"/>
    <line class="cls-1" x1="228.81" y1="361.82" x2="228.81" y2="368.86"/>
  </g>
</svg>
