<svg xmlns="http://www.w3.org/2000/svg" viewBox="0 0 1400 500"><defs><style>.cls-1,.cls-10,.cls-14,.cls-5,.cls-7{stroke:#000;stroke-miterlimit:10;}.cls-1{opacity:0.3;}.cls-2{fill:#f3d3c3;}.cls-3{fill:#ff6700;}.cls-4{fill:#c15105;}.cls-5{fill:none;}.cls-6{fill:#3a1f0d;}.cls-10,.cls-8{fill:#fff;}.cls-9{fill:#e5af9e;}.cls-11{fill:blue;}.cls-12{fill:#edbda9;}.cls-13{fill:#1515ba;}.cls-14{fill:#191615;}</style></defs><title>noerd_walkcycle_ny</title><g id="Layer_4" data-name="Layer 4"><ellipse class="cls-1" cx="511.95" cy="434.07" rx="91.55" ry="41.93"/><path class="cls-2" d="M521,327.93c-4.65,44.59.67,94.5,7.33,109.14,39.93,7.32,67.21,6.66,68.54-4,0-3.15-2.66-7.32-20.63-9.32,5.33-39.93,4.66-59.23,4-97.16C546.25,325.94,549.58,325.94,521,327.93Z"/><path class="cls-2" d="M513,332.59c-1.33,19.93-1.91,32.44-3,43.41H446.66c-3.16-14.33-4.39-25.86-6.22-43.41C464.4,329.26,477,328.6,513,332.59Z"/><path class="cls-3" d="M573.54,240.75c8,41.93,11.31,57.23,8,92.51-28.62,0-43.93-.67-61.9,1.33-1.33-16,0-18.64.67-35.94a3.42,3.42,0,0,0-2.66,0c-.67,16.64.66,15.31-3.33,36.6-35.94-2-40.6-1.33-75.2-1.33-6-29.28-6-49.91-2-93.83C486.36,244.74,511,250.07,573.54,240.75Z"/><path class="cls-4" d="M559.23,243.75c0,6-.66,4-2.66,9.31,1.74,8.68,16.11,14.24,21.3,10-2.67-12.65-4-24-4.66-22C569.16,239.49,566.55,243.08,559.23,243.75Z"/><line class="cls-5" x1="519.63" y1="376.51" x2="580.19" y2="378.51"/><line class="cls-5" x1="520.3" y1="387.83" x2="579.53" y2="390.49"/><path class="cls-6" d="M456.74,243.08c-.4,1-2.47,4.3-2,6.66,50.58,13.31,55.57,7,102.15,3.66,1.05-1.66,3.68-6.86,2-12C510.32,245.41,480,245.74,456.74,243.08Z"/><line class="cls-5" x1="516.97" y1="247.41" x2="516.97" y2="257.72"/><line class="cls-5" x1="498.34" y1="247.41" x2="498.34" y2="258.39"/><circle class="cls-7" cx="507.99" cy="253.06" r="2.33"/><path class="cls-5" d="M508.32,295.32c15.31,4.66,20.41-6.21,30.61-9.31"/><path class="cls-7" d="M520.3,387.83c.66,22.62,3.33,32.61,8,49.24,37.26,8,68.54,4.66,68.54-4-.17-2.8,0-6.65-20.63-9.32,1.33-12.64,2-20,3.33-33.27C548.92,389.16,544.26,389.16,520.3,387.83Z"/><path class="cls-8" d="M519.63,375.85c-.66,7.32.16,10.29.67,11.31,26,1.33,33.94,1.33,59.23,2.66.15-.28.66-2.66.66-12C556.9,377.18,544.92,376.51,519.63,375.85Z"/><path class="cls-5" d="M538.93,343.24c-3.22,2.13-4.73,4.92-4,6.65a2.69,2.69,0,0,0,1.33,1.33"/><path class="cls-5" d="M550.91,349.23c.48,3.16,2,5.56,4,6a3.47,3.47,0,0,0,1.33,0"/><path class="cls-5" d="M559.56,343.24c4.1,1.77,5.29,5.95,4,8-1,1.6-3.84,2.31-6.66,1.34"/><path class="cls-5" d="M567.55,344.57a9.86,9.86,0,0,0,4,5.32,8.29,8.29,0,0,0,1.33.67"/><path class="cls-5" d="M548.92,359.88l-2.67-.67"/><path class="cls-5" d="M543.59,361.21a15.7,15.7,0,0,0-7.32,6.65"/><path class="cls-5" d="M538.93,367.86a4.11,4.11,0,0,0,.67,2.66c1.12,1.59,3.56,2.2,6,1.33"/><path class="cls-5" d="M556.9,367.86l4.1-1.49,3.22-1.17"/><path class="cls-5" d="M562.23,368.53c-.39,2.48.71,4.39,2,4.66a2.63,2.63,0,0,0,2-.67"/><path class="cls-5" d="M570.21,361.87a3,3,0,0,0,1.33,3.33,3,3,0,0,0,2.66,0"/><path class="cls-5" d="M525,358.54c-.22,1.34-.45,2.67-.67,4"/><path class="cls-4" d="M456.74,244.41c-2,10.65-6.65,18.64-10.64,19.3-.3.1-6.8,2.26-10.65-1.33a162.1,162.1,0,0,1,1.33-18"/><path class="cls-2" d="M561,107.53c3.35-2.12,13.29,2.57,15.47,11.61,2.13,8.85-4.23,17.52-8.16,17.24C563.76,118,564.7,122,561,107.53Z"/><path class="cls-9" d="M564.24,115.31c1.66-1.26,6.35-.09,7.58,3.49,1.38,4-2.7,8-4.82,7.66A67.5,67.5,0,0,1,564.24,115.31Z"/><path class="cls-2" d="M449.76,106.32c-3.48-1.89-13.09,3.48-14.64,12.65-1.53,9,5.41,17.19,9.31,16.63C447.76,117,447.09,121,449.76,106.32Z"/><path class="cls-9" d="M447.09,114.31c-1.74-1.15-6.33.34-7.32,4-1.1,4.11,3.24,7.75,5.33,7.32A66.74,66.74,0,0,0,447.09,114.31Z"/><path class="cls-2" d="M505.66,195.5c-32-16.64-30.61-16.64-67.22-40.6,7.32-35.27,6.66-45.92,20-71.87C507,79.7,507,79.7,550.25,82.36c12.64,23.3,15.3,36.61,23.29,70.55C540.93,179.53,539.6,178.19,505.66,195.5Z"/><path class="cls-10" d="M502.33,148.25c-20.63-2.66-37.27-4-35.94,4-2.66,6,16.48,10.74,32.61,12,19.71,1.51,39.93-1.33,39.93-9.32C534.94,140.93,515.55,148.77,502.33,148.25Z"/><line class="cls-5" x1="473.71" y1="146.25" x2="471.05" y2="157.56"/><line class="cls-5" x1="479.7" y1="146.25" x2="477.71" y2="160.89"/><line class="cls-5" x1="486.36" y1="146.25" x2="485.69" y2="162.22"/><line class="cls-5" x1="491.02" y1="146.92" x2="491.02" y2="163.55"/><line class="cls-5" x1="532.28" y1="147.58" x2="534.27" y2="160.89"/><line class="cls-5" x1="524.96" y1="146.25" x2="526.95" y2="162.89"/><line class="cls-5" x1="514.98" y1="147.58" x2="515.64" y2="164.22"/><line class="cls-5" x1="519.63" y1="146.92" x2="520.96" y2="164.22"/><line class="cls-5" x1="506.99" y1="148.25" x2="506.99" y2="164.22"/><line class="cls-5" x1="497.67" y1="147.58" x2="497.67" y2="164.22"/><path class="cls-10" d="M485.69,94.34c7.32.31,15.57,5,15.31,9.32S491.46,112,483.7,111c-6.25-.82-13.61-5.11-13.31-9.32S479,94.06,485.69,94.34Z"/><circle class="cls-7" cx="485.69" cy="102.99" r="7.99"/><path class="cls-10" d="M524.29,95c7.32.31,15.57,5,15.31,9.31s-9.54,8.34-17.3,7.32c-6.25-.81-13.61-5.1-13.31-9.31S517.62,94.73,524.29,95Z"/><circle class="cls-7" cx="524.29" cy="103.66" r="7.99"/><line class="cls-5" x1="504.99" y1="111.64" x2="495.68" y2="134.27"/><line class="cls-5" x1="495.68" y1="134.27" x2="512.31" y2="134.27"/><line class="cls-5" x1="537.6" y1="100.33" x2="540.93" y2="97"/><line class="cls-5" x1="533.61" y1="97.67" x2="536.94" y2="92.35"/><line class="cls-5" x1="476.38" y1="95.67" x2="476.38" y2="92.35"/><line class="cls-5" x1="484.36" y1="94.34" x2="484.36" y2="91.68"/><path class="cls-5" d="M507,346.57l-6,10.64"/><path class="cls-5" d="M483,355.88l3.33-8"/><path class="cls-5" d="M477,355.22c-3.79-5.52-4.38-8.5-3.33-10a4.79,4.79,0,0,1,2-1.33c0-.06-3.35,1.34-8,3.33"/><path class="cls-5" d="M461.07,350.56l-7.32-7.32"/><path class="cls-5" d="M455.08,359.88c.05,4,1.05,8.15-6.65,11.31"/><path class="cls-5" d="M465.06,362.54c-.22,3.33-2,6.65-.66,10"/><path class="cls-5" d="M475.71,363.2c2,3.33,0,7.32,6,10"/><path class="cls-5" d="M492.35,361.21c1.33,7.32,4.88,8,7.32,12"/><path class="cls-7" d="M461.74,79c-.61.56-.86-2.89-4.66,3.32-3.33,14.64-8.65,21.3-7.32,22.63,2,1.33,1.92-9.39,2.66-8.65s-1.58,9.28-1.33,9.32c4.48.56,9-20.46,8.65-19.3-.82,3-.63,13.65.66,14,1.45.36,6.49-14.89,7.33-14.64.66.2-2.41,9.82-.67,10.65,2.39,1.14,12-15.28,14.64-14,1.25.62,0,4.74,1.33,5.33,1.83.77,5.94-5.77,6.66-5.33s-3.09,7.75-2.67,8,5.36-8.54,6.66-8S492.46,90.85,493,91s3.32-8.9,4.66-8.65.38,9.86,1.33,10,2.67-10.1,4-10S504.36,93,505,93s.86-11.25,2-11.31,2.42,11.39,3.33,11.31.52-10.59,1.33-10.65,1.7,8.7,2.66,8.65.93-7.91,2-8,2.15,8,3.32,8,.92-7.68,2.67-8c2-.34,4.78,9,6,8.65s-.36-8.4.66-8.65,3,6.89,4.66,6.65c1.47-.2,1.41-5.87,2.66-6,1.51-.13,2.74,8,4.66,8,1.76,0,1.87-6.88,4-7.32,4.45-.93,6.29,27.81,8,27.28,1.22-.37.12-14.85,2.66-16,2.35-1,4,11.31,4,11.32a135.68,135.68,0,0,0-10-28.62C526.61,47.74,474,67.64,461.74,79Z"/><line class="cls-5" x1="472.72" y1="105.99" x2="470.72" y2="107.98"/><line class="cls-5" x1="475.05" y1="107.65" x2="474.38" y2="110.31"/><line class="cls-5" x1="477.04" y1="108.98" x2="477.04" y2="111.64"/><line class="cls-5" x1="480.37" y1="110.31" x2="480.37" y2="112.31"/><line class="cls-5" x1="483.03" y1="110.98" x2="483.03" y2="112.98"/><line class="cls-5" x1="486.36" y1="111.64" x2="486.36" y2="113.64"/><line class="cls-5" x1="489.02" y1="110.98" x2="489.69" y2="113.64"/><line class="cls-5" x1="492.35" y1="110.31" x2="493.68" y2="112.98"/><line class="cls-5" x1="495.01" y1="108.98" x2="496.34" y2="111.64"/><line class="cls-5" x1="497.67" y1="108.32" x2="499.67" y2="110.98"/><line class="cls-5" x1="495.68" y1="97" x2="497.67" y2="94.34"/><line class="cls-5" x1="491.02" y1="95.01" x2="491.68" y2="93.01"/><line class="cls-5" x1="510.98" y1="106.32" x2="509.65" y2="107.65"/><line class="cls-5" x1="512.98" y1="108.32" x2="511.65" y2="109.65"/><line class="cls-5" x1="514.98" y1="108.98" x2="514.31" y2="111.64"/><line class="cls-5" x1="518.3" y1="110.98" x2="518.3" y2="112.98"/><line class="cls-5" x1="516.97" y1="110.31" x2="516.31" y2="112.31"/><line class="cls-5" x1="520.96" y1="111.64" x2="520.96" y2="113.64"/><line class="cls-5" x1="523.63" y1="111.64" x2="523.63" y2="113.64"/><line class="cls-5" x1="526.29" y1="111.64" x2="526.29" y2="113.64"/><line class="cls-5" x1="529.62" y1="111.64" x2="530.28" y2="113.64"/><line class="cls-5" x1="532.28" y1="110.31" x2="533.61" y2="112.98"/><line class="cls-5" x1="534.94" y1="109.65" x2="536.27" y2="111.64"/><line class="cls-5" x1="536.94" y1="108.32" x2="538.27" y2="110.31"/><line class="cls-5" x1="538.27" y1="106.99" x2="540.93" y2="108.32"/><line class="cls-5" x1="512.31" y1="97.67" x2="509.65" y2="95.01"/><line class="cls-5" x1="517.64" y1="95.67" x2="515.64" y2="92.35"/><line class="cls-5" x1="524.96" y1="95.01" x2="524.96" y2="91.01"/><path class="cls-11" d="M439.77,153.57c-12.64,39.27-12,67.88-2.66,89.84,36.53,2.73,52.74,4.24,69.48,4.25,19.3,0,48.77-2.75,52.49-3,6-.47,11-.9,14.46-1.21.19-6.23.4-15.76.2-27.43-.19-11.1-.92-20.11-2.2-65.74C506.32,190.84,504.33,190.84,439.77,153.57Z"/><path class="cls-12" d="M525,175.53c-8.65-7.32-4.66-4-11.32-10-2.22-4.82-2.66-8-3.32-12.64-1.81-1.8-2.79-1.06-4-2.67V135.6a4.44,4.44,0,0,0-5.32,0c-4,3.33-.67,8.65-.67,17.31-.91.48-2-.58-2.66,0-2.66,2-.66,10.64,2.66,8,10.1,17.52,8,16.64,14.65,25.29C519.81,186.64,525.79,180,525,175.53Z"/><path class="cls-13" d="M572.54,149.25c19.3,22,7.56,69.09-6.32,75.53-22-.67-35.27-17.3-52.58-38.6.81-5.48,5.46-11.37,10.65-12,11.32,3.33,22,16.64,25.29,22,1.6-.68-6.65-8-2.66-22"/><path class="cls-13" d="M439.44,152.57c-20.63,34.61-9,90.18,7,110.81,4.75.56,10.91-19.94,11.31-21.3-8-10-4-28-1.33-46.58"/><path class="cls-9" d="M506.32,150.91c-4.65,5.32-4.33,6.58-2.66,8,1.41,1.17,3.66.33,7-3C512,153.24,508.08,150.69,506.32,150.91Z"/><path class="cls-9" d="M510.32,156.23c-2,0-6.66,4.66-4.66,8,.88.76,4-.67,6-2.66C512.48,159.2,511.43,156.38,510.32,156.23Z"/><path class="cls-3" d="M517,47.09c.26-.26-4.66,0-15.3-12-12,7.32-19.06,9-19.3,8.65s2.66-8,15.3-12c-12-12.65-9.79-15.47-10-15.31s4.66-3.33,13.31,12.64c8.65-6,20.63-10.64,22.63-8,1.33,2.66-6,6.65-18.64,11.31C519,43.1,516.68,47.39,517,47.09Z"/><path class="cls-3" d="M500.33,34.45c.67,9.31.67,6,.67,15.3a3.92,3.92,0,0,0,3.33-.66,128.35,128.35,0,0,0-.67-14.64A3.93,3.93,0,0,0,500.33,34.45Z"/><ellipse class="cls-7" cx="501.67" cy="32.45" rx="3.33" ry="2.66"/><path class="cls-3" d="M457.08,84.36c-3.57-11.07,18.08-34.79,45.25-35.94,29.12-1.23,52.59,24,49.25,35.27C509,81,497,79.7,457.08,84.36Z"/><polyline class="cls-5" points="475.05 57.74 473.05 73.05 472.38 83.03"/><polyline class="cls-5" points="533.61 57.74 534.94 71.72 534.94 82.7"/><polyline class="cls-5" points="522.3 51.75 523.63 67.72 523.63 82.03"/><polyline class="cls-5" points="485.03 52.42 483.03 69.05 482.37 82.36"/><line class="cls-5" x1="503" y1="48.42" x2="503" y2="81.03"/><polyline class="cls-5" points="512.31 49.09 513.64 65.06 513.64 82.03"/><polyline class="cls-5" points="492.35 49.75 491.68 65.73 491.68 82.03"/><polyline class="cls-5" points="465.06 66.39 463.73 76.37 464.4 83.69"/><polyline class="cls-5" points="543.59 65.73 544.92 75.71 544.92 83.36"/><path d="M462,383c-1.54,2.91-.9,6,0,10,2.15,9.58,9.48,24.09,18,24,10.91-.11,19-22,16-35C489.05,372.46,466.73,374.09,462,383Z"/><path class="cls-8" d="M446,375c28.5.5,35,1,64.5-.5,1.06,4.51-13.42,13.61-29.5,14.5C464.46,389.91,445.37,379.62,446,375Z"/></g><g id="Layer_3" data-name="Layer 3"><ellipse class="cls-1" cx="164.95" cy="435.07" rx="91.55" ry="41.93"/><path class="cls-2" d="M230.09,383.5H169.71A367.62,367.62,0,0,1,171,327.93c28.62-2,25.29-2,59.23-1.33C230.59,349.47,231,365.57,230.09,383.5Z"/><path class="cls-2" d="M90.44,330.59c3.33,31.94,4.66,43.92,19.3,89.18-22-2-28.34,4.06-28.62,6.65-8,9.32,31.28,14,66.55,6.66,13.31-49.25,12-52.58,15.31-102.49C127,326.6,114.4,327.26,90.44,330.59Z"/><path class="cls-3" d="M223.54,238.75c8,41.93,11.31,57.23,8,92.51-28.62,0-43.93-.67-61.9,1.33-1.33-16,0-18.64.67-35.94a3.42,3.42,0,0,0-2.66,0c-.67,16.64.66,15.31-3.33,36.6-35.94-2-40.6-1.33-75.2-1.33-6-29.28-6-49.91-2-93.83C136.36,242.74,161,248.07,223.54,238.75Z"/><path class="cls-4" d="M209.23,241.75c0,6-.66,4-2.66,9.31,1.74,8.68,16.11,14.24,21.3,10-2.67-12.65-4-24-4.66-22C219.16,237.49,216.55,241.08,209.23,241.75Z"/><line class="cls-5" x1="96.43" y1="372.52" x2="159.65" y2="374.51"/><line class="cls-5" x1="99.76" y1="387.16" x2="158.32" y2="388.49"/><line class="cls-5" x1="169.63" y1="374.51" x2="230.19" y2="376.51"/><line class="cls-5" x1="170.3" y1="385.83" x2="229.53" y2="388.49"/><path class="cls-6" d="M106.74,241.08c-.4,1-2.47,4.3-2,6.66,50.58,13.31,55.57,7,102.15,3.66,1-1.66,3.68-6.86,2-12C160.32,243.41,130,243.74,106.74,241.08Z"/><line class="cls-5" x1="166.97" y1="245.41" x2="166.97" y2="255.72"/><line class="cls-5" x1="148.34" y1="245.41" x2="148.34" y2="256.39"/><circle class="cls-7" cx="157.99" cy="251.06" r="2.33"/><path class="cls-5" d="M158.32,293.32c15.31,4.66,20.41-6.21,30.61-9.31"/><path class="cls-7" d="M99.76,387.16c4.66,15.3,4.66,16.64,10,32.61-14-.67-27.29-.67-29.28,8-2,9.32,31.28,10,67.21,5.33,4.66-18.64,6-23.3,10.65-44.59C129,387.82,121.72,387.82,99.76,387.16Z"/><path class="cls-8" d="M96.43,371.85c2.66,12,2.23,13.06,3.33,14.64,25.29.67,35.27.67,58.56,1.33.34-.58.67-6,1.33-14C129,373.18,124.38,373.18,96.43,371.85Z"/><path class="cls-8" d="M169.63,373.85c-.66,7.32.16,10.29.67,11.31,25.95,1.33,33.94,1.33,59.23,2.66.15-.28.66-2.66.66-12C206.9,375.18,194.92,374.51,169.63,373.85Z"/><path class="cls-5" d="M188.93,340.24c-3.22,2.13-4.73,4.92-4,6.65a2.69,2.69,0,0,0,1.33,1.33"/><path class="cls-5" d="M200.91,346.23c.48,3.16,2,5.56,4,6a3.47,3.47,0,0,0,1.33,0"/><path class="cls-5" d="M209.56,340.24c4.1,1.77,5.29,5.95,4,8-1,1.6-3.84,2.31-6.66,1.34"/><path class="cls-5" d="M217.55,341.57a9.86,9.86,0,0,0,4,5.32,8.29,8.29,0,0,0,1.33.67"/><path class="cls-5" d="M198.92,357.88l-2.67-.67"/><path class="cls-5" d="M193.59,358.21a15.7,15.7,0,0,0-7.32,6.65"/><path class="cls-5" d="M188.93,364.86a4.11,4.11,0,0,0,.67,2.66c1.12,1.59,3.56,2.2,6,1.33"/><path class="cls-5" d="M206.9,364.86l4.1-1.49,3.22-1.17"/><path class="cls-5" d="M212.23,365.53c-.39,2.48.71,4.39,2,4.66a2.63,2.63,0,0,0,2-.67"/><path class="cls-5" d="M220.21,358.87a3,3,0,0,0,1.33,3.33,3,3,0,0,0,2.66,0"/><path class="cls-5" d="M175,355.54c-.22,1.34-.45,2.67-.67,4"/><path class="cls-4" d="M106.74,242.41c-2,10.65-6.65,18.64-10.64,19.3-.3.1-6.8,2.26-10.65-1.33a162.1,162.1,0,0,1,1.33-18"/><path class="cls-2" d="M211,105.53c3.35-2.12,13.29,2.57,15.47,11.61,2.13,8.85-4.23,17.52-8.16,17.24C213.76,116,214.7,120,211,105.53Z"/><path class="cls-9" d="M214.24,113.31c1.66-1.26,6.35-.09,7.58,3.49,1.38,4-2.7,8-4.82,7.66A67.5,67.5,0,0,1,214.24,113.31Z"/><path class="cls-2" d="M99.76,104.32c-3.48-1.89-13.09,3.48-14.64,12.65-1.53,9,5.41,17.19,9.31,16.63C97.76,115,97.09,119,99.76,104.32Z"/><path class="cls-9" d="M97.09,112.31c-1.74-1.15-6.33.34-7.32,4-1.1,4.11,3.24,7.75,5.33,7.32A66.74,66.74,0,0,0,97.09,112.31Z"/><path class="cls-2" d="M155.66,193.5c-31.95-16.64-30.61-16.64-67.22-40.6,7.32-35.27,6.66-45.92,20-71.87C157,77.7,157,77.7,200.25,80.36c12.64,23.3,15.3,36.61,23.29,70.55C190.93,177.53,189.6,176.19,155.66,193.5Z"/><path class="cls-10" d="M152.33,146.25c-20.63-2.66-37.27-4-35.94,4-2.66,6,16.48,10.74,32.61,12,19.71,1.51,39.93-1.33,39.93-9.32C184.94,138.93,165.55,146.77,152.33,146.25Z"/><line class="cls-5" x1="123.71" y1="144.25" x2="121.05" y2="155.56"/><line class="cls-5" x1="129.7" y1="144.25" x2="127.71" y2="158.89"/><line class="cls-5" x1="136.36" y1="144.25" x2="135.69" y2="160.22"/><line class="cls-5" x1="141.02" y1="144.92" x2="141.02" y2="161.55"/><line class="cls-5" x1="182.28" y1="145.58" x2="184.27" y2="158.89"/><line class="cls-5" x1="174.96" y1="144.25" x2="176.95" y2="160.89"/><line class="cls-5" x1="164.98" y1="145.58" x2="165.64" y2="162.22"/><line class="cls-5" x1="169.63" y1="144.92" x2="170.96" y2="162.22"/><line class="cls-5" x1="156.99" y1="146.25" x2="156.99" y2="162.22"/><line class="cls-5" x1="147.67" y1="145.58" x2="147.67" y2="162.22"/><path class="cls-10" d="M135.69,92.34c7.32.31,15.57,5,15.31,9.32S141.46,110,133.7,109c-6.25-.82-13.61-5.11-13.31-9.32S129,92.06,135.69,92.34Z"/><circle class="cls-7" cx="135.69" cy="100.99" r="7.99"/><path class="cls-10" d="M174.29,93c7.32.31,15.57,5,15.31,9.31s-9.54,8.34-17.3,7.32c-6.25-.81-13.61-5.1-13.31-9.31S167.62,92.73,174.29,93Z"/><circle class="cls-7" cx="174.29" cy="101.66" r="7.99"/><line class="cls-5" x1="154.99" y1="109.64" x2="145.68" y2="132.27"/><line class="cls-5" x1="145.68" y1="132.27" x2="162.31" y2="132.27"/><line class="cls-5" x1="187.6" y1="98.33" x2="190.93" y2="95"/><line class="cls-5" x1="183.61" y1="95.67" x2="186.94" y2="90.35"/><line class="cls-5" x1="126.38" y1="93.67" x2="126.38" y2="90.35"/><line class="cls-5" x1="134.36" y1="92.34" x2="134.36" y2="89.68"/><path class="cls-5" d="M157,344.57l-6,10.64"/><path class="cls-5" d="M133,353.88l3.33-8"/><path class="cls-5" d="M127,353.22c-3.79-5.52-4.38-8.5-3.33-10a4.79,4.79,0,0,1,2-1.33c0-.06-3.35,1.34-8,3.33"/><path class="cls-5" d="M111.07,348.56l-7.32-7.32"/><path class="cls-5" d="M105.08,357.88c0,4,1,8.15-6.65,11.31"/><path class="cls-5" d="M115.06,360.54c-.22,3.33-2,6.65-.66,10"/><path class="cls-5" d="M125.71,361.2c2,3.33,0,7.32,6,10"/><path class="cls-5" d="M142.35,359.21c1.33,7.32,4.88,8,7.32,12"/><path class="cls-7" d="M111.74,77c-.61.56-.86-2.89-4.66,3.32C103.75,95,98.43,101.66,99.76,103c2,1.33,1.92-9.39,2.66-8.65s-1.58,9.28-1.33,9.32c4.48.56,9-20.46,8.65-19.3-.82,3-.63,13.65.66,14,1.45.36,6.49-14.89,7.33-14.64.66.2-2.41,9.82-.67,10.65,2.39,1.14,12-15.28,14.64-14,1.25.62,0,4.74,1.33,5.33,1.83.77,5.94-5.77,6.66-5.33s-3.09,7.75-2.67,8,5.36-8.54,6.66-8S142.46,88.85,143,89s3.32-8.9,4.66-8.65.38,9.86,1.33,10,2.67-10.1,4-10S154.36,91,155,91s.86-11.25,2-11.31,2.42,11.39,3.33,11.31.52-10.59,1.33-10.65,1.7,8.7,2.66,8.65.93-7.91,2-8,2.15,8,3.32,8,.92-7.68,2.67-8c2-.34,4.78,9,6,8.65s-.36-8.4.66-8.65,3,6.89,4.66,6.65c1.47-.2,1.41-5.87,2.66-6,1.51-.13,2.74,8,4.66,8,1.76,0,1.87-6.88,4-7.32,4.45-.93,6.29,27.81,8,27.28,1.22-.37.12-14.85,2.66-16,2.35-1,4,11.31,4,11.32a135.68,135.68,0,0,0-10-28.62C176.61,45.74,124,65.64,111.74,77Z"/><line class="cls-5" x1="122.72" y1="103.99" x2="120.72" y2="105.98"/><line class="cls-5" x1="125.05" y1="105.65" x2="124.38" y2="108.31"/><line class="cls-5" x1="127.04" y1="106.98" x2="127.04" y2="109.64"/><line class="cls-5" x1="130.37" y1="108.31" x2="130.37" y2="110.31"/><line class="cls-5" x1="133.03" y1="108.98" x2="133.03" y2="110.98"/><line class="cls-5" x1="136.36" y1="109.64" x2="136.36" y2="111.64"/><line class="cls-5" x1="139.02" y1="108.98" x2="139.69" y2="111.64"/><line class="cls-5" x1="142.35" y1="108.31" x2="143.68" y2="110.98"/><line class="cls-5" x1="145.01" y1="106.98" x2="146.34" y2="109.64"/><line class="cls-5" x1="147.67" y1="106.32" x2="149.67" y2="108.98"/><line class="cls-5" x1="145.68" y1="95" x2="147.67" y2="92.34"/><line class="cls-5" x1="141.02" y1="93.01" x2="141.68" y2="91.01"/><line class="cls-5" x1="160.98" y1="104.32" x2="159.65" y2="105.65"/><line class="cls-5" x1="162.98" y1="106.32" x2="161.65" y2="107.65"/><line class="cls-5" x1="164.98" y1="106.98" x2="164.31" y2="109.64"/><line class="cls-5" x1="168.3" y1="108.98" x2="168.3" y2="110.98"/><line class="cls-5" x1="166.97" y1="108.31" x2="166.31" y2="110.31"/><line class="cls-5" x1="170.96" y1="109.64" x2="170.96" y2="111.64"/><line class="cls-5" x1="173.63" y1="109.64" x2="173.63" y2="111.64"/><line class="cls-5" x1="176.29" y1="109.64" x2="176.29" y2="111.64"/><line class="cls-5" x1="179.62" y1="109.64" x2="180.28" y2="111.64"/><line class="cls-5" x1="182.28" y1="108.31" x2="183.61" y2="110.98"/><line class="cls-5" x1="184.94" y1="107.65" x2="186.27" y2="109.64"/><line class="cls-5" x1="186.94" y1="106.32" x2="188.27" y2="108.31"/><line class="cls-5" x1="188.27" y1="104.99" x2="190.93" y2="106.32"/><line class="cls-5" x1="162.31" y1="95.67" x2="159.65" y2="93.01"/><line class="cls-5" x1="167.64" y1="93.67" x2="165.64" y2="90.35"/><line class="cls-5" x1="174.96" y1="93.01" x2="174.96" y2="89.01"/><path class="cls-11" d="M89.77,151.57c-12.64,39.27-12,67.88-2.66,89.84,36.53,2.73,52.74,4.24,69.48,4.25,19.3,0,48.77-2.75,52.49-3,6-.47,11-.9,14.46-1.21.19-6.23.4-15.76.2-27.43-.19-11.1-.92-20.11-2.2-65.74C156.32,188.84,154.33,188.84,89.77,151.57Z"/><path class="cls-12" d="M175,173.53c-8.65-7.32-4.66-4-11.32-10-2.22-4.82-2.66-8-3.32-12.64-1.81-1.8-2.79-1.06-4-2.67V133.6a4.44,4.44,0,0,0-5.32,0c-4,3.33-.67,8.65-.67,17.31-.91.48-2-.58-2.66,0-2.66,2-.66,10.64,2.66,8,10.1,17.52,8,16.64,14.65,25.29C169.81,184.64,175.79,178,175,173.53Z"/><path class="cls-13" d="M222.54,147.25c19.3,22,7.56,69.09-6.32,75.53-22-.67-35.27-17.3-52.58-38.6.81-5.48,5.46-11.37,10.65-12,11.32,3.33,22,16.64,25.29,22,1.6-.68-6.65-8-2.66-22"/><path class="cls-13" d="M89.44,150.57c-20.63,34.61-9,90.18,7,110.81,4.75.56,10.91-19.94,11.31-21.3-8-10-4-28-1.33-46.58"/><path class="cls-9" d="M156.32,148.91c-4.65,5.32-4.33,6.58-2.66,8,1.41,1.17,3.66.33,7-3C162,151.24,158.08,148.69,156.32,148.91Z"/><path class="cls-9" d="M160.32,154.23c-2,0-6.66,4.66-4.66,8,.88.76,4-.67,6-2.66C162.48,157.2,161.43,154.38,160.32,154.23Z"/><path class="cls-3" d="M167,45.09c.26-.26-4.66,0-15.3-12-12,7.32-19.06,9-19.3,8.65s2.66-8,15.3-12c-12-12.65-9.79-15.47-10-15.31s4.66-3.33,13.31,12.64c8.65-6,20.63-10.64,22.63-8,1.33,2.66-6,6.65-18.64,11.31C169,41.1,166.68,45.39,167,45.09Z"/><path class="cls-3" d="M150.33,32.45c.67,9.31.67,6,.67,15.3a3.92,3.92,0,0,0,3.33-.66,128.35,128.35,0,0,0-.67-14.64A3.93,3.93,0,0,0,150.33,32.45Z"/><ellipse class="cls-7" cx="151.67" cy="30.45" rx="3.33" ry="2.66"/><path class="cls-3" d="M107.08,82.36c-3.57-11.07,18.08-34.79,45.25-35.94,29.12-1.23,52.59,24,49.25,35.27C159,79,147,77.7,107.08,82.36Z"/><polyline class="cls-5" points="125.05 55.74 123.05 71.05 122.38 81.03"/><polyline class="cls-5" points="183.61 55.74 184.94 69.72 184.94 80.7"/><polyline class="cls-5" points="172.3 49.75 173.63 65.72 173.63 80.03"/><polyline class="cls-5" points="135.03 50.42 133.03 67.05 132.37 80.36"/><line class="cls-5" x1="153" y1="46.42" x2="153" y2="79.03"/><polyline class="cls-5" points="162.31 47.09 163.64 63.06 163.64 80.03"/><polyline class="cls-5" points="142.35 47.75 141.68 63.73 141.68 80.03"/><polyline class="cls-5" points="115.06 64.39 113.73 74.37 114.4 81.69"/><polyline class="cls-5" points="193.59 63.73 194.92 73.71 194.92 81.36"/><path class="cls-7" d="M170,380.31c.95,22.62,3.74,32.57,8.61,49.14C199,431,178,430,220,434c2-4,4-6,6.31-18.46,1.18-12.66,2.53-20.21,3.69-33.54C199.37,381.06,193.94,381.34,170,380.31Z"/><path class="cls-14" d="M229,397c-16.49-.79-37.65,10.58-51,31,2.77,9.14,20.23,6.79,43,6C235.92,412.8,236,400,229,397Z"/></g><g id="Layer_7" data-name="Layer 7"><ellipse class="cls-1" cx="1213.95" cy="434.07" rx="91.55" ry="41.93"/><path class="cls-2" d="M1140.44,330.59c3.33,31.94,4.66,43.92,19.3,89.18-22-2-28.34,4.06-28.62,6.65-8,9.32,31.28,14,66.55,6.66,13.31-49.25,12-52.58,15.31-102.49C1177,326.6,1164.4,327.26,1140.44,330.59Z"/><path class="cls-7" d="M1149.76,387.16c4.66,15.3,4.66,16.64,10,32.61-14-.67-27.29-.67-29.28,8-2,9.32,31.28,10,67.21,5.33,4.66-18.64,6-23.3,10.65-44.59C1179,387.82,1171.72,387.82,1149.76,387.16Z"/><path class="cls-8" d="M1146.43,371.85c2.66,12,2.23,13.06,3.33,14.64,25.29.67,35.27.67,58.56,1.33.34-.58.67-6,1.33-14C1179,373.18,1174.38,373.18,1146.43,371.85Z"/><path class="cls-5" d="M1207,344.57l-6,10.64"/><path class="cls-5" d="M1183,353.88l3.33-8"/><path class="cls-5" d="M1177,353.22c-3.79-5.52-4.38-8.5-3.33-10a4.79,4.79,0,0,1,2-1.33c0-.06-3.35,1.34-8,3.33"/><path class="cls-5" d="M1161.07,348.56l-7.32-7.32"/><path class="cls-5" d="M1155.08,357.88c.05,4,1.05,8.15-6.65,11.31"/><path class="cls-5" d="M1165.06,360.54c-.22,3.33-2,6.65-.66,10"/><path class="cls-5" d="M1175.71,361.2c2,3.33,0,7.32,6,10"/><path class="cls-5" d="M1192.35,359.21c1.33,7.32,4.88,8,7.32,12"/><path class="cls-2" d="M1281.5,328.5c-1.33,19.93.08,31-1,42l-58,1c-3.16-14.33-1.17-26.45-3-44C1243.46,324.17,1245.56,324.51,1281.5,328.5Z"/><path class="cls-3" d="M1273.54,237.75c8,41.93,11.31,57.23,8,92.51-28.62,0-43.93-.67-61.9,1.33-1.33-16,0-18.64.67-35.94a3.42,3.42,0,0,0-2.66,0c-.67,16.64.66,15.31-3.33,36.6-35.94-2-40.6-1.33-75.2-1.33-6-29.28-6-49.91-2-93.83C1186.36,241.74,1211,247.07,1273.54,237.75Z"/><path class="cls-4" d="M1259.23,240.75c0,6-.66,4-2.66,9.31,1.74,8.68,16.11,14.24,21.3,10-2.67-12.65-4-24-4.66-22C1269.16,236.49,1266.55,240.08,1259.23,240.75Z"/><path class="cls-6" d="M1156.74,240.08c-.4,1-2.47,4.3-2,6.66,50.58,13.31,55.57,7,102.15,3.66,1-1.66,3.68-6.86,2-12C1210.32,242.41,1180,242.74,1156.74,240.08Z"/><line class="cls-5" x1="1216.97" y1="244.41" x2="1216.97" y2="254.72"/><line class="cls-5" x1="1198.34" y1="244.41" x2="1198.34" y2="255.39"/><circle class="cls-7" cx="1207.99" cy="250.06" r="2.33"/><path class="cls-5" d="M1208.32,292.32c15.31,4.66,20.41-6.21,30.61-9.31"/><path class="cls-4" d="M1156.74,241.41c-2,10.65-6.65,18.64-10.64,19.3-.3.1-6.8,2.26-10.65-1.33a162.1,162.1,0,0,1,1.33-18"/><path class="cls-2" d="M1261,104.53c3.35-2.12,13.29,2.57,15.47,11.61,2.13,8.85-4.23,17.52-8.16,17.24C1263.76,115,1264.7,119,1261,104.53Z"/><path class="cls-9" d="M1264.24,112.31c1.66-1.26,6.35-.09,7.58,3.49,1.38,4-2.7,8-4.82,7.66A67.5,67.5,0,0,1,1264.24,112.31Z"/><path class="cls-2" d="M1149.76,103.32c-3.48-1.89-13.09,3.48-14.64,12.65-1.53,9,5.41,17.19,9.31,16.63C1147.76,114,1147.09,118,1149.76,103.32Z"/><path class="cls-9" d="M1147.09,111.31c-1.74-1.15-6.33.34-7.32,4-1.1,4.11,3.24,7.75,5.33,7.32A66.74,66.74,0,0,0,1147.09,111.31Z"/><path class="cls-2" d="M1205.66,192.5c-32-16.64-30.61-16.64-67.22-40.6,7.32-35.27,6.66-45.92,20-71.87,48.58-3.33,48.58-3.33,91.84-.67,12.64,23.3,15.3,36.61,23.29,70.55C1240.93,176.53,1239.6,175.19,1205.66,192.5Z"/><path class="cls-10" d="M1202.33,145.25c-20.63-2.66-37.27-4-35.94,4-2.66,6,16.48,10.74,32.61,12,19.71,1.51,39.93-1.33,39.93-9.32C1234.94,137.93,1215.55,145.77,1202.33,145.25Z"/><line class="cls-5" x1="1173.71" y1="143.25" x2="1171.05" y2="154.56"/><line class="cls-5" x1="1179.7" y1="143.25" x2="1177.71" y2="157.89"/><line class="cls-5" x1="1186.36" y1="143.25" x2="1185.69" y2="159.22"/><line class="cls-5" x1="1191.02" y1="143.92" x2="1191.02" y2="160.55"/><line class="cls-5" x1="1232.28" y1="144.58" x2="1234.27" y2="157.89"/><line class="cls-5" x1="1224.96" y1="143.25" x2="1226.95" y2="159.89"/><line class="cls-5" x1="1214.98" y1="144.58" x2="1215.64" y2="161.22"/><line class="cls-5" x1="1219.63" y1="143.92" x2="1220.96" y2="161.22"/><line class="cls-5" x1="1206.99" y1="145.25" x2="1206.99" y2="161.22"/><line class="cls-5" x1="1197.67" y1="144.58" x2="1197.67" y2="161.22"/><path class="cls-10" d="M1185.69,91.34c7.32.31,15.57,5,15.31,9.32s-9.54,8.34-17.3,7.32c-6.25-.82-13.61-5.11-13.31-9.32S1179,91.06,1185.69,91.34Z"/><circle class="cls-7" cx="1185.69" cy="99.99" r="7.99"/><path class="cls-10" d="M1224.29,92c7.32.31,15.57,5,15.31,9.31s-9.54,8.34-17.3,7.32c-6.25-.81-13.61-5.1-13.31-9.31S1217.62,91.73,1224.29,92Z"/><circle class="cls-7" cx="1224.29" cy="100.66" r="7.99"/><line class="cls-5" x1="1204.99" y1="108.64" x2="1195.68" y2="131.27"/><line class="cls-5" x1="1195.68" y1="131.27" x2="1212.31" y2="131.27"/><line class="cls-5" x1="1237.6" y1="97.33" x2="1240.93" y2="94"/><line class="cls-5" x1="1233.61" y1="94.67" x2="1236.94" y2="89.35"/><line class="cls-5" x1="1176.38" y1="92.67" x2="1176.38" y2="89.35"/><line class="cls-5" x1="1184.36" y1="91.34" x2="1184.36" y2="88.68"/><path class="cls-7" d="M1161.74,76c-.61.56-.86-2.89-4.66,3.32-3.33,14.64-8.65,21.3-7.32,22.63,2,1.33,1.92-9.39,2.66-8.65s-1.58,9.28-1.33,9.32c4.48.56,9-20.46,8.65-19.3-.82,3-.63,13.65.66,14,1.45.36,6.49-14.89,7.33-14.64.66.2-2.41,9.82-.67,10.65,2.39,1.14,12-15.28,14.64-14,1.25.62,0,4.74,1.33,5.33,1.83.77,5.94-5.77,6.66-5.33s-3.09,7.75-2.67,8,5.36-8.54,6.66-8-1.22,8.49-.67,8.65,3.32-8.9,4.66-8.65.38,9.86,1.33,10,2.67-10.1,4-10S1204.36,90,1205,90s.86-11.25,2-11.31,2.42,11.39,3.33,11.31.52-10.59,1.33-10.65,1.7,8.7,2.66,8.65.93-7.91,2-8,2.15,8,3.32,8,.92-7.68,2.67-8c2-.34,4.78,9,6,8.65s-.36-8.4.66-8.65,3,6.89,4.66,6.65c1.47-.2,1.41-5.87,2.66-6,1.51-.13,2.74,8,4.66,8,1.76,0,1.87-6.88,4-7.32,4.45-.93,6.29,27.81,8,27.28,1.22-.37.12-14.85,2.66-16,2.35-1,4,11.31,4,11.32a135.68,135.68,0,0,0-10-28.62C1226.61,44.74,1174,64.64,1161.74,76Z"/><line class="cls-5" x1="1172.72" y1="102.99" x2="1170.72" y2="104.98"/><line class="cls-5" x1="1175.05" y1="104.65" x2="1174.38" y2="107.31"/><line class="cls-5" x1="1177.04" y1="105.98" x2="1177.04" y2="108.64"/><line class="cls-5" x1="1180.37" y1="107.31" x2="1180.37" y2="109.31"/><line class="cls-5" x1="1183.03" y1="107.98" x2="1183.03" y2="109.98"/><line class="cls-5" x1="1186.36" y1="108.64" x2="1186.36" y2="110.64"/><line class="cls-5" x1="1189.02" y1="107.98" x2="1189.69" y2="110.64"/><line class="cls-5" x1="1192.35" y1="107.31" x2="1193.68" y2="109.98"/><line class="cls-5" x1="1195.01" y1="105.98" x2="1196.34" y2="108.64"/><line class="cls-5" x1="1197.67" y1="105.32" x2="1199.67" y2="107.98"/><line class="cls-5" x1="1195.68" y1="94" x2="1197.67" y2="91.34"/><line class="cls-5" x1="1191.02" y1="92.01" x2="1191.68" y2="90.01"/><line class="cls-5" x1="1210.98" y1="103.32" x2="1209.65" y2="104.65"/><line class="cls-5" x1="1212.98" y1="105.32" x2="1211.65" y2="106.65"/><line class="cls-5" x1="1214.98" y1="105.98" x2="1214.31" y2="108.64"/><line class="cls-5" x1="1218.3" y1="107.98" x2="1218.3" y2="109.98"/><line class="cls-5" x1="1216.97" y1="107.31" x2="1216.31" y2="109.31"/><line class="cls-5" x1="1220.96" y1="108.64" x2="1220.96" y2="110.64"/><line class="cls-5" x1="1223.63" y1="108.64" x2="1223.63" y2="110.64"/><line class="cls-5" x1="1226.29" y1="108.64" x2="1226.29" y2="110.64"/><line class="cls-5" x1="1229.62" y1="108.64" x2="1230.28" y2="110.64"/><line class="cls-5" x1="1232.28" y1="107.31" x2="1233.61" y2="109.98"/><line class="cls-5" x1="1234.94" y1="106.65" x2="1236.27" y2="108.64"/><line class="cls-5" x1="1236.94" y1="105.32" x2="1238.27" y2="107.31"/><line class="cls-5" x1="1238.27" y1="103.99" x2="1240.93" y2="105.32"/><line class="cls-5" x1="1212.31" y1="94.67" x2="1209.65" y2="92.01"/><line class="cls-5" x1="1217.64" y1="92.67" x2="1215.64" y2="89.35"/><line class="cls-5" x1="1224.96" y1="92.01" x2="1224.96" y2="88.01"/><path class="cls-11" d="M1139.77,150.57c-12.64,39.27-12,67.88-2.66,89.84,36.53,2.73,52.74,4.24,69.48,4.25,19.3,0,48.77-2.75,52.49-3,6-.47,11-.9,14.46-1.21.19-6.23.4-15.76.2-27.43-.19-11.1-.92-20.11-2.2-65.74C1206.32,187.84,1204.33,187.84,1139.77,150.57Z"/><path class="cls-12" d="M1225,172.53c-8.65-7.32-4.66-4-11.32-10-2.22-4.82-2.66-8-3.32-12.64-1.81-1.8-2.79-1.06-4-2.67V132.6a4.44,4.44,0,0,0-5.32,0c-4,3.33-.67,8.65-.67,17.31-.91.48-2-.58-2.66,0-2.66,2-.66,10.64,2.66,8,10.1,17.52,8,16.64,14.65,25.29C1219.81,183.64,1225.79,177,1225,172.53Z"/><path class="cls-13" d="M1272.54,146.25c19.3,22,7.56,69.09-6.32,75.53-22-.67-35.27-17.3-52.58-38.6.81-5.48,5.46-11.37,10.65-12,11.32,3.33,22,16.64,25.29,22,1.6-.68-6.65-8-2.66-22"/><path class="cls-13" d="M1139.44,149.57c-20.63,34.61-9,90.18,7,110.81,4.75.56,10.91-19.94,11.31-21.3-8-10-4-28-1.33-46.58"/><path class="cls-9" d="M1206.32,147.91c-4.65,5.32-4.33,6.58-2.66,8,1.41,1.17,3.66.33,7-3C1212,150.24,1208.08,147.69,1206.32,147.91Z"/><path class="cls-9" d="M1210.32,153.23c-2,0-6.66,4.66-4.66,8,.88.76,4-.67,6-2.66C1212.48,156.2,1211.43,153.38,1210.32,153.23Z"/><path class="cls-3" d="M1217,44.09c.26-.26-4.66,0-15.3-12-12,7.32-19.06,9-19.3,8.65s2.66-8,15.3-12c-12-12.65-9.79-15.47-10-15.31s4.66-3.33,13.31,12.64c8.65-6,20.63-10.64,22.63-8,1.33,2.66-6,6.65-18.64,11.31C1219,40.1,1216.68,44.39,1217,44.09Z"/><path class="cls-3" d="M1200.33,31.45c.67,9.31.67,6,.67,15.3a3.92,3.92,0,0,0,3.33-.66,128.35,128.35,0,0,0-.67-14.64A3.93,3.93,0,0,0,1200.33,31.45Z"/><ellipse class="cls-7" cx="1201.67" cy="29.45" rx="3.33" ry="2.66"/><path class="cls-3" d="M1157.08,81.36c-3.57-11.07,18.08-34.79,45.25-35.94,29.12-1.23,52.59,24,49.25,35.27C1209,78,1197,76.7,1157.08,81.36Z"/><polyline class="cls-5" points="1175.05 54.74 1173.05 70.05 1172.38 80.03"/><polyline class="cls-5" points="1233.61 54.74 1234.94 68.72 1234.94 79.7"/><polyline class="cls-5" points="1222.3 48.75 1223.63 64.72 1223.63 79.03"/><polyline class="cls-5" points="1185.03 49.42 1183.03 66.05 1182.37 79.36"/><line class="cls-5" x1="1203" y1="45.42" x2="1203" y2="78.03"/><polyline class="cls-5" points="1212.31 46.09 1213.64 62.06 1213.64 79.03"/><polyline class="cls-5" points="1192.35 46.75 1191.68 62.73 1191.68 79.03"/><polyline class="cls-5" points="1165.06 63.39 1163.73 73.37 1164.4 80.69"/><polyline class="cls-5" points="1243.59 62.73 1244.92 72.71 1244.92 80.36"/><path d="M1236,378.5c-1.54,2.91-.9,6,0,10,2.15,9.58,9.48,24.09,18,24,10.91-.11,19-22,16-35C1263.05,368,1240.73,369.59,1236,378.5Z"/><path class="cls-8" d="M1221.5,370.5c28.5.5,29.5,1.5,59,0,1.06,4.51-9.42,13.11-25.5,14C1238.46,385.41,1220.87,375.12,1221.5,370.5Z"/><path class="cls-5" d="M1240.93,337.24c-3.22,2.13-4.73,4.92-4,6.65a2.69,2.69,0,0,0,1.33,1.33"/><path class="cls-5" d="M1252.91,343.23c.48,3.16,2,5.56,4,6a3.47,3.47,0,0,0,1.33,0"/><path class="cls-5" d="M1261.56,337.24c4.1,1.77,5.29,5.95,4,8-1,1.6-3.84,2.31-6.66,1.34"/><path class="cls-5" d="M1269.55,338.57a9.86,9.86,0,0,0,4,5.32,8.29,8.29,0,0,0,1.33.67"/><path class="cls-5" d="M1250.92,353.88l-2.67-.67"/><path class="cls-5" d="M1245.59,355.21a15.7,15.7,0,0,0-7.32,6.65"/><path class="cls-5" d="M1240.93,361.86a4.11,4.11,0,0,0,.67,2.66c1.12,1.59,3.56,2.2,6,1.33"/><path class="cls-5" d="M1258.9,361.86l4.1-1.49,3.22-1.17"/><path class="cls-5" d="M1264.23,362.53c-.39,2.48.71,4.39,2,4.66a2.63,2.63,0,0,0,2-.67"/><path class="cls-5" d="M1272.21,355.87a3,3,0,0,0,1.33,3.33,3,3,0,0,0,2.66,0"/><path class="cls-5" d="M1227,352.54c-.22,1.34-.45,2.67-.67,4"/></g><g id="Layer_5" data-name="Layer 5"><ellipse class="cls-1" cx="861.95" cy="438.07" rx="91.55" ry="41.93"/><path class="cls-2" d="M928.09,382.5H867.71A367.62,367.62,0,0,1,869,326.93c28.62-2,25.29-2,59.23-1.33C928.59,348.47,929,364.57,928.09,382.5Z"/><path class="cls-2" d="M860,328.59c-1.73,25.92-2.2,39.27-4.12,53h0q-.29,2.08-.63,4.2l0,.18c0,.16-.05.33-.08.49L833.75,386H797.13c-.08-.28-.16-.56-.23-.84l-.21-.77q-.74-2.79-1.38-5.38c-4.44-17.87-5.75-30.11-7.87-50.42C811.4,325.26,824,324.6,860,328.59Z"/><path class="cls-3" d="M921.54,237.75c8,41.93,11.31,57.23,8,92.51-28.62,0-43.93-.67-61.9,1.33-1.33-16,0-18.64.67-35.94a3.42,3.42,0,0,0-2.66,0c-.67,16.64.66,15.31-3.33,36.6-35.94-2-40.6-1.33-75.2-1.33-6-29.28-6-49.91-2-93.83C834.36,241.74,859,247.07,921.54,237.75Z"/><path class="cls-4" d="M907.23,240.75c0,6-.66,4-2.66,9.31,1.74,8.68,16.11,14.24,21.3,10-2.67-12.65-4-24-4.66-22C917.16,236.49,914.55,240.08,907.23,240.75Z"/><line class="cls-5" x1="793.43" y1="370.52" x2="856.65" y2="372.51"/><polyline class="cls-5" points="855.32 386.49 855.12 386.49 833.75 386 796.9 385.16 796.76 385.16"/><line class="cls-5" x1="867.63" y1="373.51" x2="928.19" y2="375.51"/><line class="cls-5" x1="868.3" y1="384.83" x2="927.53" y2="387.49"/><path class="cls-6" d="M804.74,240.08c-.4,1-2.47,4.3-2,6.66,50.58,13.31,55.57,7,102.15,3.66,1.05-1.66,3.68-6.86,2-12C858.32,242.41,828,242.74,804.74,240.08Z"/><line class="cls-5" x1="864.97" y1="244.41" x2="864.97" y2="254.72"/><line class="cls-5" x1="846.34" y1="244.41" x2="846.34" y2="255.39"/><circle class="cls-7" cx="855.99" cy="250.06" r="2.33"/><path class="cls-5" d="M856.32,292.32c15.31,4.66,20.41-6.21,30.61-9.31"/><path class="cls-7" d="M927,387c-4.66,15.31-5.54,20.8-10.86,36.77,14-.67,27.28-.67,29.28,8,2,9.32-31.28,10-67.22,5.33-4.65-18.64-5.54-31.78-10.2-53.08C897.28,383.33,905,387.67,927,387Z"/><path class="cls-8" d="M793.43,369.85c2.66,12,2.23,13.06,3.33,14.64,25.29.67,35.27.67,58.56,1.33.34-.58.67-6,1.33-14C826,371.18,821.38,371.18,793.43,369.85Z"/><path class="cls-8" d="M867.63,372.85c-.66,7.32.16,10.29.67,11.31,26,1.33,33.94,1.33,59.23,2.66.15-.28.66-2.66.66-12C904.9,374.18,892.92,373.51,867.63,372.85Z"/><path class="cls-5" d="M886.93,339.24c-3.22,2.13-4.73,4.92-4,6.65a2.69,2.69,0,0,0,1.33,1.33"/><path class="cls-5" d="M898.91,345.23c.48,3.16,2,5.56,4,6a3.47,3.47,0,0,0,1.33,0"/><path class="cls-5" d="M907.56,339.24c4.1,1.77,5.29,5.95,4,8-1,1.6-3.84,2.31-6.66,1.34"/><path class="cls-5" d="M915.55,340.57a9.86,9.86,0,0,0,4,5.32,8.29,8.29,0,0,0,1.33.67"/><path class="cls-5" d="M896.92,356.88l-2.67-.67"/><path class="cls-5" d="M891.59,357.21a15.7,15.7,0,0,0-7.32,6.65"/><path class="cls-5" d="M886.93,363.86a4.11,4.11,0,0,0,.67,2.66c1.12,1.59,3.56,2.2,6,1.33"/><path class="cls-5" d="M904.9,363.86l4.1-1.49,3.22-1.17"/><path class="cls-5" d="M910.23,364.53c-.39,2.48.71,4.39,2,4.66a2.63,2.63,0,0,0,2-.67"/><path class="cls-5" d="M918.21,357.87a3,3,0,0,0,1.33,3.33,3,3,0,0,0,2.66,0"/><path class="cls-5" d="M873,354.54c-.22,1.34-.45,2.67-.67,4"/><path class="cls-4" d="M804.74,241.41c-2,10.65-6.65,18.64-10.64,19.3-.3.1-6.8,2.26-10.65-1.33a162.1,162.1,0,0,1,1.33-18"/><path class="cls-2" d="M909,104.53c3.35-2.12,13.29,2.57,15.47,11.61,2.13,8.85-4.23,17.52-8.16,17.24C911.76,115,912.7,119,909,104.53Z"/><path class="cls-9" d="M912.24,112.31c1.66-1.26,6.35-.09,7.58,3.49,1.38,4-2.7,8-4.82,7.66A67.5,67.5,0,0,1,912.24,112.31Z"/><path class="cls-2" d="M797.76,103.32c-3.48-1.89-13.09,3.48-14.64,12.65-1.53,9,5.41,17.19,9.31,16.63C795.76,114,795.09,118,797.76,103.32Z"/><path class="cls-9" d="M795.09,111.31c-1.74-1.15-6.33.34-7.32,4-1.1,4.11,3.24,7.75,5.33,7.32A66.74,66.74,0,0,0,795.09,111.31Z"/><path class="cls-2" d="M853.66,192.5c-31.95-16.64-30.61-16.64-67.22-40.6,7.32-35.27,6.66-45.92,20-71.87C855,76.7,855,76.7,898.25,79.36c12.64,23.3,15.3,36.61,23.29,70.55C888.93,176.53,887.6,175.19,853.66,192.5Z"/><path class="cls-10" d="M850.33,145.25c-20.63-2.66-37.27-4-35.94,4-2.66,6,16.48,10.74,32.61,12,19.71,1.51,39.93-1.33,39.93-9.32C882.94,137.93,863.55,145.77,850.33,145.25Z"/><line class="cls-5" x1="821.71" y1="143.25" x2="819.05" y2="154.56"/><line class="cls-5" x1="827.7" y1="143.25" x2="825.71" y2="157.89"/><line class="cls-5" x1="834.36" y1="143.25" x2="833.69" y2="159.22"/><line class="cls-5" x1="839.02" y1="143.92" x2="839.02" y2="160.55"/><line class="cls-5" x1="880.28" y1="144.58" x2="882.27" y2="157.89"/><line class="cls-5" x1="872.96" y1="143.25" x2="874.95" y2="159.89"/><line class="cls-5" x1="862.98" y1="144.58" x2="863.64" y2="161.22"/><line class="cls-5" x1="867.63" y1="143.92" x2="868.96" y2="161.22"/><line class="cls-5" x1="854.99" y1="145.25" x2="854.99" y2="161.22"/><line class="cls-5" x1="845.67" y1="144.58" x2="845.67" y2="161.22"/><path class="cls-10" d="M833.69,91.34c7.32.31,15.57,5,15.31,9.32S839.46,109,831.7,108c-6.25-.82-13.61-5.11-13.31-9.32S827,91.06,833.69,91.34Z"/><circle class="cls-7" cx="833.69" cy="99.99" r="7.99"/><path class="cls-10" d="M872.29,92c7.32.31,15.57,5,15.31,9.31s-9.54,8.34-17.3,7.32c-6.25-.81-13.61-5.1-13.31-9.31S865.62,91.73,872.29,92Z"/><circle class="cls-7" cx="872.29" cy="100.66" r="7.99"/><line class="cls-5" x1="852.99" y1="108.64" x2="843.68" y2="131.27"/><line class="cls-5" x1="843.68" y1="131.27" x2="860.31" y2="131.27"/><line class="cls-5" x1="885.6" y1="97.33" x2="888.93" y2="94"/><line class="cls-5" x1="881.61" y1="94.67" x2="884.94" y2="89.35"/><line class="cls-5" x1="824.38" y1="92.67" x2="824.38" y2="89.35"/><line class="cls-5" x1="832.36" y1="91.34" x2="832.36" y2="88.68"/><path class="cls-5" d="M854,342.57l-6,10.64"/><path class="cls-5" d="M830,351.88l3.33-8"/><path class="cls-5" d="M824,351.22c-3.79-5.52-4.38-8.5-3.33-10a4.79,4.79,0,0,1,2-1.33c0-.06-3.35,1.34-8,3.33"/><path class="cls-5" d="M808.07,346.56l-7.32-7.32"/><path class="cls-5" d="M802.08,355.88c0,4,1,8.15-6.65,11.31"/><path class="cls-5" d="M812.06,358.54c-.22,3.33-2,6.65-.66,10"/><path class="cls-5" d="M822.71,359.2c2,3.33,0,7.32,6,10"/><path class="cls-5" d="M839.35,357.21c1.33,7.32,4.88,8,7.32,12"/><path class="cls-7" d="M809.74,76c-.61.56-.86-2.89-4.66,3.32-3.33,14.64-8.65,21.3-7.32,22.63,2,1.33,1.92-9.39,2.66-8.65s-1.58,9.28-1.33,9.32c4.48.56,9-20.46,8.65-19.3-.82,3-.63,13.65.66,14,1.45.36,6.49-14.89,7.33-14.64.66.2-2.41,9.82-.67,10.65,2.39,1.14,12-15.28,14.64-14,1.25.62,0,4.74,1.33,5.33,1.83.77,5.94-5.77,6.66-5.33s-3.09,7.75-2.67,8,5.36-8.54,6.66-8S840.46,87.85,841,88s3.32-8.9,4.66-8.65.38,9.86,1.33,10,2.67-10.1,4-10S852.36,90,853,90s.86-11.25,2-11.31,2.42,11.39,3.33,11.31.52-10.59,1.33-10.65,1.7,8.7,2.66,8.65.93-7.91,2-8,2.15,8,3.32,8,.92-7.68,2.67-8c2-.34,4.78,9,6,8.65s-.36-8.4.66-8.65,3,6.89,4.66,6.65c1.47-.2,1.41-5.87,2.66-6,1.51-.13,2.74,8,4.66,8,1.76,0,1.87-6.88,4-7.32,4.45-.93,6.29,27.81,8,27.28,1.22-.37.12-14.85,2.66-16,2.35-1,4,11.31,4,11.32a135.68,135.68,0,0,0-10-28.62C874.61,44.74,822,64.64,809.74,76Z"/><line class="cls-5" x1="820.72" y1="102.99" x2="818.72" y2="104.98"/><line class="cls-5" x1="823.05" y1="104.65" x2="822.38" y2="107.31"/><line class="cls-5" x1="825.04" y1="105.98" x2="825.04" y2="108.64"/><line class="cls-5" x1="828.37" y1="107.31" x2="828.37" y2="109.31"/><line class="cls-5" x1="831.03" y1="107.98" x2="831.03" y2="109.98"/><line class="cls-5" x1="834.36" y1="108.64" x2="834.36" y2="110.64"/><line class="cls-5" x1="837.02" y1="107.98" x2="837.69" y2="110.64"/><line class="cls-5" x1="840.35" y1="107.31" x2="841.68" y2="109.98"/><line class="cls-5" x1="843.01" y1="105.98" x2="844.34" y2="108.64"/><line class="cls-5" x1="845.67" y1="105.32" x2="847.67" y2="107.98"/><line class="cls-5" x1="843.68" y1="94" x2="845.67" y2="91.34"/><line class="cls-5" x1="839.02" y1="92.01" x2="839.68" y2="90.01"/><line class="cls-5" x1="858.98" y1="103.32" x2="857.65" y2="104.65"/><line class="cls-5" x1="860.98" y1="105.32" x2="859.65" y2="106.65"/><line class="cls-5" x1="862.98" y1="105.98" x2="862.31" y2="108.64"/><line class="cls-5" x1="866.3" y1="107.98" x2="866.3" y2="109.98"/><line class="cls-5" x1="864.97" y1="107.31" x2="864.31" y2="109.31"/><line class="cls-5" x1="868.96" y1="108.64" x2="868.96" y2="110.64"/><line class="cls-5" x1="871.63" y1="108.64" x2="871.63" y2="110.64"/><line class="cls-5" x1="874.29" y1="108.64" x2="874.29" y2="110.64"/><line class="cls-5" x1="877.62" y1="108.64" x2="878.28" y2="110.64"/><line class="cls-5" x1="880.28" y1="107.31" x2="881.61" y2="109.98"/><line class="cls-5" x1="882.94" y1="106.65" x2="884.27" y2="108.64"/><line class="cls-5" x1="884.94" y1="105.32" x2="886.27" y2="107.31"/><line class="cls-5" x1="886.27" y1="103.99" x2="888.93" y2="105.32"/><line class="cls-5" x1="860.31" y1="94.67" x2="857.65" y2="92.01"/><line class="cls-5" x1="865.64" y1="92.67" x2="863.64" y2="89.35"/><line class="cls-5" x1="872.96" y1="92.01" x2="872.96" y2="88.01"/><path class="cls-11" d="M787.77,150.57c-12.64,39.27-12,67.88-2.66,89.84,36.53,2.73,52.74,4.24,69.48,4.25,19.3,0,48.77-2.75,52.49-3,6-.47,11-.9,14.46-1.21.19-6.23.4-15.76.2-27.43-.19-11.1-.92-20.11-2.2-65.74C854.32,187.84,852.33,187.84,787.77,150.57Z"/><path class="cls-12" d="M873,172.53c-8.65-7.32-4.66-4-11.32-10-2.22-4.82-2.66-8-3.32-12.64-1.81-1.8-2.79-1.06-4-2.67V132.6a4.44,4.44,0,0,0-5.32,0c-4,3.33-.67,8.65-.67,17.31-.91.48-2-.58-2.66,0-2.66,2-.66,10.64,2.66,8,10.1,17.52,8,16.64,14.65,25.29C867.81,183.64,873.79,177,873,172.53Z"/><path class="cls-13" d="M920.54,146.25c19.3,22,7.56,69.09-6.32,75.53-22-.67-35.27-17.3-52.58-38.6.81-5.48,5.46-11.37,10.65-12,11.32,3.33,22,16.64,25.29,22,1.6-.68-6.65-8-2.66-22"/><path class="cls-13" d="M787.44,149.57c-20.63,34.61-9,90.18,7,110.81,4.75.56,10.91-19.94,11.31-21.3-8-10-4-28-1.33-46.58"/><path class="cls-9" d="M854.32,147.91c-4.65,5.32-4.33,6.58-2.66,8,1.41,1.17,3.66.33,7-3C860,150.24,856.08,147.69,854.32,147.91Z"/><path class="cls-9" d="M858.32,153.23c-2,0-6.66,4.66-4.66,8,.88.76,4-.67,6-2.66C860.48,156.2,859.43,153.38,858.32,153.23Z"/><path class="cls-3" d="M865,44.09c.26-.26-4.66,0-15.3-12-12,7.32-19.06,9-19.3,8.65s2.66-8,15.3-12c-12-12.65-9.79-15.47-10-15.31s4.66-3.33,13.31,12.64c8.65-6,20.63-10.64,22.63-8,1.33,2.66-6,6.65-18.64,11.31C867,40.1,864.68,44.39,865,44.09Z"/><path class="cls-3" d="M848.33,31.45c.67,9.31.67,6,.67,15.3a3.92,3.92,0,0,0,3.33-.66,128.35,128.35,0,0,0-.67-14.64A3.93,3.93,0,0,0,848.33,31.45Z"/><ellipse class="cls-7" cx="849.67" cy="29.45" rx="3.33" ry="2.66"/><path class="cls-3" d="M805.08,81.36c-3.57-11.07,18.08-34.79,45.25-35.94,29.12-1.23,52.59,24,49.25,35.27C857,78,845,76.7,805.08,81.36Z"/><polyline class="cls-5" points="823.05 54.74 821.05 70.05 820.38 80.03"/><polyline class="cls-5" points="881.61 54.74 882.94 68.72 882.94 79.7"/><polyline class="cls-5" points="870.3 48.75 871.63 64.72 871.63 79.03"/><polyline class="cls-5" points="833.03 49.42 831.03 66.05 830.37 79.36"/><line class="cls-5" x1="851" y1="45.42" x2="851" y2="78.03"/><polyline class="cls-5" points="860.31 46.09 861.64 62.06 861.64 79.03"/><polyline class="cls-5" points="840.35 46.75 839.68 62.73 839.68 79.03"/><polyline class="cls-5" points="813.06 63.39 811.73 73.37 812.4 80.69"/><polyline class="cls-5" points="891.59 62.73 892.92 72.71 892.92 80.36"/><path class="cls-7" d="M855.91,380.31c-.95,22.62-3.73,32.57-8.6,49.14-20.43,1.55.57.55-41.43,4.55-2-4-4-6-6.32-18.46-1.17-12.66-2.52-20.21-3.68-33.54C826.5,381.06,831.94,381.34,855.91,380.31Z"/><path class="cls-14" d="M796.88,397c16.49-.79,37.65,10.58,51,31-2.77,9.14-20.23,6.79-43,6C790,412.8,789.88,400,796.88,397Z"/><path class="cls-7" d="M855.2,386c0,.16-.05.33-.08.49L833.75,386Z"/></g></svg>
