<svg xmlns="http://www.w3.org/2000/svg" width="1920" height="1080" viewBox="0 0 1920 1080">
  <defs>
    <style>
      .cls-1, .cls-10, .cls-5, .cls-7 {
        stroke: #000;
        stroke-miterlimit: 10;
      }

      .cls-1 {
        opacity: 0.3;
      }

      .cls-2 {
        fill: #f3d3c3;
      }

      .cls-3 {
        fill: #ff6700;
      }

      .cls-4 {
        fill: #c15105;
      }

      .cls-5 {
        fill: none;
      }

      .cls-6 {
        fill: #3a1f0d;
      }

      .cls-10, .cls-8 {
        fill: #fff;
      }

      .cls-9 {
        fill: #e5af9e;
      }

      .cls-11 {
        fill: blue;
      }

      .cls-12 {
        fill: #edbda9;
      }

      .cls-13 {
        fill: #1515ba;
      }
    </style>
  </defs>
  <title>nørd_sprite_tilkasper</title>
  <g id="Layer_6" data-name="Layer 6">
    <ellipse class="cls-1" cx="1064.47" cy="890.5" rx="137.56" ry="63"/>
    <path class="cls-2" d="M1073.5,726.5c-7,67,1,142,11,164,60,11,101,10,103-6,0-4.73-4-11-31-14,8-60,7-89,6-146C1111.5,723.5,1116.5,723.5,1073.5,726.5Z"/>
    <path class="cls-2" d="M952.5,733.5c5,48,7,66,29,134-33-3-42.58,6.11-43,10-12,14,47,21,100,10,20-74,18-79,23-154C1007.5,727.5,988.5,728.5,952.5,733.5Z"/>
    <path class="cls-3" d="M1152.5,595.5c12,63,17,86,12,139-43,0-66-1-93,2-2-24,0-28,1-54a5.06,5.06,0,0,0-4,0c-1,25,1,23-5,55-54-3-61-2-113-2-9-44-9-75-3-141C1021.5,601.5,1058.5,609.5,1152.5,595.5Z"/>
    <path class="cls-4" d="M1131,600c0,9-1,6-4,14,2.61,13,24.21,21.39,32,15-4-19-6-36-7-33C1145.92,593.61,1142,599,1131,600Z"/>
    <line class="cls-5" x1="961.5" y1="796.5" x2="1056.5" y2="799.5"/>
    <line class="cls-5" x1="966.5" y1="818.5" x2="1054.5" y2="820.5"/>
    <line class="cls-5" x1="1071.5" y1="799.5" x2="1162.5" y2="802.5"/>
    <line class="cls-5" x1="1072.5" y1="816.5" x2="1161.5" y2="820.5"/>
    <path class="cls-6" d="M977,599c-.61,1.54-3.71,6.45-3,10,76,20,83.5,10.5,153.5,5.5,1.58-2.5,5.52-10.3,3-18C1057.5,602.5,1012,603,977,599Z"/>
    <line class="cls-5" x1="1067.5" y1="605.5" x2="1067.5" y2="621"/>
    <line class="cls-5" x1="1039.5" y1="605.5" x2="1039.5" y2="622"/>
    <circle class="cls-7" cx="1054" cy="614" r="3.5"/>
    <path class="cls-5" d="M1054.5,677.5c23,7,30.67-9.33,46-14"/>
    <path class="cls-7" d="M966.5,818.5c7,23,7,25,15,49-21-1-41-1-44,12-3,14,47,15,101,8,7-28,9-35,16-67C1010.5,819.5,999.5,819.5,966.5,818.5Z"/>
    <path class="cls-7" d="M1072.5,816.5c1,34,5,49,12,74,56,12,103,7,103-6-.26-4.21,0-10-31-14,2-19,3-30,5-50C1115.5,818.5,1108.5,818.5,1072.5,816.5Z"/>
    <path class="cls-8" d="M961.5,795.5c4,18,3.36,19.62,5,22,38,1,53,1,88,2,.52-.88,1-9,2-21C1010.5,797.5,1003.5,797.5,961.5,795.5Z"/>
    <path class="cls-8" d="M1071.5,798.5c-1,11,.24,15.46,1,17,39,2,51,2,89,4,.23-.42,1-4,1-18C1127.5,800.5,1109.5,799.5,1071.5,798.5Z"/>
    <path class="cls-5" d="M1100.5,749.5c-4.84,3.2-7.11,7.4-6,10a4.16,4.16,0,0,0,2,2"/>
    <path class="cls-5" d="M1118.5,758.5c.71,4.75,3,8.36,6,9a5.13,5.13,0,0,0,2,0"/>
    <path class="cls-5" d="M1131.5,749.5c6.16,2.66,7.94,8.94,6,12-1.53,2.4-5.76,3.46-10,2"/>
    <path class="cls-5" d="M1143.5,751.5a14.82,14.82,0,0,0,6,8,12.86,12.86,0,0,0,2,1"/>
    <path class="cls-5" d="M1115.5,774.5l-4-1"/>
    <path class="cls-5" d="M1107.5,776.5a24.39,24.39,0,0,0-9,7,22.64,22.64,0,0,0-2,3"/>
    <path class="cls-5" d="M1100.5,786.5a6.22,6.22,0,0,0,1,4c1.68,2.39,5.35,3.3,9,2"/>
    <path class="cls-5" d="M1127.5,786.5l6.16-2.24,4.84-1.76"/>
    <path class="cls-5" d="M1135.5,787.5c-.58,3.74,1.07,6.6,3,7a3.89,3.89,0,0,0,3-1"/>
    <path class="cls-5" d="M1147.5,777.5a4.46,4.46,0,0,0,2,5,4.54,4.54,0,0,0,4,0"/>
    <path class="cls-5" d="M1079.5,772.5c-.33,2-.67,4-1,6"/>
    <path class="cls-4" d="M977,601c-3,16-10,28-16,29-.45.16-10.22,3.39-16-2a245.19,245.19,0,0,1,2-27"/>
  </g>
  <g id="Layer_3" data-name="Layer 3">
    <path class="cls-2" d="M1133.72,395.31c5-3.18,20,3.87,23.25,17.46,3.2,13.3-6.36,26.32-12.27,25.89C1137.81,411.07,1139.21,417,1133.72,395.31Z"/>
    <path class="cls-9" d="M1138.53,407c2.49-1.89,9.54-.13,11.38,5.24,2.08,6-4.06,11.94-7.23,11.52C1140.07,414.92,1140.14,415.92,1138.53,407Z"/>
    <path class="cls-2" d="M966.5,393.5c-5.23-2.84-19.66,5.22-22,19-2.29,13.49,8.13,25.83,14,25C963.5,409.5,962.5,415.5,966.5,393.5Z"/>
    <path class="cls-9" d="M962.5,405.5c-2.62-1.72-9.52.52-11,6-1.66,6.18,4.86,11.64,8,11C961.5,413.5,961.5,414.5,962.5,405.5Z"/>
    <path class="cls-2" d="M1050.5,527.5c-48-25-46-25-101-61,11-53,10-69,30-108,73-5,73-5,138-1,19,35,23,55,35,106C1103.5,503.5,1101.5,501.5,1050.5,527.5Z"/>
    <path class="cls-10" d="M1045.5,456.5c-31-4-56-6-54,6-4,9,24.76,16.14,49,18,29.61,2.27,60-2,60-14C1094.5,445.5,1065.36,457.28,1045.5,456.5Z"/>
    <line class="cls-5" x1="1002.5" y1="453.5" x2="998.5" y2="470.5"/>
    <line class="cls-5" x1="1011.5" y1="453.5" x2="1008.5" y2="475.5"/>
    <line class="cls-5" x1="1021.5" y1="453.5" x2="1020.5" y2="477.5"/>
    <line class="cls-5" x1="1028.5" y1="454.5" x2="1028.5" y2="479.5"/>
    <line class="cls-5" x1="1090.5" y1="455.5" x2="1093.5" y2="475.5"/>
    <line class="cls-5" x1="1079.5" y1="453.5" x2="1082.5" y2="478.5"/>
    <line class="cls-5" x1="1064.5" y1="455.5" x2="1065.5" y2="480.5"/>
    <line class="cls-5" x1="1071.5" y1="454.5" x2="1073.5" y2="480.5"/>
    <line class="cls-5" x1="1052.5" y1="456.5" x2="1052.5" y2="480.5"/>
    <line class="cls-5" x1="1038.5" y1="455.5" x2="1038.5" y2="480.5"/>
    <path class="cls-10" d="M1020.5,375.5c11,.46,23.39,7.55,23,14-.4,6.64-14.33,12.53-26,11-9.38-1.23-20.45-7.68-20-14C998,380,1010.47,375.08,1020.5,375.5Z"/>
    <circle class="cls-7" cx="1020.5" cy="388.5" r="12"/>
    <path class="cls-10" d="M1078.5,376.5c11,.46,23.39,7.55,23,14-.4,6.64-14.33,12.53-26,11-9.38-1.23-20.45-7.68-20-14C1056,381,1068.47,376.08,1078.5,376.5Z"/>
    <circle class="cls-7" cx="1078.5" cy="389.5" r="12"/>
    <line class="cls-5" x1="1049.5" y1="401.5" x2="1035.5" y2="435.5"/>
    <line class="cls-5" x1="1035.5" y1="435.5" x2="1060.5" y2="435.5"/>
    <line class="cls-5" x1="1098.5" y1="384.5" x2="1103.5" y2="379.5"/>
    <line class="cls-5" x1="1092.5" y1="380.5" x2="1097.5" y2="372.5"/>
    <line class="cls-5" x1="1006.5" y1="377.5" x2="1006.5" y2="372.5"/>
    <line class="cls-5" x1="1018.5" y1="375.5" x2="1018.5" y2="371.5"/>
    <path class="cls-5" d="M1052.5,754.5l-9,16"/>
    <path class="cls-5" d="M1016.5,768.5l5-12"/>
    <path class="cls-5" d="M1007.5,767.5c-5.69-8.29-6.59-12.77-5-15a7.06,7.06,0,0,1,3-2c0-.1-5,2-12,5"/>
    <path class="cls-5" d="M983.5,760.5l-11-11"/>
    <path class="cls-5" d="M974.5,774.5c.08,6,1.58,12.26-10,17"/>
    <path class="cls-5" d="M989.5,778.5c-.33,5-3,10-1,15"/>
    <path class="cls-5" d="M1005.5,779.5c3,5,0,11,9,15"/>
    <path class="cls-5" d="M1030.5,776.5c2,11,7.33,12,11,18"/>
    <path class="cls-7" d="M984.5,352.5c-.91.85-1.29-4.34-7,5-5,22-13,32-11,34,3,2,2.89-14.1,4-13s-2.37,13.95-2,14c6.74.85,13.47-30.74,13-29-1.23,4.59-.94,20.51,1,21,2.18.54,9.74-22.38,11-22,1,.3-3.61,14.75-1,16,3.6,1.72,18-23,22-21,1.88.93-.07,7.12,2,8,2.75,1.17,8.93-8.66,10-8s-4.64,11.64-4,12,8-12.83,10-12c1.78.76-1.83,12.75-1,13s5-13.38,7-13,.56,14.81,2,15,4-15.17,6-15,2,16,3,16,1.29-16.91,3-17,3.64,17.11,5,17,.78-15.92,2-16,2.55,13.07,4,13,1.4-11.9,3-12,3.23,12.1,5,12,1.38-11.55,4-12c3-.5,7.2,13.48,9,13s-.54-12.63,1-13,4.47,10.35,7,10c2.21-.31,2.12-8.83,4-9,2.27-.21,4.11,12,7,12,2.65,0,2.8-10.33,6-11,6.69-1.4,9.44,41.79,12,41,1.83-.56.18-22.32,4-24,3.54-1.56,6,17,6,17a204.78,204.78,0,0,0-15-43C1082,305.47,1003,335.38,984.5,352.5Z"/>
    <line class="cls-5" x1="1001" y1="393" x2="998" y2="396"/>
    <line class="cls-5" x1="1004.5" y1="395.5" x2="1003.5" y2="399.5"/>
    <line class="cls-5" x1="1007.5" y1="397.5" x2="1007.5" y2="401.5"/>
    <line class="cls-5" x1="1012.5" y1="399.5" x2="1012.5" y2="402.5"/>
    <line class="cls-5" x1="1016.5" y1="400.5" x2="1016.5" y2="403.5"/>
    <line class="cls-5" x1="1021.5" y1="401.5" x2="1021.5" y2="404.5"/>
    <line class="cls-5" x1="1025.5" y1="400.5" x2="1026.5" y2="404.5"/>
    <line class="cls-5" x1="1030.5" y1="399.5" x2="1032.5" y2="403.5"/>
    <line class="cls-5" x1="1034.5" y1="397.5" x2="1036.5" y2="401.5"/>
    <line class="cls-5" x1="1038.5" y1="396.5" x2="1041.5" y2="400.5"/>
    <line class="cls-5" x1="1035.5" y1="379.5" x2="1038.5" y2="375.5"/>
    <line class="cls-5" x1="1028.5" y1="376.5" x2="1029.5" y2="373.5"/>
    <line class="cls-5" x1="1058.5" y1="393.5" x2="1056.5" y2="395.5"/>
    <line class="cls-5" x1="1061.5" y1="396.5" x2="1059.5" y2="398.5"/>
    <line class="cls-5" x1="1064.5" y1="397.5" x2="1063.5" y2="401.5"/>
    <line class="cls-5" x1="1069.5" y1="400.5" x2="1069.5" y2="403.5"/>
    <line class="cls-5" x1="1067.5" y1="399.5" x2="1066.5" y2="402.5"/>
    <line class="cls-5" x1="1073.5" y1="401.5" x2="1073.5" y2="404.5"/>
    <line class="cls-5" x1="1077.5" y1="401.5" x2="1077.5" y2="404.5"/>
    <line class="cls-5" x1="1081.5" y1="401.5" x2="1081.5" y2="404.5"/>
    <line class="cls-5" x1="1086.5" y1="401.5" x2="1087.5" y2="404.5"/>
    <line class="cls-5" x1="1090.5" y1="399.5" x2="1092.5" y2="403.5"/>
    <line class="cls-5" x1="1094.5" y1="398.5" x2="1096.5" y2="401.5"/>
    <line class="cls-5" x1="1097.5" y1="396.5" x2="1099.5" y2="399.5"/>
    <line class="cls-5" x1="1099.5" y1="394.5" x2="1103.5" y2="396.5"/>
    <line class="cls-5" x1="1060.5" y1="380.5" x2="1056.5" y2="376.5"/>
    <line class="cls-5" x1="1068.5" y1="377.5" x2="1065.5" y2="372.5"/>
    <line class="cls-5" x1="1079.5" y1="376.5" x2="1079.5" y2="370.5"/>
  </g>
  <g id="Layer_4" data-name="Layer 4">
    <path class="cls-11" d="M951.5,464.5c-19,59-18,102-4,135,54.89,4.1,79.25,6.37,104.41,6.38,29,0,73.27-4.13,78.87-4.56,9-.71,16.54-1.36,21.72-1.82.29-9.36.6-23.68.3-41.23-.28-16.67-1.38-30.21-3.3-98.77C1051.5,520.5,1048.5,520.5,951.5,464.5Z"/>
  </g>
  <g id="Layer_5" data-name="Layer 5">
    <path class="cls-12" d="M1079.5,497.5c-13-11-7-6-17-15-3.34-7.25-4-12-5-19-2.71-2.71-4.18-1.58-6-4v-22c-1.81-1.77-5.86-1.8-8,0-6,5-1,13-1,26-1.38.72-3-.86-4,0-4,3-1,16,4,12,15.17,26.32,12,25,22,38C1071.76,514.19,1080.75,504.13,1079.5,497.5Z"/>
    <path class="cls-13" d="M1151,458c29,33,11.36,103.82-9.5,113.5-33-1-53-26-79-58,1.21-8.23,8.2-17.08,16-18,17,5,33,25,38,33,2.4-1-10-12-4-33"/>
    <path class="cls-13" d="M951,463c-31,52-13.5,135.5,10.5,166.5,7.14.85,16.4-30,17-32-12-15-6-42-2-70"/>
    <path class="cls-9" d="M1051.5,460.5c-7,8-6.51,9.89-4,12,2.11,1.77,5.5.5,10.5-4.5C1060,464,1054.13,460.17,1051.5,460.5Z"/>
    <path class="cls-9" d="M1057.5,468.5c-3,0-10,7-7,12,1.33,1.14,6-1,9-4C1060.75,473,1059.17,468.72,1057.5,468.5Z"/>
  </g>
  <g id="Layer_2" data-name="Layer 2">
    <path class="cls-3" d="M1067.5,304.5c.39-.4-7,0-23-18-18,11-28.64,13.47-29,13s4-12,23-18c-18-19-14.72-23.23-15-23s7-5,20,19c13-9,31-16,34-12,2,4-9,10-28,17C1070.5,298.5,1067.06,305,1067.5,304.5Z"/>
    <path class="cls-3" d="M1042.5,285.5c1,14,1,9,1,23,2.28.87,4.67-.77,5-1,0-9,0-9-1-22A6,6,0,0,0,1042.5,285.5Z"/>
    <ellipse class="cls-7" cx="1044.5" cy="282.5" rx="5" ry="4"/>
    <path class="cls-3" d="M977.5,360.5c-5.37-16.63,27.17-52.28,68-54,43.75-1.85,79,36,74,53C1055.5,355.5,1037.5,353.5,977.5,360.5Z"/>
    <polyline class="cls-5" points="1004.5 320.5 1001.5 343.5 1000.5 358.5"/>
    <polyline class="cls-5" points="1092.5 320.5 1094.5 341.5 1094.5 358"/>
    <polyline class="cls-5" points="1075.5 311.5 1077.5 335.5 1077.5 357"/>
    <polyline class="cls-5" points="1019.5 312.5 1016.5 337.5 1015.5 357.5"/>
    <line class="cls-5" x1="1046.5" y1="306.5" x2="1046.5" y2="355.5"/>
    <polyline class="cls-5" points="1060.5 307.5 1062.5 331.5 1062.5 357"/>
    <polyline class="cls-5" points="1030.5 308.5 1029.5 332.5 1029.5 357"/>
    <polyline class="cls-5" points="989.5 333.5 987.5 348.5 988.5 359.5"/>
    <polyline class="cls-5" points="1107.5 332.5 1109.5 347.5 1109.5 359"/>
  </g>
</svg>
