<svg id="Layer_2" data-name="Layer 2" xmlns="http://www.w3.org/2000/svg" xmlns:xlink="http://www.w3.org/1999/xlink" viewBox="0 0 1920 1080"><defs><style>.cls-1{fill:#f38b2e;}.cls-2{font-size:19px;}.cls-2,.cls-28{font-family:MyriadPro-Regular, Myriad Pro;}.cls-3{letter-spacing:-0.01em;}.cls-4{letter-spacing:0em;}.cls-5{letter-spacing:-0.01em;}.cls-6{letter-spacing:-0.05em;}.cls-7{letter-spacing:0em;}.cls-8{letter-spacing:-0.01em;}.cls-9{letter-spacing:0.02em;}.cls-10{letter-spacing:-0.02em;}.cls-11{letter-spacing:0em;}.cls-12{letter-spacing:0em;}.cls-13{letter-spacing:0em;}.cls-14{letter-spacing:-0.01em;}.cls-15{letter-spacing:0em;}.cls-16{letter-spacing:-0.01em;}.cls-17{letter-spacing:-0.01em;}.cls-18{letter-spacing:-0.04em;}.cls-19{letter-spacing:-0.04em;}.cls-20{letter-spacing:-0.01em;}.cls-21{letter-spacing:0.02em;}.cls-22{letter-spacing:0.01em;}.cls-23{letter-spacing:-0.01em;}.cls-24{letter-spacing:-0.01em;}.cls-25{letter-spacing:0.01em;}.cls-26{letter-spacing:0.02em;}.cls-27{letter-spacing:-0.01em;}.cls-28{font-size:41px;fill:#0d1b28;}.cls-29{letter-spacing:-0.02em;}.cls-30{letter-spacing:0em;}.cls-31{letter-spacing:0em;}.cls-32{letter-spacing:0.01em;}.cls-33{fill:#ff9207;}.cls-34{fill:#1f2532;}.cls-35{font-size:37.17px;fill:#fff;font-family:ArialNarrow-Bold, Arial;font-weight:700;letter-spacing:0.02em;}.cls-36{letter-spacing:-0.04em;}.cls-37{letter-spacing:0.02em;}</style></defs><title>pjece_logoer_projekt</title><path class="cls-1" d="M1134,761l-571.22-.5a31.36,31.36,0,0,1-31.28-31.28V222.78a31.36,31.36,0,0,1,31.28-31.28h743.44a31.36,31.36,0,0,1,31.28,31.28L1338,886C1331,912,1151.2,761,1134,761Z"/><text class="cls-2" transform="translate(671.11 292.59)">Næs<tspan class="cls-3" x="34.71" y="0">t</tspan><tspan x="40.89" y="0">en alle bø</tspan><tspan class="cls-4" x="117.89" y="0">r</tspan><tspan x="124.18" y="0">n og unge er på sociale medier og deler billeder </tspan><tspan x="0" y="22.8">eller videoer med de</tspan><tspan class="cls-5" x="162.6" y="22.8">r</tspan><tspan x="168.62" y="22.8">es </tspan><tspan class="cls-5" x="189.69" y="22.8">v</tspan><tspan x="198.64" y="22.8">enne</tspan><tspan class="cls-6" x="238.77" y="22.8">r</tspan><tspan x="243.98" y="22.8">. </tspan><tspan class="cls-7" x="251.94" y="22.8">D</tspan><tspan x="264.67" y="22.8">et er sj</tspan><tspan class="cls-8" x="316.4" y="22.8">o</tspan><tspan x="326.7" y="22.8">vt og vise</tspan><tspan class="cls-6" x="401.86" y="22.8">r</tspan><tspan x="407.07" y="22.8">, man har et </tspan><tspan x="0" y="45.6">godt </tspan><tspan class="cls-5" x="42.08" y="45.6">v</tspan><tspan x="51.03" y="45.6">ens</tspan><tspan class="cls-9" x="78.62" y="45.6">k</tspan><tspan x="87.87" y="45.6">a</tspan><tspan class="cls-10" x="97.03" y="45.6">b</tspan><tspan x="107.39" y="45.6">. Billede</tspan><tspan class="cls-4" x="168.81" y="45.6">r</tspan><tspan x="175.1" y="45.6">ne </tspan><tspan class="cls-9" x="199.19" y="45.6">k</tspan><tspan x="208.45" y="45.6">an </tspan><tspan class="cls-11" x="232.18" y="45.6">v</tspan><tspan x="241.24" y="45.6">æ</tspan><tspan class="cls-5" x="255.93" y="45.6">r</tspan><tspan x="261.95" y="45.6">e nogle du selv har tage</tspan><tspan class="cls-12" x="450.56" y="45.6">t</tspan><tspan x="456.79" y="45.6">, nogle </tspan><tspan x="0" y="68.4">du har fået f</tspan><tspan class="cls-13" x="95.25" y="68.4">r</tspan><tspan x="101.36" y="68.4">a and</tspan><tspan class="cls-5" x="144.97" y="68.4">r</tspan><tspan x="150.99" y="68.4">e eller komme f</tspan><tspan class="cls-13" x="272.91" y="68.4">r</tspan><tspan x="279.03" y="68.4">a net</tspan><tspan class="cls-14" x="318.57" y="68.4">t</tspan><tspan x="324.74" y="68.4">e</tspan><tspan class="cls-12" x="334.26" y="68.4">t</tspan><tspan x="340.5" y="68.4">.</tspan><tspan class="cls-7" x="0" y="114">D</tspan><tspan x="12.73" y="114">et </tspan><tspan class="cls-9" x="32.57" y="114">k</tspan><tspan x="41.82" y="114">an </tspan><tspan class="cls-15" x="65.55" y="114">v</tspan><tspan x="74.61" y="114">æ</tspan><tspan class="cls-5" x="89.3" y="114">r</tspan><tspan x="95.32" y="114">e billeder af søde dy</tspan><tspan class="cls-5" x="253.7" y="114">r</tspan><tspan x="259.73" y="114">eunge</tspan><tspan class="cls-6" x="310.4" y="114">r</tspan><tspan x="315.6" y="114">, skø</tspan><tspan class="cls-5" x="350.43" y="114">r</tspan><tspan x="356.45" y="114">e p</tspan><tspan class="cls-13" x="380.81" y="114">r</tspan><tspan x="386.93" y="114">ank</tspan><tspan class="cls-16" x="415.54" y="114">s</tspan><tspan x="422.86" y="114">, sj</tspan><tspan class="cls-8" x="442.96" y="114">o</tspan><tspan class="cls-17" x="453.26" y="114">v</tspan><tspan x="462.21" y="114">e situa</tspan><tspan x="513.64" y="114">-</tspan><tspan x="0" y="136.8">tioner eller billeder af dig sel</tspan><tspan class="cls-18" x="224.01" y="136.8">v</tspan><tspan x="232.4" y="136.8">.</tspan><tspan class="cls-19" x="236.34" y="136.8"> </tspan><tspan class="cls-20" x="239.59" y="136.8">T</tspan><tspan x="248.8" y="136.8">it tænker man næs</tspan><tspan class="cls-14" x="396.09" y="136.8">t</tspan><tspan x="402.26" y="136.8">en i</tspan><tspan class="cls-21" x="430.8" y="136.8">k</tspan><tspan x="440.03" y="136.8">ke </tspan><tspan class="cls-8" x="462.49" y="136.8">o</tspan><tspan class="cls-17" x="472.79" y="136.8">v</tspan><tspan x="481.74" y="136.8">er de </tspan><tspan x="0" y="159.6">billede</tspan><tspan class="cls-6" x="53.98" y="159.6">r</tspan><tspan x="59.18" y="159.6">, man dele</tspan><tspan class="cls-6" x="140.96" y="159.6">r</tspan><tspan x="146.17" y="159.6">. </tspan><tspan class="cls-22" x="154.13" y="159.6">M</tspan><tspan x="169.52" y="159.6">åske mest </tspan><tspan class="cls-8" x="251.86" y="159.6">o</tspan><tspan class="cls-5" x="262.16" y="159.6">v</tspan><tspan x="271.11" y="159.6">e</tspan><tspan class="cls-6" x="280.63" y="159.6">r</tspan><tspan x="285.83" y="159.6">, om man selv ser ok ud på </tspan><tspan x="0" y="182.4">dem. </tspan><tspan class="cls-22" x="44.04" y="182.4">M</tspan><tspan x="59.43" y="182.4">en det er i</tspan><tspan class="cls-21" x="138.28" y="182.4">k</tspan><tspan x="147.51" y="182.4">ke alle slags billede</tspan><tspan class="cls-6" x="298.96" y="182.4">r</tspan><tspan x="304.17" y="182.4">, som du må dele med </tspan><tspan x="0" y="205.2">and</tspan><tspan class="cls-5" x="30.42" y="205.2">r</tspan><tspan class="cls-20" x="36.44" y="205.2">e</tspan><tspan x="45.73" y="205.2" xml:space="preserve">.  </tspan><tspan x="0" y="250.8">Billeder såsom nøgenbilleder eller snigbilleder af </tspan><tspan class="cls-23" x="388.43" y="250.8">f</tspan><tspan x="393.73" y="250.8">olk som i</tspan><tspan class="cls-21" x="463.86" y="250.8">k</tspan><tspan x="473.09" y="250.8">ke vil </tspan><tspan x="0" y="273.6">h</tspan><tspan class="cls-24" x="10.54" y="273.6">a</tspan><tspan class="cls-5" x="19.55" y="273.6">v</tspan><tspan x="28.5" y="273.6">e et billed tage</tspan><tspan class="cls-12" x="145.96" y="273.6">t</tspan><tspan x="152.19" y="273.6">.</tspan><tspan class="cls-22" x="0" y="296.4">M</tspan><tspan x="15.39" y="296.4">an s</tspan><tspan class="cls-9" x="46.64" y="296.4">k</tspan><tspan x="55.9" y="296.4">al huske </tspan><tspan class="cls-11" x="124.56" y="296.4">a</tspan><tspan x="133.64" y="296.4">t altid få l</tspan><tspan class="cls-8" x="206.3" y="296.4">o</tspan><tspan x="216.6" y="296.4">v(sa</tspan><tspan class="cls-15" x="247.81" y="296.4">m</tspan><tspan class="cls-25" x="263.58" y="296.4">t</tspan><tspan x="270.04" y="296.4">y</tspan><tspan class="cls-26" x="278.99" y="296.4">k</tspan><tspan x="288.22" y="296.4">ke) inden man sender billeder </tspan><tspan x="0" y="319.2">af </tspan><tspan class="cls-27" x="18.73" y="319.2">f</tspan><tspan x="24.03" y="319.2">olk til and</tspan><tspan class="cls-5" x="101.55" y="319.2">r</tspan><tspan class="cls-20" x="107.58" y="319.2">e</tspan><tspan x="116.87" y="319.2">.</tspan></text><image width="750" height="281" transform="translate(576 649) scale(0.24)" xlink:href="1461139991_logo1.png"/><text class="cls-28" transform="translate(576 243.11)"><tspan class="cls-29">P</tspan><tspan class="cls-30" x="21.16" y="0">r</tspan><tspan x="34.73" y="0">i</tspan><tspan class="cls-31" x="44.32" y="0">va</tspan><tspan x="83.48" y="0">tSna</tspan><tspan class="cls-32" x="159.78" y="0">k</tspan><tspan x="179.58" y="0">.dk</tspan></text><rect class="cls-33" x="1120.9" y="676.42" width="150.94" height="56.42" rx="13.5" ry="13.5"/><polygon class="cls-33" points="1171.96 720.31 1142.12 720.31 1142.12 753 1142.21 753 1171.96 720.31"/><rect class="cls-34" x="1091" y="620" width="180.84" height="56.42" rx="13.5" ry="13.5"/><polygon class="cls-34" points="1142.07 663.89 1112.22 663.89 1112.22 696.58 1112.31 696.58 1142.07 663.89"/><text class="cls-35" transform="translate(1118.97 659.15) scale(1.08 1)">PRI<tspan class="cls-36" x="53.47" y="0">VA</tspan><tspan class="cls-37" x="93.12" y="0">T</tspan></text><text class="cls-35" transform="translate(1140.67 717.37) scale(1.08 1)">SNAK</text></svg>
