<svg xmlns="http://www.w3.org/2000/svg" viewBox="0 0 1400 500"><defs><style>.cls-1,.cls-10,.cls-11,.cls-12,.cls-13,.cls-14,.cls-17,.cls-18,.cls-3,.cls-4,.cls-6,.cls-7,.cls-8,.cls-9{stroke:#000;stroke-miterlimit:10;}.cls-1{opacity:0.3;}.cls-2,.cls-8{fill:#f3d3c3;}.cls-3{fill:none;}.cls-4{fill:#63868c;}.cls-5{fill:#f8b676;}.cls-6{fill:#0d1b28;}.cls-7{fill:#5b6799;}.cls-9{fill:#b69e92;}.cls-10{fill:#fff;}.cls-12{fill:#050200;}.cls-13{fill:#f172ae;}.cls-14{fill:#02a5b2;}.cls-15{fill:#f15731;}.cls-16{fill:#61bf21;}.cls-17{fill:#fad0e7;}.cls-18{fill:#191615;}</style></defs><title>walk_6ix9ine</title><g id="Layer_2" data-name="Layer 2"><ellipse class="cls-1" cx="517.5" cy="439.84" rx="89.5" ry="40.16"/><path class="cls-2" d="M518.5,342.62c-1.3,19.09-1.86,31.07-2.92,41.58H453.66c-3.08-13.73-4.29-24.77-6.08-41.58C471,339.43,483.37,338.79,518.5,342.62Z"/><line class="cls-3" x1="521.66" y1="380.53" x2="579.56" y2="383.08"/><path class="cls-4" d="M522.66,381.53c.65,21.68,3.25,31.24,7.81,47.18,36.43,7.65,67,4.46,67-3.83-.17-2.68,0-6.37-20.17-8.92,1.3-12.11,2-19.13,3.25-31.88C550.64,382.81,546.08,382.81,522.66,381.53Z"/><path class="cls-3" d="M543.88,352.82c-3.16,2-4.63,4.71-3.91,6.37a2.72,2.72,0,0,0,1.3,1.28"/><path class="cls-3" d="M555.59,358.56c.46,3,1.95,5.33,3.9,5.73a3.14,3.14,0,0,0,1.3,0"/><path class="cls-3" d="M564.05,352.82c4,1.69,5.16,5.7,3.9,7.65-1,1.53-3.75,2.2-6.51,1.27"/><path class="cls-3" d="M571.85,354.09a9.46,9.46,0,0,0,3.91,5.1,7.8,7.8,0,0,0,1.3.64"/><path class="cls-3" d="M553.64,368.76l-2.61-.64"/><path class="cls-3" d="M548.43,370a15.91,15.91,0,0,0-5.86,4.46,15.14,15.14,0,0,0-1.3,1.92"/><path class="cls-3" d="M543.88,376.41a3.91,3.91,0,0,0,.65,2.55c1.09,1.52,3.48,2.1,5.85,1.27"/><path class="cls-3" d="M561.44,376.41l4-1.43,3.15-1.12"/><path class="cls-3" d="M566.65,377c-.38,2.39.69,4.21,2,4.47a2.55,2.55,0,0,0,1.95-.64"/><path class="cls-3" d="M574.46,370.67a2.81,2.81,0,0,0,1.3,3.19,3.06,3.06,0,0,0,2.6,0"/><path class="cls-3" d="M530.21,367.48c-.21,1.28-.43,2.55-.65,3.83"/><path class="cls-3" d="M512.65,356q-2.94,5.1-5.86,10.2"/><path class="cls-3" d="M489.22,364.93l3.26-7.65"/><path class="cls-3" d="M483.37,364.29c-3.71-5.28-4.29-8.14-3.26-9.56a4.68,4.68,0,0,1,2-1.28c0-.06-3.28,1.28-7.81,3.19"/><path class="cls-3" d="M467.75,359.83l-7.15-7"/><path class="cls-3" d="M461.9,368.76c.05,3.85,1,7.81-6.51,10.83"/><path class="cls-3" d="M471.66,371.31c-.22,3.18-2,6.37-.65,9.56"/><path class="cls-3" d="M482.07,371.94c1.95,3.19,0,7,5.85,9.57"/><path class="cls-3" d="M498.33,370c1.3,7,4.77,7.65,7.16,11.48"/><path class="cls-4" d="M468.66,390.91c-1.51,2.78-.88,5.73,0,9.58,2.1,9.18,9.27,23.08,17.6,23,10.66-.11,18.58-21.08,15.64-33.53C495.1,380.81,473.29,382.37,468.66,390.91Z"/><path class="cls-4" d="M453,383.24c27.86.48,34.22,1,63.06-.47,1,4.32-13.12,13-28.84,13.89C471.06,397.53,452.4,387.67,453,383.24Z"/></g><g id="Layer_3" data-name="Layer 3"><ellipse class="cls-1" cx="1213.95" cy="435.07" rx="91.55" ry="41.93"/><path class="cls-2" d="M1143.44,336.59c3.33,31.94,4.66,43.92,19.3,89.18-22-2-28.34,4.06-28.62,6.65-8,9.32,31.28,14,66.55,6.66,13.31-49.25,12-52.58,15.31-102.49C1180,332.6,1167.4,333.26,1143.44,336.59Z"/><path class="cls-3" d="M1210,350.57l-6,10.64"/><path class="cls-3" d="M1186,359.88l3.33-8"/><path class="cls-3" d="M1180,359.22c-3.79-5.52-4.38-8.5-3.33-10a4.79,4.79,0,0,1,2-1.33c0-.06-3.35,1.34-8,3.33"/><path class="cls-3" d="M1158.08,363.88c.05,4,1.05,8.15-6.65,11.31"/><path class="cls-3" d="M1168.06,366.54c-.22,3.33-2,6.65-.66,10"/><path class="cls-3" d="M1178.71,367.2c2,3.33,0,7.32,6,10"/><path class="cls-3" d="M1195.35,365.21c1.33,7.32,4.88,8,7.32,12"/><path class="cls-2" d="M1140.91,331.69c3.49,33.9,4.88,46.61,20.24,94.63-23-2.11-29.72,4.32-30,7.07-8.38,9.88,32.8,14.83,69.79,7.06,14-52.26,12.56-55.79,16-108.76C1179.29,327.45,1166,328.16,1140.91,331.69Z"/><path class="cls-4" d="M1150.68,391.72c4.88,16.24,4.88,17.65,10.47,34.6-14.66-.7-28.62-.7-30.71,8.48-2.09,9.89,32.8,10.59,70.49,5.65,4.88-19.78,6.28-24.72,11.16-47.32C1181.39,392.42,1173.71,392.42,1150.68,391.72Z"/><path class="cls-3" d="M1210.7,346.52q-3.15,5.64-6.28,11.3"/><path class="cls-3" d="M1185.57,356.41c1.17-2.83,2.33-5.65,3.49-8.48"/><path class="cls-3" d="M1179.29,355.7c-4-5.86-4.6-9-3.49-10.59a5.05,5.05,0,0,1,2.1-1.42c0-.07-3.52,1.42-8.38,3.53"/><path class="cls-3" d="M1162.54,350.76l-7.67-7.77"/><path class="cls-3" d="M1156.26,360.64c.06,4.27,1.1,8.66-7,12"/><path class="cls-3" d="M1166.73,363.47c-.23,3.53-2.09,7.06-.7,10.59"/><path class="cls-3" d="M1177.9,364.17c2.09,3.54,0,7.77,6.28,10.6"/><path class="cls-3" d="M1195.34,362.06c1.4,7.76,5.12,8.47,7.68,12.71"/><path class="cls-2" d="M1288.83,329.47c-1.39,21.15.09,32.93-1,44.57L1227,375.1c-3.31-15.21-1.23-28.07-3.14-46.69C1248.94,324.87,1251.14,325.23,1288.83,329.47Z"/><path class="cls-4" d="M1241.12,382.53c-1.62,3.08-.94,6.35,0,10.61,2.25,10.17,9.94,25.57,18.87,25.47,11.44-.12,19.93-23.35,16.78-37.14C1269.48,371.34,1246.08,373.08,1241.12,382.53Z"/><path class="cls-4" d="M1225.91,374c29.89.53,30.94,1.59,61.87,0,1.12,4.79-9.87,13.92-26.74,14.86C1243.7,389.86,1225.25,379,1225.91,374Z"/><path class="cls-3" d="M1246.29,338.74c-3.38,2.26-5,5.23-4.19,7.06a2.94,2.94,0,0,0,1.4,1.42"/><path class="cls-3" d="M1258.85,345.1c.5,3.35,2.09,5.9,4.19,6.35a3.44,3.44,0,0,0,1.4,0"/><path class="cls-3" d="M1267.93,338.74c4.29,1.88,5.54,6.31,4.18,8.48-1.06,1.69-4,2.44-7,1.41"/><path class="cls-3" d="M1276.3,340.15a10.45,10.45,0,0,0,4.19,5.65,8.31,8.31,0,0,0,1.39.71"/><path class="cls-3" d="M1256.76,356.4l-2.79-.71"/><path class="cls-3" d="M1251.18,357.81a17,17,0,0,0-6.28,4.94,16.42,16.42,0,0,0-1.4,2.12"/><path class="cls-3" d="M1246.29,364.87a4.46,4.46,0,0,0,.7,2.83c1.17,1.68,3.73,2.33,6.28,1.41"/><path class="cls-3" d="M1265.13,364.87l4.3-1.58,3.38-1.24"/><path class="cls-3" d="M1270.72,365.58c-.41,2.64.74,4.66,2.09,4.94a2.67,2.67,0,0,0,2.09-.7"/><path class="cls-3" d="M1279.09,358.52a2.95,2.95,0,0,0,4.19,3.53"/><path class="cls-3" d="M1231.64,355c-.24,1.41-.47,2.82-.7,4.23"/><path class="cls-5" d="M1281,244.68c8.28,42.29,11.74,57.73,8.28,93.31-29.69,0-45.57-.67-64.22,1.34-1.38-16.11,0-18.8.69-36.25a3.62,3.62,0,0,0-2.76,0c-.69,16.78.69,15.44-3.45,36.92-37.29-2-42.13-1.34-78-1.34-6.21-29.54-6.21-50.35-2.07-94.65C1190.49,248.71,1216,254.08,1281,244.68Z"/><path class="cls-3" d="M1213.28,299.73c15.88,4.69,21.18-6.27,31.77-9.4"/><path class="cls-6" d="M1283.35,209.24a61,61,0,0,0,19.19,28.47l-25,22.39s3.12,9,12,9.18c0,0,38.06-24.3,29.67-41.82,0,0-9.33-18.09-20.84-31.65"/><path class="cls-6" d="M1146.79,183.76s-4.9,1.17,4.19,15.24l-17.09,29.61s9.36,4.66,21.8,20.81l-5.42,7.36s-36.6-23.49-32.31-30C1118,226.76,1110.7,205.41,1146.79,183.76Z"/><path class="cls-6" d="M1150.14,176.65s71.57,62.64,147.67,8.61c0,0,6.79,79.48-10,89.66,0,0-39.86,8.62-140.87-11C1147,264,1126.59,213.45,1150.14,176.65Z"/><path class="cls-7" d="M1144.76,260.16s0,.1,0,.15a4.28,4.28,0,0,0,2.19,4.16c7.32,4.09,36.33,14.87,138.47,14.06a4.4,4.4,0,0,0,4.42-5l-.21-1.28a4.51,4.51,0,0,0-5.47-3.54c-13,2.84-54.08,8.14-133.73-12.15A4.5,4.5,0,0,0,1144.76,260.16Z"/><rect class="cls-8" x="1218.99" y="54.25" width="7.7" height="7.48"/><rect class="cls-8" x="1189.1" y="72.3" width="14.49" height="5.28"/><path class="cls-8" d="M1185.92,33.11l101.47,3.53s23.55,121.07,8.15,155.86c0,0-77.46,56.35-145.4-15.85C1150.14,176.65,1142.89,144.07,1185.92,33.11Z"/><polyline class="cls-9" points="1235.79 92.99 1225.33 130.42 1241.87 130.42"/><path class="cls-10" d="M1247.13,87.44c9.46-1.39,31.36-2.78,40,12.2a5.87,5.87,0,0,1,.84,4.06c-.63,3.1-4.51,7.12-22.07,3.48l-.36-.06c-1.94-.3-20.76-3.46-23.46-12.63C1241.1,91.11,1243.44,88,1247.13,87.44Z"/><ellipse class="cls-6" cx="1264.55" cy="96.97" rx="6.38" ry="9.9" transform="translate(-1.83 165.96) rotate(-7.5)"/><path class="cls-10" d="M1190.06,82.6c9.46-1.39,31.35-2.78,40,12.19a5.89,5.89,0,0,1,.83,4.07c-.62,3.09-4.5,7.11-22.07,3.48l-.36-.07c-1.93-.3-20.75-3.46-23.45-12.62C1184,86.27,1186.36,83.15,1190.06,82.6Z"/><ellipse class="cls-6" cx="1207.48" cy="92.13" rx="6.38" ry="9.9" transform="translate(-1.69 158.47) rotate(-7.5)"/><line class="cls-10" x1="1247.53" y1="86.83" x2="1274.7" y2="74.06"/><polyline class="cls-11" points="1212.2 52.93 1187.74 49.4 1185.52 60.34 1184.09 67.37 1181.39 80.67 1207.67 81.98 1207.67 68.78 1188.64 68.78"/><polyline class="cls-12" points="1228.05 67.02 1214.46 64.81 1214.46 49.4 1233.94 51.61 1228.05 88.59 1216.73 69.66"/><path class="cls-8" d="M1244.81,109.72s-4.59,3-2.87,5.58c.58.86,1.85,1.69,4.23,2.35,0,0,5.43-2.2-1.36-4,0,0-2.72,0-1.36,1.76"/><line class="cls-10" x1="1249.79" y1="113.69" x2="1249.79" y2="117.65"/><polyline class="cls-10" points="1251.6 113.69 1253.41 116.33 1255.23 118.97"/><line class="cls-10" x1="1252.06" y1="118.09" x2="1255.68" y2="114.57"/><path class="cls-8" d="M1261.12,116.33s-8.16-3.08-.91-5.29,1.81,5.73,1.81,5.73-1.36,4,1.81,4.4"/><path class="cls-8" d="M1266.55,115s0,4.84,1.81,5.72"/><path class="cls-8" d="M1272.44,120.73s-.45-12.33,2.26-1.32"/><path class="cls-8" d="M1277.42,117.65h3.17s0-3.52-1.81-2.64c0,0-7.7,2.64.91,6.6l2.71-.88"/><path class="cls-10" d="M1166.22,147.83s2.17-27.91,59.37-14.19c0,0,58.49-6.86,64.13,22.88,0,0,6.06,33.86-56.33,33.4C1233.39,189.92,1173.15,195,1166.22,147.83Z"/><path class="cls-13" d="M1166.45,148.91s-.91-12.33,18.12-6.17a9.82,9.82,0,0,1,1,4.72c-.14,3.37-2.08,7.94-10,11.58C1175.51,159,1166,152.43,1166.45,148.91Z"/><path class="cls-14" d="M1185,149.89s-1.19-17.3,23.83-8.65a14.38,14.38,0,0,1,1.3,6.61c-.18,4.74-2.73,11.15-13.22,16.25C1196.93,164.1,1184.43,154.83,1185,149.89Z"/><path class="cls-15" d="M1208.12,152.06s-1.19-15.19,23.83-7.59a11.35,11.35,0,0,1,1.3,5.8c-.17,4.16-2.73,9.79-13.21,14.27C1220,164.54,1207.53,156.4,1208.12,152.06Z"/><path class="cls-16" d="M1227.6,156.9s-1.19-15.19,23.82-7.59a11.31,11.31,0,0,1,1.31,5.81c-.18,4.15-2.73,9.78-13.22,14.26C1239.51,169.38,1227,161.24,1227.6,156.9Z"/><path class="cls-13" d="M1249.13,156.9s-.9-15.19,18-7.59a14.16,14.16,0,0,1,1,5.81c-.13,4.15-2.06,9.78-10,14.26C1258.14,169.38,1248.68,161.24,1249.13,156.9Z"/><path class="cls-14" d="M1270.47,154.05s-6.82-14.35,13.89-13.83a15.55,15.55,0,0,1,3.2,5.26c1.51,4.06,1.92,10.19-3.75,17.37C1283.81,162.85,1271.75,158.4,1270.47,154.05Z"/><path class="cls-17" d="M1167.67,143.21s12.15-25.38,63.72-9.25c0,0,51.33-8.68,55.32,9.07C1286.71,143,1274.79,157,1167.67,143.21Z"/><path class="cls-11" d="M1175.28,168.77s9.5-1.29,12.17,12.69C1187.45,181.46,1172.61,172.74,1175.28,168.77Z"/><path class="cls-11" d="M1203,188.21s-21.19-4.89-19.93-11.28c0,0,10.41-5.89,19.93,11.28"/><path class="cls-11" d="M1219.86,189.81s-20.07,1.18-21.66-5.52c0,0,6.41-8.82,21.66,5.52"/><path class="cls-11" d="M1229.18,190.52s-18.11,2.24-20.34-3.94c0,0,4.79-8.62,20.34,3.94"/><path class="cls-11" d="M1244.68,189.55s-19.5,4.75-22.33-1.56c0,0,4.63-9.81,22.33,1.56"/><path class="cls-11" d="M1260.11,187.62s-18.68,7.25-22.35,1.37c0,0,3.23-10.33,22.35-1.37"/><path class="cls-11" d="M1273,182.6s-17.07,10.32-21.75,5.17c0,0,1.31-10.72,21.75-5.17"/><path class="cls-11" d="M1282.43,176.12s-14,14-19.84,10.08c0,0-1.37-10.71,19.84-10.08"/><path class="cls-13" d="M1234.84,24.75s-5-9.25-16.76,0c0,0,4.08-8.37-10.41-2.2,0,0-22.65-11.89-28.09,9.24,0,0-16.76-5.72-25.82,9.25,0,0-19,2.64-14.49,15.85,0,0-17.21.44-12.68,11.45,0,0-24,9.68-22.2,27.29,0,0,6.8,1.33,10.87-11,0,0,12.23,4,18.12-11.89,0,0,1.36,3.52,5.44-9.25,0,0,4.53.44,7.7-9.24,0,0,7.7,1.32,11.32-7.93,0,0,10.87,2.64,16.76-7.48,0,0-.45,7-14.49,16.29,0,0-1.36,4.4-10.42,4.4,0,0-5.89,4-3.17,6.61,0,0-10.87,2.64-9.52,9.24,0,0-12.22,3.52-14,21.58s5,2.64,5,2.64,6.79-18,16.3-22c0,0,5.44-1.76,7.7-8.8,0,0,8.16,1.76,11.33-10.57,0,0,12.23-3.08,12.68-12.77,0,0,.91,15-10,18.93,0,0-14,5.29-11.77,13.65,0,0-10.87,2.64-14,12.77,0,0-10.42,6.61-8.61,12.77,0,0-14.5,16.73-5.89,24.21,0,0,7.25,0,5.89-15,0,0,17.21-19.38,18.12-26.42,0,0,11.77-4.4,11.77-14.09l5.44-4.4-2.26,7.48s-18.12,11.89-11.33,18.49c0,0-12.23,9.25-7.25,18.94,0,0-13.13,17.17-7.24,26,0,0-10.87,11.45-4.53,23.78,0,0-15,11.44-4.08,34.78,0,0,4.08-1.76,1.81-11,0,0,7.25-5.72,3.17-13.21,0,0,7.25-6.6,1.81-15,0,0,5-5.28,4.53-17.61,0,0,11.33-11.44,5-19.37,0,0,7.24-7,6.34-19.37,0,0,8.6-4.84,11.32-19.37,0,0,11.33-3.09,9.51-10.13,0,0-14.49,26.42-12.23,30.82,0,0-13.58,15.85-7.24,18.93,0,0-10.87,13.21-4.53,18.49,0,0-8.61,11.45-5.44,20.7,0,0-3.17,18.93,1.81,11.44s5.44-17.17,5.44-17.17,7.25-13.21,2.72-19.81c0,0,5.89-4.84,5-16.73a16,16,0,0,0,6.34-15.85s5.44.88,6.8-15c0,0,6.79-3.52,4.53-14.53l6.34-13.21S1195,60,1210.38,44.56c0,0-.45,15.85,13.59,1.76,0,0,13.59,9.25,14-4.4s11.78,4.4,11.78,4.4,27.18,15.85,26.27,1.32c0,0,7.7,17.17,12.69,16.29,0,0-9.06,12.77,7.24,39.19,0,0-6.34,28.62,4.08,39.18,0,0-5.44,22.46,0,26.42s4.08-28.18,4.08-28.18-.46-37-4.08-43.14-10.42-19.82-7.7-30.82-2.26-18.5-2.26-18.5,14.49,29.5,12.22,36.11,4.53,30.38,4.53,30.38-4.07,35.66,1.82,40.06c0,0-5.44,42.71,7.7,48.87,0,0,4.07-32.14-4.08-39.62,0,0,7.25-22.46-.91-34.34,0,0,5.89-17.62.46-28.18,0,0,7.24-17.61,0-21.58s-5-22.89-5-22.89,9.06,10.57,13.59,30.82a226.3,226.3,0,0,0,10.42,34.34,73.86,73.86,0,0,0,1.81,38.75s11.33-35.23,6.8-38.75c0,0,2.26-23.77-7.7-33.9,0,0,5-19.37-11.33-35.66,0,0,2.72-7.49-25.36-22.46,0,0-1.36,7.49-14.5-8.36,0,0-14-6.61-19,2.64,0,0,2.26-11-18.57-1.32Z"/><path class="cls-15" d="M1185.41,29.14s-18.08-5.81-27.86,9.4c0,0-20.53,2.68-15.64,16.1,0,0-18.58.45-13.69,11.63,0,0-25.9,9.84-24,27.74,0,0,7.33,1.34,11.73-11.19,0,0,13.2,4,19.55-12.08,0,0,1.47,3.58,5.87-9.39,0,0,4.89.45,8.31-9.39,0,0,8.31,1.34,12.22-8.06,0,0,11.73,2.69,18.08-7.6,0,0-.48,7.16-15.64,16.55,0,0-1.46,4.47-11.24,4.47,0,0-6.35,4-3.42,6.71,0,0-11.73,2.69-10.27,9.4,0,0-13.19,3.58-15.15,21.92s5.38,2.68,5.38,2.68,7.33-18.34,17.6-22.36a14,14,0,0,0,8.3-9s8.8,1.79,12.22-10.74c0,0,13.2-3.13,13.69-13,0,0,1,15.21-10.75,19.24,0,0-15.16,5.36-12.71,13.86,0,0-11.73,2.69-15.15,13,0,0-11.25,6.71-9.29,13,0,0-15.64,17-6.36,24.6,0,0,7.83,0,6.36-15.21,0,0,18.57-19.68,19.55-26.84a27.3,27.3,0,0,0,6.68-3.71c.88-.9,1.83-1.76,2.77-2.56a12.05,12.05,0,0,0,3.26-8l5.86-4.48-2.44,7.61a62,62,0,0,0-6.68,4.91,20.07,20.07,0,0,1-2.77,2.56c-3.67,3.74-6.25,8.13-2.77,11.32,0,0-13.2,9.39-7.82,19.23,0,0-14.17,17.45-7.82,26.39,0,0-11.73,11.64-4.89,24.16,0,0-16.13,11.63-4.4,35.34,0,0,4.4-1.79,2-11.18,0,0,7.82-5.82,3.42-13.42,0,0,7.82-6.71,2-15.21,0,0,5.38-5.37,4.89-17.9,0,0,12.22-11.63,5.38-19.68a25.12,25.12,0,0,0,6.84-19.68s9.29-4.92,12.22-19.68a24.91,24.91,0,0,0,6-2.52c2.39-4.47,4.32-7.77,4.32-7.77,1,3.54-1.54,6.09-4.32,7.77-4.43,8.3-10.47,20.64-8.88,23.54,0,0-14.66,16.1-7.82,19.24,0,0-11.73,13.42-4.89,18.78,0,0-9.29,11.63-5.86,21,0,0-3.43,19.23,2,11.63s5.87-17.45,5.87-17.45,7.82-13.42,2.93-20.13c0,0,6.35-4.92,5.38-17,0,0,8.79-5.36,6.84-16.1,0,0,5.86.9,7.33-15.21,0,0,7.33-3.58,4.89-14.76l6.84-13.42Z"/><path class="cls-16" d="M1289.2,61.29s-9.06,12.77,7.25,39.19c0,0-6.34,28.62,4.07,39.18,0,0-5.43,22.46,0,26.42s4.08-28.18,4.08-28.18-.45-37-4.08-43.15-10.41-19.81-7.7-30.82-2.26-18.49-2.26-18.49,14.49,29.5,12.23,36.11,4.53,30.37,4.53,30.37-4.08,35.67,1.81,40.07c0,0-5.44,42.71,7.7,48.87,0,0,4.08-32.14-4.08-39.62,0,0,7.25-22.46-.9-34.35,0,0,5.89-17.61.45-28.17,0,0,7.25-17.62,0-21.58s-5-22.89-5-22.89,9.06,10.56,13.59,30.82a227.06,227.06,0,0,0,10.41,34.34,73.77,73.77,0,0,0,1.82,38.74s11.32-35.22,6.79-38.74c0,0,2.27-23.78-7.7-33.9,0,0,5-19.37-11.32-35.67"/></g><g id="Layer_1" data-name="Layer 1"><ellipse class="cls-1" cx="163.95" cy="440.07" rx="91.55" ry="41.93"/><path class="cls-2" d="M229.46,389h-59a425.52,425.52,0,0,1,1.22-59.16c27.95-2.12,24.7-2.12,57.84-1.42C230,352.77,230.35,369.91,229.46,389Z"/><path class="cls-2" d="M162,330.59c-1.73,25.92-2.2,39.27-4.12,53h0q-.29,2.08-.63,4.2l0,.18c0,.16,0,.33-.08.49L135.75,388H99.13c-.08-.28-.16-.56-.23-.84l-.21-.77Q98,383.6,97.31,381c-4.44-17.87-5.75-30.11-7.87-50.42C113.4,327.26,126,326.6,162,330.59Z"/><polyline class="cls-3" points="157.32 388.49 157.12 388.49 135.75 388 98.9 387.16 98.76 387.16"/><line class="cls-3" x1="170.3" y1="386.83" x2="229.53" y2="389.49"/><path class="cls-4" d="M229,389c-4.66,15.31-5.54,20.8-10.86,36.77,14-.67,27.28-.67,29.28,8,2,9.32-31.28,10-67.22,5.33-4.65-18.64-5.54-31.78-10.2-53.08C199.28,385.33,207,389.67,229,389Z"/><path class="cls-3" d="M188.93,341.24c-3.22,2.13-4.73,4.92-4,6.65a2.69,2.69,0,0,0,1.33,1.33"/><path class="cls-3" d="M200.91,347.23c.48,3.16,2,5.56,4,6a3.47,3.47,0,0,0,1.33,0"/><path class="cls-3" d="M209.56,341.24c4.1,1.77,5.29,5.95,4,8-1,1.6-3.84,2.31-6.66,1.34"/><path class="cls-3" d="M217.55,342.57a9.86,9.86,0,0,0,4,5.32,8.29,8.29,0,0,0,1.33.67"/><path class="cls-3" d="M198.92,358.88l-2.67-.67"/><path class="cls-3" d="M193.59,359.21a15.7,15.7,0,0,0-7.32,6.65"/><path class="cls-3" d="M188.93,365.86a4.11,4.11,0,0,0,.67,2.66c1.12,1.59,3.56,2.2,6,1.33"/><path class="cls-3" d="M206.9,365.86l4.1-1.49,3.22-1.17"/><path class="cls-3" d="M212.23,366.53c-.39,2.48.71,4.39,2,4.66a2.63,2.63,0,0,0,2-.67"/><path class="cls-3" d="M220.21,359.87a3,3,0,0,0,1.33,3.33,3,3,0,0,0,2.66,0"/><path class="cls-3" d="M175,356.54c-.22,1.34-.45,2.67-.67,4"/><path class="cls-3" d="M156,344.57l-6,10.64"/><path class="cls-3" d="M132,353.88l3.33-8"/><path class="cls-3" d="M126,353.22c-3.79-5.52-4.38-8.5-3.33-10a4.79,4.79,0,0,1,2-1.33c0-.06-3.35,1.34-8,3.33"/><path class="cls-3" d="M110.07,348.56l-7.32-7.32"/><path class="cls-3" d="M104.08,357.88c0,4,1,8.15-6.65,11.31"/><path class="cls-3" d="M114.06,360.54c-.22,3.33-2,6.65-.66,10"/><path class="cls-3" d="M124.71,361.2c2,3.33,0,7.32,6,10"/><path class="cls-3" d="M141.35,359.21c1.33,7.32,4.88,8,7.32,12"/><path class="cls-4" d="M157.91,382.31c-.95,22.62-3.73,32.57-8.6,49.14-20.43,1.55.57.55-41.43,4.55-2-4-4-6-6.32-18.46C100.39,404.88,99,397.33,97.88,384,128.5,383.06,133.94,383.34,157.91,382.31Z"/><path class="cls-18" d="M98.88,399c16.49-.79,37.65,10.58,51,31-2.77,9.14-20.23,6.79-43,6C92,414.8,91.88,402,98.88,399Z"/><path class="cls-2" d="M581.44,383.89l-60.26-3.74a283.65,283.65,0,0,1,4.27-48.68c28.67,0,25.35-.18,59.19,2.5C583.79,354.06,583.32,368.21,581.44,383.89Z"/><path class="cls-5" d="M223.54,239.75c8,41.93,11.31,57.23,8,92.51-28.62,0-43.93-.67-61.9,1.33-1.33-16,0-18.64.67-35.94a3.42,3.42,0,0,0-2.66,0c-.67,16.64.66,15.31-3.33,36.6-35.94-2-40.6-1.33-75.2-1.33-6-29.28-6-49.91-2-93.83C136.36,243.74,161,249.07,223.54,239.75Z"/><path class="cls-3" d="M158.32,294.32c15.31,4.66,20.41-6.21,30.61-9.31"/><path class="cls-6" d="M225.84,204.61a60.8,60.8,0,0,0,18.5,28.23L220.21,255s3,9,11.51,9.1c0,0,36.68-24.1,28.6-41.47,0,0-9-17.93-20.08-31.37"/><path class="cls-6" d="M94.25,179.35s-4.73,1.16,4,15.1L81.81,223.81s9,4.62,21,20.64l-5.22,7.29S62.32,228.46,66.45,222C66.45,222,59.46,200.81,94.25,179.35Z"/><path class="cls-6" d="M97.47,172.3s69,62.11,142.31,8.54c0,0,6.54,78.8-9.61,88.89,0,0-38.41,8.54-135.75-10.87C94.42,258.86,74.77,208.79,97.47,172.3Z"/><path class="cls-7" d="M92.28,255.09s0,.1,0,.15a4.26,4.26,0,0,0,2.11,4.13c7.05,4.06,35,14.74,133.44,13.94a4.32,4.32,0,0,0,4.26-5l-.2-1.26a4.36,4.36,0,0,0-5.27-3.52c-12.54,2.82-52.12,8.08-128.88-12A4.35,4.35,0,0,0,92.28,255.09Z"/><rect class="cls-8" x="163.82" y="50.95" width="7.42" height="7.42"/><rect class="cls-8" x="135.01" y="68.84" width="13.97" height="5.24"/><path class="cls-8" d="M132,30l97.78,3.5s22.69,120,7.85,154.52c0,0-74.64,55.88-140.12-15.71C97.47,172.3,90.49,140,132,30Z"/><polyline class="cls-9" points="180.01 89.36 169.93 126.46 185.87 126.46"/><path class="cls-10" d="M190.94,83.86c9.12-1.38,30.22-2.76,38.56,12.09a5.92,5.92,0,0,1,.8,4c-.6,3.06-4.34,7-21.26,3.45l-.35-.07c-1.86-.3-20-3.43-22.6-12.52C185.13,87.5,187.38,84.4,190.94,83.86Z"/><ellipse class="cls-6" cx="207.73" cy="93.3" rx="6.15" ry="9.81" transform="translate(-9.85 26.1) rotate(-7.02)"/><path class="cls-10" d="M135.94,79.06c9.12-1.39,30.22-2.77,38.56,12.09a6,6,0,0,1,.8,4c-.6,3.06-4.34,7-21.27,3.45l-.34-.07c-1.87-.3-20-3.43-22.6-12.52C130.13,82.69,132.38,79.6,135.94,79.06Z"/><ellipse class="cls-6" cx="152.73" cy="88.5" rx="6.15" ry="9.81" transform="translate(-9.68 19.34) rotate(-7.02)"/><line class="cls-10" x1="191.32" y1="83.25" x2="217.51" y2="70.59"/><polyline class="cls-11" points="157.27 49.64 133.7 46.14 131.56 56.98 130.19 63.95 127.59 77.14 152.91 78.45 152.91 65.35 134.58 65.35"/><polyline class="cls-12" points="172.55 63.6 159.46 61.42 159.46 46.14 178.23 48.33 172.55 84.99 161.64 66.22"/><path class="cls-8" d="M188.7,106s-4.42,2.94-2.76,5.52c.55.86,1.78,1.68,4.07,2.33,0,0,5.24-2.18-1.31-3.92,0,0-2.62,0-1.31,1.74"/><line class="cls-10" x1="193.51" y1="109.88" x2="193.51" y2="113.8"/><polyline class="cls-10" points="195.25 109.88 197 112.49 198.74 115.11"/><line class="cls-10" x1="195.69" y1="114.24" x2="199.18" y2="110.75"/><path class="cls-8" d="M204.42,112.49s-7.86-3-.88-5.23,1.75,5.67,1.75,5.67S204,116.86,207,117.3"/><path class="cls-8" d="M209.66,111.18s0,4.81,1.74,5.68"/><path class="cls-8" d="M215.33,116.86s-.44-12.22,2.18-1.31"/><path class="cls-8" d="M220.13,113.8h3.06s0-3.49-1.75-2.62c0,0-7.42,2.62.88,6.55l2.61-.87"/><path class="cls-10" d="M113,143.72s2.09-27.67,57.21-14.06c0,0,56.37-6.8,61.8,22.68,0,0,5.85,33.57-54.29,33.12C177.69,185.46,119.65,190.45,113,143.72Z"/><path class="cls-13" d="M113.19,144.8s-.88-12.23,17.46-6.11a9.76,9.76,0,0,1,.95,4.67c-.13,3.34-2,7.87-9.68,11.48C121.92,154.84,112.75,148.29,113.19,144.8Z"/><path class="cls-14" d="M131.09,145.77s-1.15-17.15,23-8.58a14.56,14.56,0,0,1,1.25,6.56c-.17,4.69-2.63,11.05-12.73,16.11C142.57,159.86,130.51,150.67,131.09,145.77Z"/><path class="cls-15" d="M153.35,147.92s-1.15-15.06,23-7.53a11.48,11.48,0,0,1,1.25,5.76c-.16,4.12-2.62,9.7-12.73,14.14C164.83,160.29,152.78,152.23,153.35,147.92Z"/><path class="cls-16" d="M172.12,152.72s-1.15-15.06,23-7.53a11.52,11.52,0,0,1,1.25,5.76c-.16,4.12-2.62,9.7-12.73,14.14C183.6,165.09,171.55,157,172.12,152.72Z"/><path class="cls-13" d="M192.87,152.72s-.87-15.06,17.36-7.53a14.61,14.61,0,0,1,1,5.76c-.13,4.12-2,9.7-9.63,14.14C201.55,165.09,192.43,157,192.87,152.72Z"/><path class="cls-14" d="M213.43,149.89s-6.57-14.22,13.39-13.7a15.49,15.49,0,0,1,3.09,5.2c1.45,4,1.84,10.11-3.62,17.23C226.29,158.62,214.66,154.21,213.43,149.89Z"/><path class="cls-17" d="M114.37,139.15s11.7-25.17,61.4-9.17c0,0,49.46-8.61,53.32,9C229.09,139,217.59,152.78,114.37,139.15Z"/><path class="cls-11" d="M121.7,164.49s9.16-1.29,11.72,12.58C133.42,177.07,119.13,168.42,121.7,164.49Z"/><path class="cls-11" d="M148.44,183.77s-20.42-4.86-19.21-11.19c0,0,10-5.85,19.21,11.19"/><path class="cls-11" d="M164.66,185.35s-19.35,1.17-20.88-5.48c0,0,6.18-8.74,20.88,5.48"/><path class="cls-11" d="M173.64,186.05s-17.45,2.22-19.6-3.91c0,0,4.61-8.54,19.6,3.91"/><path class="cls-11" d="M188.58,185.09s-18.8,4.71-21.52-1.54c0,0,4.46-9.73,21.52,1.54"/><path class="cls-11" d="M203.45,183.18s-18,7.18-21.54,1.35c0,0,3.12-10.23,21.54-1.35"/><path class="cls-11" d="M215.83,178.2s-16.45,10.23-21,5.12c0,0,1.27-10.63,21-5.12"/><path class="cls-11" d="M225,171.78s-13.52,13.87-19.13,10c0,0-1.31-10.62,19.13-10"/><path class="cls-13" d="M179.1,21.7s-4.8-9.17-16.15,0c0,0,3.93-8.29-10-2.18,0,0-21.83-11.79-27.06,9.16,0,0-16.16-5.67-24.89,9.17,0,0-18.33,2.62-14,15.71,0,0-16.59.44-12.23,11.35,0,0-23.13,9.61-21.39,27.07,0,0,6.55,1.31,10.48-10.91,0,0,11.79,3.92,17.46-11.79,0,0,1.31,3.49,5.24-9.17,0,0,4.36.44,7.42-9.16,0,0,7.42,1.31,10.91-7.86,0,0,10.48,2.62,16.15-7.42,0,0-.43,7-14,16.15,0,0-1.31,4.36-10,4.36,0,0-5.68,3.93-3.06,6.55,0,0-10.48,2.62-9.17,9.17,0,0-11.78,3.49-13.53,21.39s4.8,2.62,4.8,2.62S82.63,78,91.8,74.08c0,0,5.24-1.74,7.42-8.73,0,0,7.86,1.75,10.91-10.48,0,0,11.79-3,12.22-12.65,0,0,.88,14.84-9.6,18.77,0,0-13.53,5.23-11.35,13.53,0,0-10.48,2.62-13.53,12.66,0,0-10,6.54-8.3,12.66,0,0-14,16.58-5.67,24,0,0,7,0,5.67-14.84,0,0,16.59-19.2,17.47-26.19,0,0,11.34-4.36,11.34-14l5.24-4.36-2.18,7.42S94,83.68,100.53,90.23c0,0-11.79,9.17-7,18.77,0,0-12.66,17-7,25.76,0,0-10.48,11.35-4.37,23.57,0,0-14.4,11.35-3.92,34.48,0,0,3.92-1.74,1.74-10.91,0,0,7-5.67,3.06-13.1,0,0,7-6.54,1.74-14.84,0,0,4.8-5.23,4.37-17.46,0,0,10.91-11.35,4.8-19.2,0,0,7-7,6.11-19.21,0,0,8.29-4.8,10.91-19.21,0,0,10.92-3,9.17-10,0,0-14,26.19-11.79,30.56,0,0-13.09,15.71-7,18.77,0,0-10.48,13.09-4.36,18.33,0,0-8.3,11.35-5.24,20.52,0,0-3.06,18.77,1.74,11.35s5.24-17,5.24-17,7-13.09,2.62-19.64c0,0,5.68-4.8,4.8-16.59a16,16,0,0,0,6.11-15.71s5.24.87,6.55-14.84c0,0,6.55-3.49,4.37-14.41l6.11-13.09s11.35-.44,26.19-15.72c0,0-.44,15.72,13.09,1.75,0,0,13.1,9.17,13.54-4.37s11.35,4.37,11.35,4.37S219.7,58.8,218.82,44.4c0,0,7.42,17,12.23,16.15,0,0-8.73,12.66,7,38.85,0,0-6.11,28.37,3.93,38.85,0,0-5.24,22.26,0,26.19s3.93-27.94,3.93-27.94-.44-36.66-3.93-42.78-10-19.64-7.42-30.55-2.18-18.34-2.18-18.34,14,29.25,11.78,35.8,4.37,30.12,4.37,30.12-3.93,35.36,1.74,39.72c0,0-5.24,42.34,7.42,48.45,0,0,3.93-31.86-3.93-39.28,0,0,7-22.26-.87-34,0,0,5.68-17.46.44-27.94,0,0,7-17.46,0-21.39s-4.8-22.7-4.8-22.7S257.24,64,261.6,84.12a229.86,229.86,0,0,0,10,34.05,75.18,75.18,0,0,0,1.75,38.41s10.91-34.92,6.55-38.41c0,0,2.18-23.57-7.43-33.61A39.77,39.77,0,0,0,261.6,49.2s2.62-7.42-24.44-22.26c0,0-1.31,7.42-14-8.3,0,0-13.53-6.54-18.34,2.62,0,0,2.19-10.91-17.89-1.31Z"/><path class="cls-15" d="M131.46,26.06S114,20.29,104.61,35.37c0,0-19.78,2.66-15.07,16,0,0-17.9.44-13.19,11.53,0,0-25,9.75-23.08,27.49,0,0,7.06,1.33,11.3-11.08,0,0,12.72,4,18.84-12,0,0,1.42,3.55,5.66-9.31,0,0,4.71.44,8-9.32,0,0,8,1.34,11.78-8,0,0,11.31,2.66,17.43-7.54,0,0-.47,7.1-15.07,16.41,0,0-1.42,4.44-10.84,4.44,0,0-6.12,4-3.3,6.65,0,0-11.3,2.66-9.89,9.31,0,0-12.72,3.55-14.6,21.73s5.18,2.67,5.18,2.67,7.07-18.19,17-22.18c0,0,5.65-1.77,8-8.87,0,0,8.48,1.77,11.77-10.64,0,0,12.72-3.11,13.19-12.87,0,0,.95,15.08-10.36,19.08,0,0-14.6,5.32-12.25,13.74,0,0-11.3,2.66-14.6,12.87,0,0-10.83,6.65-9,12.86,0,0-15.07,16.85-6.12,24.39,0,0,7.53,0,6.12-15.08,0,0,17.9-19.51,18.84-26.61a26.22,26.22,0,0,0,6.44-3.68c.85-.89,1.76-1.75,2.67-2.54a12.14,12.14,0,0,0,3.14-8l5.65-4.44L115.92,70a59.94,59.94,0,0,0-6.44,4.87,19.26,19.26,0,0,1-2.67,2.54c-3.54,3.71-6,8.06-2.67,11.22,0,0-12.72,9.31-7.54,19.07,0,0-13.66,17.3-7.53,26.17,0,0-11.31,11.53-4.71,23.95,0,0-15.55,11.53-4.24,35,0,0,4.24-1.77,1.88-11.08,0,0,7.54-5.77,3.3-13.31,0,0,7.54-6.65,1.88-15.08,0,0,5.18-5.32,4.71-17.74,0,0,11.78-11.53,5.18-19.51a25.29,25.29,0,0,0,6.6-19.52s9-4.88,11.78-19.51a23.71,23.71,0,0,0,5.73-2.49c2.31-4.44,4.16-7.71,4.16-7.71.93,3.51-1.48,6-4.16,7.71-4.27,8.22-10.09,20.45-8.56,23.33,0,0-14.13,16-7.54,19.07,0,0-11.3,13.31-4.71,18.63,0,0-9,11.53-5.65,20.85,0,0-3.3,19.07,1.88,11.53s5.66-17.3,5.66-17.3,7.53-13.3,2.82-20c0,0,6.13-4.88,5.18-16.85a15.92,15.92,0,0,0,6.6-16s5.65.89,7.07-15.08c0,0,7.06-3.54,4.71-14.63l6.59-13.31Z"/><path class="cls-16" d="M231.48,57.93s-8.73,12.66,7,38.85c0,0-6.11,28.37,3.92,38.85,0,0-5.23,22.26,0,26.19s3.93-27.94,3.93-27.94-.43-36.66-3.93-42.77-10-19.65-7.42-30.56-2.18-18.33-2.18-18.33,14,29.24,11.79,35.79,4.36,30.12,4.36,30.12-3.93,35.36,1.75,39.72c0,0-5.24,42.34,7.42,48.46,0,0,3.93-31.87-3.93-39.29,0,0,7-22.26-.87-34.05,0,0,5.67-17.46.43-27.94,0,0,7-17.46,0-21.39S248.94,51,248.94,51,257.67,61.42,262,81.5a228.4,228.4,0,0,0,10,34.05A75.24,75.24,0,0,0,273.82,154s10.92-34.92,6.55-38.41c0,0,2.18-23.57-7.42-33.61A39.81,39.81,0,0,0,262,46.58"/><path class="cls-3" d="M541.93,345.74c-3.22,2.13-4.73,4.92-4,6.65a2.69,2.69,0,0,0,1.33,1.33"/><path class="cls-3" d="M553.91,351.73c.48,3.16,2,5.56,4,6a3.47,3.47,0,0,0,1.33,0"/><path class="cls-3" d="M562.56,345.74c4.1,1.77,5.29,5.95,4,8-1,1.6-3.84,2.31-6.66,1.34"/><path class="cls-3" d="M570.55,347.07a9.86,9.86,0,0,0,4,5.32,8.29,8.29,0,0,0,1.33.67"/><path class="cls-3" d="M551.92,363.38l-2.67-.67"/><path class="cls-3" d="M546.59,363.71a15.7,15.7,0,0,0-7.32,6.65"/><path class="cls-3" d="M541.93,370.36a4.11,4.11,0,0,0,.67,2.66c1.12,1.59,3.56,2.2,6,1.33"/><path class="cls-3" d="M559.9,370.36l4.1-1.49,3.22-1.17"/><path class="cls-3" d="M565.23,371c-.39,2.48.71,4.39,2,4.66a2.63,2.63,0,0,0,2-.67"/><path class="cls-3" d="M573.21,364.37a3,3,0,0,0,1.33,3.33,3,3,0,0,0,2.66,0"/><path class="cls-3" d="M528,361c-.22,1.34-.45,2.67-.67,4"/><path class="cls-5" d="M578.54,247.68c8,42.29,11.31,57.73,8,93.31-28.62,0-43.93-.67-61.9,1.34-1.33-16.11,0-18.8.67-36.25a3.37,3.37,0,0,0-2.66,0c-.67,16.78.66,15.44-3.33,36.92-35.94-2-40.6-1.34-75.2-1.34-6-29.54-6-50.35-2-94.65C491.36,251.71,516,257.08,578.54,247.68Z"/><path class="cls-3" d="M513.32,302.73c15.31,4.69,20.41-6.27,30.61-9.4"/><path class="cls-6" d="M580.84,212.24a61.45,61.45,0,0,0,18.5,28.47L575.21,263.1s3,9,11.51,9.18c0,0,36.68-24.3,28.6-41.82,0,0-9-18.09-20.08-31.65"/><path class="cls-6" d="M449.25,186.76s-4.73,1.17,4,15.24l-16.47,29.61s9,4.66,21,20.81l-5.22,7.36s-35.28-23.49-31.15-30C421.45,229.76,414.46,208.41,449.25,186.76Z"/><path class="cls-6" d="M452.47,179.65s69,62.64,142.31,8.61c0,0,6.54,79.48-9.61,89.66,0,0-38.41,8.62-135.75-11C449.42,267,429.77,216.45,452.47,179.65Z"/><path class="cls-7" d="M447.28,263.16s0,.1,0,.15a4.3,4.3,0,0,0,2.11,4.16c7.05,4.09,35,14.87,133.44,14.06a4.35,4.35,0,0,0,4.26-5l-.2-1.28a4.35,4.35,0,0,0-5.27-3.54c-12.54,2.84-52.12,8.14-128.88-12.15A4.35,4.35,0,0,0,447.28,263.16Z"/><rect class="cls-8" x="518.82" y="57.25" width="7.42" height="7.48"/><rect class="cls-8" x="490.01" y="75.3" width="13.97" height="5.28"/><path class="cls-8" d="M487,36.11l97.78,3.53s22.69,121.07,7.85,155.86c0,0-74.64,56.35-140.12-15.85C452.47,179.65,445.49,147.07,487,36.11Z"/><polyline class="cls-9" points="535.01 95.99 524.93 133.42 540.87 133.42"/><path class="cls-10" d="M545.94,90.44c9.12-1.39,30.22-2.78,38.56,12.2a6,6,0,0,1,.8,4.06c-.6,3.1-4.34,7.12-21.26,3.48l-.35-.06c-1.86-.3-20-3.46-22.6-12.63C540.13,94.11,542.38,91,545.94,90.44Z"/><ellipse class="cls-6" cx="562.73" cy="99.97" rx="6.15" ry="9.89" transform="translate(-7.93 68.21) rotate(-6.89)"/><path class="cls-10" d="M490.94,85.6c9.12-1.39,30.22-2.78,38.56,12.19a6.09,6.09,0,0,1,.8,4.07C529.7,105,526,109,509,105.34l-.34-.07c-1.87-.3-20-3.46-22.6-12.62C485.13,89.27,487.38,86.15,490.94,85.6Z"/><ellipse class="cls-6" cx="507.73" cy="95.13" rx="6.15" ry="9.89" transform="translate(-7.74 61.58) rotate(-6.89)"/><line class="cls-10" x1="546.32" y1="89.83" x2="572.51" y2="77.06"/><polyline class="cls-11" points="512.27 55.93 488.7 52.4 486.56 63.34 485.19 70.37 482.59 83.67 507.91 84.98 507.91 71.78 489.58 71.78"/><polyline class="cls-12" points="527.55 70.02 514.46 67.81 514.46 52.4 533.23 54.61 527.55 91.59 516.64 72.66"/><path class="cls-8" d="M543.7,112.72s-4.42,3-2.76,5.58c.55.86,1.78,1.69,4.07,2.35,0,0,5.24-2.2-1.31-4,0,0-2.62,0-1.31,1.76"/><line class="cls-10" x1="548.51" y1="116.69" x2="548.51" y2="120.65"/><polyline class="cls-10" points="550.25 116.69 552 119.33 553.74 121.97"/><line class="cls-10" x1="550.69" y1="121.09" x2="554.18" y2="117.57"/><path class="cls-8" d="M559.42,119.33s-7.86-3.08-.88-5.29,1.75,5.73,1.75,5.73-1.31,4,1.75,4.4"/><path class="cls-8" d="M564.66,118s0,4.84,1.74,5.72"/><path class="cls-8" d="M570.33,123.73s-.44-12.33,2.18-1.32"/><path class="cls-8" d="M575.13,120.65h3.06s0-3.52-1.75-2.64c0,0-7.42,2.64.88,6.6l2.61-.88"/><path class="cls-10" d="M468,150.83s2.09-27.91,57.21-14.19c0,0,56.37-6.86,61.8,22.88,0,0,5.85,33.86-54.29,33.4C532.69,192.92,474.65,198,468,150.83Z"/><path class="cls-13" d="M468.19,151.91s-.88-12.33,17.46-6.17a10,10,0,0,1,1,4.72c-.13,3.37-2,7.94-9.68,11.58C476.92,162,467.75,155.43,468.19,151.91Z"/><path class="cls-14" d="M486.09,152.89s-1.15-17.3,23-8.65a14.76,14.76,0,0,1,1.25,6.61c-.17,4.74-2.63,11.15-12.73,16.25C497.57,167.1,485.51,157.83,486.09,152.89Z"/><path class="cls-15" d="M508.35,155.06s-1.15-15.19,23-7.59a11.64,11.64,0,0,1,1.25,5.8c-.16,4.16-2.62,9.79-12.73,14.27C519.83,167.54,507.78,159.4,508.35,155.06Z"/><path class="cls-16" d="M527.12,159.9s-1.15-15.19,23-7.59a11.65,11.65,0,0,1,1.25,5.81c-.16,4.15-2.62,9.78-12.73,14.26C538.6,172.38,526.55,164.24,527.12,159.9Z"/><path class="cls-13" d="M547.87,159.9s-.87-15.19,17.36-7.59a14.79,14.79,0,0,1,.95,5.81c-.13,4.15-2,9.78-9.63,14.26C556.55,172.38,547.43,164.24,547.87,159.9Z"/><path class="cls-14" d="M568.43,157.05s-6.57-14.35,13.39-13.83a15.66,15.66,0,0,1,3.09,5.26c1.45,4.06,1.84,10.19-3.62,17.37C581.29,165.85,569.66,161.4,568.43,157.05Z"/><path class="cls-17" d="M469.37,146.21s11.7-25.38,61.4-9.25c0,0,49.46-8.68,53.32,9.07C584.09,146,572.59,160,469.37,146.21Z"/><path class="cls-11" d="M476.7,171.77s9.16-1.29,11.72,12.69C488.42,184.46,474.13,175.74,476.7,171.77Z"/><path class="cls-11" d="M503.44,191.21s-20.42-4.89-19.21-11.28c0,0,10-5.89,19.21,11.28"/><path class="cls-11" d="M519.66,192.81s-19.35,1.18-20.88-5.52c0,0,6.18-8.82,20.88,5.52"/><path class="cls-11" d="M528.64,193.52s-17.45,2.24-19.6-3.94c0,0,4.61-8.62,19.6,3.94"/><path class="cls-11" d="M543.58,192.55s-18.8,4.75-21.52-1.56c0,0,4.46-9.81,21.52,1.56"/><path class="cls-11" d="M558.45,190.62s-18,7.25-21.54,1.37c0,0,3.12-10.33,21.54-1.37"/><path class="cls-11" d="M570.83,185.6s-16.45,10.32-21,5.17c0,0,1.27-10.72,21-5.17"/><path class="cls-11" d="M580,179.12s-13.52,14-19.13,10.08c0,0-1.31-10.71,19.13-10.08"/><path class="cls-13" d="M534.1,27.75s-4.8-9.25-16.15,0c0,0,3.93-8.37-10-2.2,0,0-21.83-11.89-27.06,9.24,0,0-16.16-5.72-24.89,9.25,0,0-18.33,2.64-14,15.85,0,0-16.59.44-12.23,11.45,0,0-23.13,9.68-21.39,27.29,0,0,6.55,1.33,10.48-11,0,0,11.79,4,17.46-11.89,0,0,1.31,3.52,5.24-9.25,0,0,4.36.44,7.42-9.24,0,0,7.42,1.32,10.91-7.93,0,0,10.48,2.64,16.15-7.48,0,0-.43,7-14,16.29,0,0-1.31,4.4-10,4.4,0,0-5.68,4-3.06,6.61,0,0-10.48,2.64-9.17,9.24,0,0-11.78,3.52-13.53,21.58s4.8,2.64,4.8,2.64,6.55-18,15.72-22c0,0,5.24-1.76,7.42-8.8,0,0,7.86,1.76,10.91-10.57,0,0,11.79-3.08,12.22-12.77,0,0,.88,15-9.6,18.93,0,0-13.53,5.29-11.35,13.65,0,0-10.48,2.64-13.53,12.77,0,0-10,6.61-8.3,12.77,0,0-14,16.73-5.67,24.21,0,0,7,0,5.67-15,0,0,16.59-19.38,17.47-26.42,0,0,11.34-4.4,11.34-14.09l5.24-4.4-2.18,7.48S449,90.27,455.53,96.87c0,0-11.79,9.25-7,18.94,0,0-12.66,17.17-7,26,0,0-10.48,11.45-4.37,23.78,0,0-14.4,11.44-3.92,34.78,0,0,3.92-1.76,1.74-11,0,0,7-5.72,3.06-13.21,0,0,7-6.6,1.74-15,0,0,4.8-5.28,4.37-17.61,0,0,10.91-11.44,4.8-19.37,0,0,7-7,6.11-19.37,0,0,8.29-4.84,10.91-19.37,0,0,10.92-3.09,9.17-10.13,0,0-14,26.42-11.79,30.82,0,0-13.09,15.85-7,18.93,0,0-10.48,13.21-4.36,18.49,0,0-8.3,11.45-5.24,20.7,0,0-3.06,18.93,1.74,11.44s5.24-17.17,5.24-17.17,7-13.21,2.62-19.81c0,0,5.68-4.84,4.8-16.73a16.15,16.15,0,0,0,6.11-15.85s5.24.88,6.55-15c0,0,6.55-3.52,4.37-14.53l6.11-13.21s11.35-.44,26.19-15.85c0,0-.44,15.85,13.09,1.76,0,0,13.1,9.25,13.54-4.4s11.35,4.4,11.35,4.4,26.19,15.85,25.31,1.32c0,0,7.42,17.17,12.23,16.29,0,0-8.73,12.77,7,39.19,0,0-6.11,28.62,3.93,39.18,0,0-5.24,22.46,0,26.42s3.93-28.18,3.93-28.18-.44-37-3.93-43.14-10-19.82-7.42-30.82-2.18-18.5-2.18-18.5,14,29.5,11.78,36.11,4.37,30.38,4.37,30.38-3.93,35.66,1.74,40.06c0,0-5.24,42.71,7.42,48.87,0,0,3.93-32.14-3.93-39.62,0,0,7-22.46-.87-34.34,0,0,5.68-17.62.44-28.18,0,0,7-17.61,0-21.58s-4.8-22.89-4.8-22.89,8.73,10.57,13.09,30.82a233.32,233.32,0,0,0,10,34.34,76.49,76.49,0,0,0,1.75,38.75s10.91-35.23,6.55-38.75c0,0,2.18-23.77-7.43-33.9A40.36,40.36,0,0,0,616.6,55.49S619.22,48,592.16,33c0,0-1.31,7.49-14-8.36,0,0-13.53-6.61-18.34,2.64,0,0,2.19-11-17.89-1.32Z"/><path class="cls-15" d="M486.46,32.14s-17.43-5.81-26.85,9.4c0,0-19.78,2.68-15.07,16.1,0,0-17.9.45-13.19,11.63,0,0-25,9.84-23.08,27.74,0,0,7.06,1.34,11.3-11.19,0,0,12.72,4,18.84-12.08,0,0,1.42,3.58,5.66-9.39,0,0,4.71.45,8-9.39,0,0,8,1.34,11.78-8.06,0,0,11.31,2.69,17.43-7.6,0,0-.47,7.16-15.07,16.55,0,0-1.42,4.47-10.84,4.47,0,0-6.12,4-3.3,6.71,0,0-11.3,2.69-9.89,9.4,0,0-12.72,3.58-14.6,21.92s5.18,2.68,5.18,2.68,7.07-18.34,17-22.36c0,0,5.65-1.79,8-9,0,0,8.48,1.79,11.77-10.74,0,0,12.72-3.13,13.19-13,0,0,.95,15.21-10.36,19.24,0,0-14.6,5.36-12.25,13.86,0,0-11.3,2.69-14.6,13,0,0-10.83,6.71-9,13,0,0-15.07,17-6.12,24.6,0,0,7.53,0,6.12-15.21,0,0,17.9-19.68,18.84-26.84a26.17,26.17,0,0,0,6.44-3.71c.85-.9,1.76-1.76,2.67-2.56a12.3,12.3,0,0,0,3.14-8l5.65-4.48-2.35,7.61a58.94,58.94,0,0,0-6.44,4.91,19.43,19.43,0,0,1-2.67,2.56c-3.54,3.74-6,8.13-2.67,11.32,0,0-12.72,9.39-7.54,19.23,0,0-13.66,17.45-7.53,26.39,0,0-11.31,11.64-4.71,24.16,0,0-15.55,11.63-4.24,35.34,0,0,4.24-1.79,1.88-11.18,0,0,7.54-5.82,3.3-13.42,0,0,7.54-6.71,1.88-15.21,0,0,5.18-5.37,4.71-17.9,0,0,11.78-11.63,5.18-19.68a25.61,25.61,0,0,0,6.6-19.68s8.95-4.92,11.78-19.68a23.58,23.58,0,0,0,5.73-2.52c2.31-4.47,4.16-7.77,4.16-7.77.93,3.54-1.48,6.09-4.16,7.77-4.27,8.3-10.09,20.64-8.56,23.54,0,0-14.13,16.1-7.54,19.24,0,0-11.3,13.42-4.71,18.78,0,0-8.95,11.63-5.65,21,0,0-3.3,19.23,1.88,11.63s5.66-17.45,5.66-17.45,7.53-13.42,2.82-20.13c0,0,6.13-4.92,5.18-17a16.08,16.08,0,0,0,6.6-16.1s5.65.9,7.07-15.21c0,0,7.06-3.58,4.71-14.76l6.59-13.42Z"/><path class="cls-16" d="M586.48,64.29s-8.73,12.77,7,39.19c0,0-6.11,28.62,3.92,39.18,0,0-5.23,22.46,0,26.42s3.93-28.18,3.93-28.18-.43-37-3.93-43.15-10-19.81-7.42-30.82-2.18-18.49-2.18-18.49,14,29.5,11.79,36.11,4.36,30.37,4.36,30.37S600,150.59,605.69,155c0,0-5.24,42.71,7.42,48.87,0,0,3.93-32.14-3.93-39.62,0,0,7-22.46-.87-34.35,0,0,5.67-17.61.43-28.17,0,0,7-17.62,0-21.58s-4.8-22.89-4.8-22.89,8.73,10.56,13.1,30.82a231.85,231.85,0,0,0,10,34.34,76.52,76.52,0,0,0,1.74,38.74s10.92-35.22,6.55-38.74c0,0,2.18-23.78-7.42-33.9A40.41,40.41,0,0,0,617,52.84"/><path class="cls-5" d="M933,244.68c8.28,42.29,11.74,57.73,8.28,93.31-29.69,0-45.57-.67-64.22,1.34-1.38-16.11,0-18.8.69-36.25a3.62,3.62,0,0,0-2.76,0c-.69,16.78.69,15.44-3.45,36.92-37.29-2-42.13-1.34-78-1.34-6.21-29.54-6.21-50.35-2.07-94.65C842.49,248.71,868,254.08,933,244.68Z"/><path class="cls-3" d="M865.28,299.73c15.88,4.69,21.18-6.27,31.77-9.4"/><path class="cls-6" d="M935.35,209.24a61,61,0,0,0,19.19,28.47l-25,22.39s3.12,9,12,9.18c0,0,38.06-24.3,29.67-41.82,0,0-9.33-18.09-20.84-31.65"/><path class="cls-6" d="M798.79,183.76s-4.9,1.17,4.19,15.24l-17.09,29.61s9.36,4.66,21.8,20.81l-5.42,7.36s-36.6-23.49-32.31-30C770,226.76,762.7,205.41,798.79,183.76Z"/><path class="cls-6" d="M802.14,176.65s71.57,62.64,147.67,8.61c0,0,6.79,79.48-10,89.66,0,0-39.86,8.62-140.87-11C799,264,778.59,213.45,802.14,176.65Z"/><path class="cls-7" d="M796.76,260.16s0,.1,0,.15a4.28,4.28,0,0,0,2.19,4.16c7.32,4.09,36.33,14.87,138.47,14.06a4.4,4.4,0,0,0,4.42-5l-.21-1.28a4.51,4.51,0,0,0-5.47-3.54c-13,2.84-54.08,8.14-133.73-12.15A4.5,4.5,0,0,0,796.76,260.16Z"/><rect class="cls-8" x="870.99" y="54.25" width="7.7" height="7.48"/><rect class="cls-8" x="841.1" y="72.3" width="14.49" height="5.28"/><path class="cls-8" d="M837.92,33.11l101.47,3.53s23.55,121.07,8.15,155.86c0,0-77.46,56.35-145.4-15.85C802.14,176.65,794.89,144.07,837.92,33.11Z"/><polyline class="cls-9" points="887.79 92.99 877.33 130.42 893.87 130.42"/><path class="cls-10" d="M899.13,87.44c9.46-1.39,31.36-2.78,40,12.2a5.87,5.87,0,0,1,.84,4.06c-.63,3.1-4.51,7.12-22.07,3.48l-.36-.06c-1.94-.3-20.76-3.46-23.46-12.63C893.1,91.11,895.44,88,899.13,87.44Z"/><ellipse class="cls-6" cx="916.55" cy="96.97" rx="6.38" ry="9.9" transform="translate(-4.81 120.52) rotate(-7.5)"/><path class="cls-10" d="M842.06,82.6c9.46-1.39,31.35-2.78,40,12.19a5.89,5.89,0,0,1,.83,4.07c-.62,3.09-4.5,7.11-22.07,3.48l-.36-.07c-1.93-.3-20.75-3.46-23.45-12.62C836,86.27,838.36,83.15,842.06,82.6Z"/><ellipse class="cls-6" cx="859.48" cy="92.13" rx="6.38" ry="9.9" transform="translate(-4.67 113.02) rotate(-7.5)"/><line class="cls-10" x1="899.53" y1="86.83" x2="926.7" y2="74.06"/><polyline class="cls-11" points="864.2 52.93 839.74 49.4 837.52 60.34 836.09 67.37 833.39 80.67 859.67 81.98 859.67 68.78 840.64 68.78"/><polyline class="cls-12" points="880.05 67.02 866.46 64.81 866.46 49.4 885.94 51.61 880.05 88.59 868.73 69.66"/><path class="cls-8" d="M896.81,109.72s-4.59,3-2.87,5.58c.58.86,1.85,1.69,4.23,2.35,0,0,5.43-2.2-1.36-4,0,0-2.72,0-1.36,1.76"/><line class="cls-10" x1="901.79" y1="113.69" x2="901.79" y2="117.65"/><polyline class="cls-10" points="903.6 113.69 905.41 116.33 907.23 118.97"/><line class="cls-10" x1="904.06" y1="118.09" x2="907.68" y2="114.57"/><path class="cls-8" d="M913.12,116.33s-8.16-3.08-.91-5.29,1.81,5.73,1.81,5.73-1.36,4,1.81,4.4"/><path class="cls-8" d="M918.55,115s0,4.84,1.81,5.72"/><path class="cls-8" d="M924.44,120.73s-.45-12.33,2.26-1.32"/><path class="cls-8" d="M929.42,117.65h3.17s0-3.52-1.81-2.64c0,0-7.7,2.64.91,6.6l2.71-.88"/><path class="cls-10" d="M818.22,147.83s2.17-27.91,59.37-14.19c0,0,58.49-6.86,64.13,22.88,0,0,6.06,33.86-56.33,33.4C885.39,189.92,825.15,195,818.22,147.83Z"/><path class="cls-13" d="M818.45,148.91s-.91-12.33,18.12-6.17a9.82,9.82,0,0,1,1,4.72c-.14,3.37-2.08,7.94-10,11.58C827.51,159,818,152.43,818.45,148.91Z"/><path class="cls-14" d="M837,149.89s-1.19-17.3,23.83-8.65a14.38,14.38,0,0,1,1.3,6.61c-.18,4.74-2.73,11.15-13.22,16.25C848.93,164.1,836.43,154.83,837,149.89Z"/><path class="cls-15" d="M860.12,152.06s-1.19-15.19,23.83-7.59a11.35,11.35,0,0,1,1.3,5.8c-.17,4.16-2.73,9.79-13.21,14.27C872,164.54,859.53,156.4,860.12,152.06Z"/><path class="cls-16" d="M879.6,156.9s-1.19-15.19,23.82-7.59a11.31,11.31,0,0,1,1.31,5.81c-.18,4.15-2.73,9.78-13.22,14.26C891.51,169.38,879,161.24,879.6,156.9Z"/><path class="cls-13" d="M901.13,156.9s-.9-15.19,18-7.59a14.16,14.16,0,0,1,1,5.81c-.13,4.15-2.06,9.78-10,14.26C910.14,169.38,900.68,161.24,901.13,156.9Z"/><path class="cls-14" d="M922.47,154.05s-6.82-14.35,13.89-13.83a15.55,15.55,0,0,1,3.2,5.26c1.51,4.06,1.92,10.19-3.75,17.37C935.81,162.85,923.75,158.4,922.47,154.05Z"/><path class="cls-17" d="M819.67,143.21s12.15-25.38,63.72-9.25c0,0,51.33-8.68,55.32,9.07C938.71,143,926.79,157,819.67,143.21Z"/><path class="cls-11" d="M827.28,168.77s9.5-1.29,12.17,12.69C839.45,181.46,824.61,172.74,827.28,168.77Z"/><path class="cls-11" d="M855,188.21s-21.19-4.89-19.93-11.28c0,0,10.41-5.89,19.93,11.28"/><path class="cls-11" d="M871.86,189.81s-20.07,1.18-21.66-5.52c0,0,6.41-8.82,21.66,5.52"/><path class="cls-11" d="M881.18,190.52s-18.11,2.24-20.34-3.94c0,0,4.79-8.62,20.34,3.94"/><path class="cls-11" d="M896.68,189.55s-19.5,4.75-22.33-1.56c0,0,4.63-9.81,22.33,1.56"/><path class="cls-11" d="M912.11,187.62s-18.68,7.25-22.35,1.37c0,0,3.23-10.33,22.35-1.37"/><path class="cls-11" d="M925,182.6s-17.07,10.32-21.75,5.17c0,0,1.31-10.72,21.75-5.17"/><path class="cls-11" d="M934.43,176.12s-14,14-19.84,10.08c0,0-1.37-10.71,19.84-10.08"/><path class="cls-13" d="M886.84,24.75s-5-9.25-16.76,0c0,0,4.08-8.37-10.41-2.2,0,0-22.65-11.89-28.09,9.24,0,0-16.76-5.72-25.82,9.25,0,0-19,2.64-14.49,15.85,0,0-17.21.44-12.68,11.45,0,0-24,9.68-22.2,27.29,0,0,6.8,1.33,10.87-11,0,0,12.23,4,18.12-11.89,0,0,1.36,3.52,5.44-9.25,0,0,4.53.44,7.7-9.24,0,0,7.7,1.32,11.32-7.93,0,0,10.87,2.64,16.76-7.48,0,0-.45,7-14.49,16.29,0,0-1.36,4.4-10.42,4.4,0,0-5.89,4-3.17,6.61,0,0-10.87,2.64-9.52,9.24,0,0-12.22,3.52-14,21.58s5,2.64,5,2.64,6.79-18,16.3-22c0,0,5.44-1.76,7.7-8.8,0,0,8.16,1.76,11.33-10.57,0,0,12.23-3.08,12.68-12.77,0,0,.91,15-10,18.93,0,0-14,5.29-11.77,13.65,0,0-10.87,2.64-14,12.77,0,0-10.42,6.61-8.61,12.77,0,0-14.5,16.73-5.89,24.21,0,0,7.25,0,5.89-15,0,0,17.21-19.38,18.12-26.42,0,0,11.77-4.4,11.77-14.09l5.44-4.4-2.26,7.48s-18.12,11.89-11.33,18.49c0,0-12.23,9.25-7.25,18.94,0,0-13.13,17.17-7.24,26,0,0-10.87,11.45-4.53,23.78,0,0-14.95,11.44-4.08,34.78,0,0,4.08-1.76,1.81-11,0,0,7.25-5.72,3.17-13.21,0,0,7.25-6.6,1.81-15,0,0,5-5.28,4.53-17.61,0,0,11.33-11.44,5-19.37,0,0,7.24-7,6.34-19.37,0,0,8.6-4.84,11.32-19.37,0,0,11.33-3.09,9.51-10.13,0,0-14.49,26.42-12.23,30.82,0,0-13.58,15.85-7.24,18.93,0,0-10.87,13.21-4.53,18.49,0,0-8.61,11.45-5.44,20.7,0,0-3.17,18.93,1.81,11.44s5.44-17.17,5.44-17.17,7.25-13.21,2.72-19.81c0,0,5.89-4.84,5-16.73a16,16,0,0,0,6.34-15.85s5.44.88,6.8-15c0,0,6.79-3.52,4.53-14.53l6.34-13.21S847,60,862.38,44.56c0,0-.45,15.85,13.59,1.76,0,0,13.59,9.25,14-4.4s11.78,4.4,11.78,4.4S929,62.17,928.06,47.64c0,0,7.7,17.17,12.69,16.29,0,0-9.06,12.77,7.24,39.19,0,0-6.34,28.62,4.08,39.18,0,0-5.44,22.46,0,26.42s4.08-28.18,4.08-28.18-.46-37-4.08-43.14-10.42-19.82-7.7-30.82-2.26-18.5-2.26-18.5,14.49,29.5,12.22,36.11,4.53,30.38,4.53,30.38-4.07,35.66,1.82,40.06c0,0-5.44,42.71,7.7,48.87,0,0,4.07-32.14-4.08-39.62,0,0,7.25-22.46-.91-34.34,0,0,5.89-17.62.46-28.18,0,0,7.24-17.61,0-21.58s-5-22.89-5-22.89,9.06,10.57,13.59,30.82a226.3,226.3,0,0,0,10.42,34.34,73.86,73.86,0,0,0,1.81,38.75s11.33-35.23,6.8-38.75c0,0,2.26-23.77-7.7-33.9,0,0,5-19.37-11.33-35.66,0,0,2.72-7.49-25.36-22.46,0,0-1.36,7.49-14.5-8.36,0,0-14-6.61-19,2.64,0,0,2.26-11-18.57-1.32Z"/><path class="cls-15" d="M837.41,29.14s-18.08-5.81-27.86,9.4c0,0-20.53,2.68-15.64,16.1,0,0-18.58.45-13.69,11.63,0,0-25.9,9.84-24,27.74,0,0,7.33,1.34,11.73-11.19,0,0,13.2,4,19.55-12.08,0,0,1.47,3.58,5.87-9.39,0,0,4.89.45,8.31-9.39,0,0,8.31,1.34,12.22-8.06,0,0,11.73,2.69,18.08-7.6,0,0-.48,7.16-15.64,16.55,0,0-1.46,4.47-11.24,4.47,0,0-6.35,4-3.42,6.71,0,0-11.73,2.69-10.27,9.4,0,0-13.19,3.58-15.15,21.92S781.69,98,781.69,98s7.33-18.34,17.6-22.36a14,14,0,0,0,8.3-9s8.8,1.79,12.22-10.74c0,0,13.2-3.13,13.69-13,0,0,1,15.21-10.75,19.24,0,0-15.16,5.36-12.71,13.86,0,0-11.73,2.69-15.15,13,0,0-11.25,6.71-9.29,13,0,0-15.64,17-6.36,24.6,0,0,7.83,0,6.36-15.21,0,0,18.57-19.68,19.55-26.84a27.3,27.3,0,0,0,6.68-3.71c.88-.9,1.83-1.76,2.77-2.56a12.05,12.05,0,0,0,3.26-8l5.86-4.48-2.44,7.61a62,62,0,0,0-6.68,4.91,20.07,20.07,0,0,1-2.77,2.56c-3.67,3.74-6.25,8.13-2.77,11.32,0,0-13.2,9.39-7.82,19.23,0,0-14.17,17.45-7.82,26.39,0,0-11.73,11.64-4.89,24.16,0,0-16.13,11.63-4.4,35.34,0,0,4.4-1.79,2-11.18,0,0,7.82-5.82,3.42-13.42,0,0,7.82-6.71,2-15.21,0,0,5.38-5.37,4.89-17.9,0,0,12.22-11.63,5.38-19.68a25.12,25.12,0,0,0,6.84-19.68s9.29-4.92,12.22-19.68a24.91,24.91,0,0,0,6-2.52c2.39-4.47,4.32-7.77,4.32-7.77,1,3.54-1.54,6.09-4.32,7.77-4.43,8.3-10.47,20.64-8.88,23.54,0,0-14.66,16.1-7.82,19.24,0,0-11.73,13.42-4.89,18.78,0,0-9.29,11.63-5.86,21,0,0-3.43,19.23,2,11.63s5.87-17.45,5.87-17.45,7.82-13.42,2.93-20.13c0,0,6.35-4.92,5.38-17,0,0,8.79-5.36,6.84-16.1,0,0,5.86.9,7.33-15.21,0,0,7.33-3.58,4.89-14.76l6.84-13.42Z"/><path class="cls-16" d="M941.2,61.29s-9.06,12.77,7.25,39.19c0,0-6.34,28.62,4.07,39.18,0,0-5.43,22.46,0,26.42s4.08-28.18,4.08-28.18-.45-37-4.08-43.15-10.41-19.81-7.7-30.82-2.26-18.49-2.26-18.49,14.49,29.5,12.23,36.11,4.53,30.37,4.53,30.37-4.08,35.67,1.81,40.07c0,0-5.44,42.71,7.7,48.87,0,0,4.08-32.14-4.08-39.62,0,0,7.25-22.46-.9-34.35,0,0,5.89-17.61.45-28.17,0,0,7.25-17.62,0-21.58s-5-22.89-5-22.89,9.06,10.56,13.59,30.82a227.06,227.06,0,0,0,10.41,34.34,73.77,73.77,0,0,0,1.82,38.74s11.32-35.22,6.79-38.74c0,0,2.27-23.78-7.7-33.9,0,0,5-19.37-11.32-35.67"/><ellipse class="cls-1" cx="870.95" cy="445.07" rx="91.55" ry="41.93"/><path class="cls-2" d="M936.46,394h-59a425.52,425.52,0,0,1,1.22-59.16c27.95-2.12,24.7-2.12,57.84-1.42C937,357.77,937.35,374.91,936.46,394Z"/><path class="cls-2" d="M869,335.59c-1.73,25.92-2.2,39.27-4.12,53h0q-.29,2.08-.63,4.2l0,.18c0,.16-.05.33-.08.49L842.75,393H806.13c-.08-.28-.16-.56-.23-.84l-.21-.77q-.74-2.79-1.38-5.38c-4.44-17.87-5.75-30.11-7.87-50.42C820.4,332.26,833,331.6,869,335.59Z"/><path class="cls-4" d="M805.62,389c4.69,15.31,5.58,20.8,10.93,36.77-14.06-.67-27.45-.67-29.46,8-2,9.32,31.47,10,67.64,5.33,4.69-18.64,5.58-31.78,10.27-53.08C835.53,385.33,827.73,389.67,805.62,389Z"/><path class="cls-3" d="M900.59,364.21a15.7,15.7,0,0,0-7.32,6.65"/><path class="cls-3" d="M895.93,370.86a4.11,4.11,0,0,0,.67,2.66c1.12,1.59,3.56,2.2,6,1.33"/><path class="cls-3" d="M913.9,370.86l4.1-1.49,3.22-1.17"/><path class="cls-3" d="M919.23,371.53c-.39,2.48.71,4.39,2,4.66a2.63,2.63,0,0,0,2-.67"/><path class="cls-3" d="M927.21,364.87a3,3,0,0,0,1.33,3.33,3,3,0,0,0,2.66,0"/><path class="cls-3" d="M882,361.54c-.22,1.34-.45,2.67-.67,4"/><path class="cls-3" d="M811.08,362.88c0,4,1,8.15-6.65,11.31"/><path class="cls-3" d="M821.06,365.54c-.22,3.33-2,6.65-.66,10"/><path class="cls-3" d="M831.71,366.2c2,3.33,0,7.32,6,10"/><path class="cls-3" d="M848.35,364.21c1.33,7.32,4.88,8,7.32,12"/><path class="cls-4" d="M876.88,387.31c1,22.62,3.74,32.57,8.6,49.14,20.43,1.55-.57.55,41.43,4.55,2-4,4-6,6.32-18.46,1.17-12.66,2.52-20.21,3.68-33.54C906.29,388.06,900.85,388.34,876.88,387.31Z"/><path class="cls-18" d="M935.37,405c-16.49-.79-37.65,10.58-51,31,2.77,9.14,20.23,6.79,43,6C942.29,420.8,942.37,408,935.37,405Z"/><path class="cls-3" d="M906.56,348.74c4.1,1.77,5.29,5.95,4,8-1,1.6-3.84,2.31-6.66,1.34"/><path class="cls-3" d="M809.88,350.61c-.1-2.07,1.72-3.84,3.72-4.41a14,14,0,0,1,6.17.12"/><path class="cls-3" d="M833.32,344.38c1.34,2,.19,4.64-1,6.7s-2.55,4.55-1.5,6.69"/><path class="cls-3" d="M847,340.83a5.83,5.83,0,0,1,1.42,7.86c-.91,1.3-2.44,2.4-2.36,4,.08,1.77,2.12,2.71,3.87,3a4.64,4.64,0,0,0,3.29-.38c1-.62,1.33-2.15.47-2.88"/><path class="cls-3" d="M861.17,348.45v16.07"/><path class="cls-3" d="M887.07,351l0-8.25c1.88-.86,3.78,1.41,5.84,1.43s3.29-1.94,4.24-3.65"/><path class="cls-3" d="M921.28,343.25c1.21,5.2-3.85,10.31-2.73,15.53A7.15,7.15,0,0,0,928,363.6,24.08,24.08,0,0,1,929.26,353"/><path class="cls-3" d="M887.08,372.29v7.78"/></g></svg>
